<svg width="13" height="16" viewBox="0 0 13 16" fill="none" xmlns="http://www.w3.org/2000/svg">
<path fill-rule="evenodd" clip-rule="evenodd" d="M11.3499 10C10.7535 11.336 9.58005 11.305 9.00006 11.1829C10.2815 11.8047 10.2518 13.028 10.1347 13.6327C10.4036 13.0832 11.1101 12.1059 12.4845 12.4498C11.9574 12.1694 11.02 11.4329 11.3499 10Z" stroke="#F4C2C2" stroke-width="0.5" stroke-linecap="round" stroke-linejoin="round"/>
<path d="M4.996 14.168C4.148 14.168 3.468 13.984 2.956 13.616C2.444 13.248 2.072 12.752 1.84 12.128C1.616 11.504 1.504 10.808 1.504 10.04C1.504 9.472 1.552 8.884 1.648 8.276C1.752 7.668 1.912 7.084 2.128 6.524C2.352 5.964 2.64 5.46 2.992 5.012C3.352 4.556 3.788 4.196 4.3 3.932C4.812 3.668 5.408 3.536 6.088 3.536C6.592 3.536 7.024 3.604 7.384 3.74C7.744 3.876 8.04 4.04 8.272 4.232C8.504 4.416 8.672 4.592 8.776 4.76C8.888 4.928 8.944 5.044 8.944 5.108C8.944 5.188 8.876 5.276 8.74 5.372C8.612 5.46 8.496 5.504 8.392 5.504C8.312 5.504 8.224 5.444 8.128 5.324C8.04 5.196 7.92 5.052 7.768 4.892C7.616 4.724 7.404 4.58 7.132 4.46C6.86 4.332 6.5 4.268 6.052 4.268C5.516 4.268 5.048 4.4 4.648 4.664C4.248 4.928 3.908 5.276 3.628 5.708C3.348 6.14 3.12 6.616 2.944 7.136C2.776 7.656 2.652 8.176 2.572 8.696C2.5 9.208 2.464 9.676 2.464 10.1C2.464 10.516 2.512 10.92 2.608 11.312C2.704 11.704 2.856 12.056 3.064 12.368C3.272 12.672 3.54 12.916 3.868 13.1C4.204 13.276 4.608 13.364 5.08 13.364C5.544 13.364 5.976 13.28 6.376 13.112C6.784 12.936 7.148 12.676 7.468 12.332C7.548 12.244 7.632 12.14 7.72 12.02C7.808 11.892 7.904 11.828 8.008 11.828C8.096 11.828 8.18 11.86 8.26 11.924C8.348 11.988 8.392 12.076 8.392 12.188C8.392 12.244 8.364 12.316 8.308 12.404C7.94 12.988 7.468 13.428 6.892 13.724C6.316 14.02 5.684 14.168 4.996 14.168Z" fill="#3C406B"/>
<path fill-rule="evenodd" clip-rule="evenodd" d="M2.61841 1C2.41381 2.18308 1.48186 2.41251 0.999955 2.44166C2.13475 2.65496 2.35482 3.62657 2.38277 4.12898C2.48559 3.63727 2.8484 2.71338 4.00122 2.68732C3.52958 2.58013 2.6434 2.20187 2.61841 1Z" stroke="#F4C2C2" stroke-width="0.4" stroke-linecap="round" stroke-linejoin="round"/>
</svg>
