<svg width="43" height="18" viewBox="0 0 43 18" fill="none" xmlns="http://www.w3.org/2000/svg">
<mask id="path-1-outside-1_91_2" maskUnits="userSpaceOnUse" x="13" y="4" width="28" height="10" fill="black">
<rect fill="white" x="13" y="4" width="28" height="10"/>
<path d="M14.2812 13.1465C14.1445 13.1465 14.0391 13.1055 13.9648 13.0234C13.8906 12.9453 13.8535 12.8457 13.8535 12.7246C13.8535 12.5605 13.9199 12.3438 14.0527 12.0742C14.1816 11.8047 14.3281 11.5059 14.4922 11.1777C14.6562 10.8457 14.8164 10.5254 14.9727 10.2168C15.1328 9.9082 15.2637 9.65039 15.3652 9.44336L17.2988 5.64062C17.3457 5.53906 17.4375 5.44922 17.5742 5.37109C17.7109 5.28906 17.8477 5.24805 17.9844 5.24805C18.1562 5.24805 18.2754 5.28125 18.3418 5.34766C18.4082 5.41016 18.4414 5.48828 18.4414 5.58203C18.4414 5.66797 18.4199 5.75977 18.377 5.85742C18.334 5.95117 18.2852 6.03906 18.2305 6.12109C17.9102 6.67188 17.5918 7.26172 17.2754 7.89062C16.959 8.51953 16.627 9.12305 16.2793 9.70117C16.4277 9.55664 16.5879 9.41211 16.7598 9.26758C16.9316 9.11914 17.125 8.99414 17.3398 8.89258C17.5547 8.79102 17.8008 8.74023 18.0781 8.74023C18.3359 8.74023 18.5566 8.79102 18.7402 8.89258C18.9238 8.99414 19.0156 9.17773 19.0156 9.44336C19.0156 9.69336 18.9609 9.92188 18.8516 10.1289C18.7422 10.3359 18.6133 10.5312 18.4648 10.7148C18.3203 10.8945 18.1855 11.0801 18.0605 11.2715C17.9355 11.4629 17.8613 11.6719 17.8379 11.8984V11.9219L17.832 11.9453C17.832 12.0234 17.8574 12.0723 17.9082 12.0918C17.9629 12.1113 18.0312 12.1211 18.1133 12.1211C18.2734 12.1211 18.4453 12.0781 18.6289 11.9922C18.8164 11.9023 19.0039 11.793 19.1914 11.6641C19.375 11.5352 19.5449 11.4023 19.7012 11.2656C19.8613 11.1289 19.9902 11.0137 20.0879 10.9199C20.1543 10.8574 20.2285 10.8262 20.3105 10.8262C20.3809 10.8262 20.4395 10.8535 20.4863 10.9082C20.5371 10.959 20.5625 11.0293 20.5625 11.1191C20.5625 11.2012 20.5332 11.2949 20.4746 11.4004C20.4199 11.5059 20.3242 11.6113 20.1875 11.7168C19.9062 11.959 19.6152 12.1895 19.3145 12.4082C19.0176 12.627 18.7168 12.8047 18.4121 12.9414C18.1113 13.0781 17.8145 13.1465 17.5215 13.1465C17.2441 13.1465 17.0215 13.084 16.8535 12.959C16.6855 12.8301 16.6016 12.6289 16.6016 12.3555C16.6016 12.0859 16.6621 11.8281 16.7832 11.582C16.9082 11.3359 17.0469 11.1074 17.1992 10.8965C17.3555 10.6855 17.4805 10.5 17.5742 10.3398C17.6211 10.2734 17.6562 10.2129 17.6797 10.1582C17.707 10.0996 17.7207 10.0371 17.7207 9.9707C17.7207 9.83789 17.6562 9.77148 17.5273 9.77148C17.2227 9.77148 16.9473 9.86719 16.7012 10.0586C16.459 10.2461 16.2383 10.4785 16.0391 10.7559C15.8438 11.0293 15.6641 11.2949 15.5 11.5527C15.4219 11.6738 15.3398 11.8223 15.2539 11.998C15.168 12.1738 15.0723 12.3535 14.9668 12.5371C14.8691 12.709 14.7617 12.8535 14.6445 12.9707C14.5273 13.0879 14.4062 13.1465 14.2812 13.1465ZM20.791 13.1465C20.6582 13.1465 20.5 13.1094 20.3164 13.0352C20.1328 12.9609 19.9707 12.8379 19.8301 12.666C19.6934 12.4941 19.625 12.2637 19.625 11.9746C19.625 11.7324 19.6797 11.4297 19.7891 11.0664C19.8984 10.7031 20.0703 10.3457 20.3047 9.99414C20.5391 9.63477 20.8379 9.33594 21.2012 9.09766C21.5684 8.85938 21.9922 8.74023 22.4727 8.74023C22.6445 8.74023 22.7949 8.76172 22.9238 8.80469C23.0527 8.84766 23.1621 8.89453 23.252 8.94531C23.3027 8.97656 23.3496 9.00977 23.3926 9.04492C23.4395 9.07617 23.4824 9.11133 23.5215 9.15039L23.7266 9.05078C23.7852 9.02344 23.8457 9 23.9082 8.98047C23.9746 8.95703 24.0312 8.94531 24.0781 8.94531C24.2266 8.94531 24.3477 8.98633 24.4414 9.06836C24.5352 9.15039 24.582 9.24023 24.582 9.33789C24.582 9.36914 24.5801 9.39062 24.5762 9.40234C24.5488 9.51172 24.498 9.66211 24.4238 9.85352C24.3535 10.0449 24.2773 10.2578 24.1953 10.4922C24.1133 10.7188 24.043 10.9375 23.9844 11.1484C23.9297 11.3594 23.9023 11.5332 23.9023 11.6699C23.9023 11.7871 23.9219 11.8848 23.9609 11.9629C24 12.0371 24.0664 12.0742 24.1602 12.0742C24.2734 12.0742 24.4258 12.0098 24.6172 11.8809C24.8086 11.748 25.0059 11.5918 25.209 11.4121C25.3184 11.3145 25.4316 11.2109 25.5488 11.1016C25.666 10.9883 25.7852 10.8691 25.9062 10.7441C25.9688 10.6934 26.0293 10.668 26.0879 10.668C26.166 10.668 26.2305 10.707 26.2812 10.7852C26.3359 10.8594 26.3633 10.9434 26.3633 11.0371C26.3633 11.1465 26.3262 11.2383 26.252 11.3125C26.0957 11.457 25.9355 11.6113 25.7715 11.7754C25.6074 11.9395 25.3809 12.1406 25.0918 12.3789C24.834 12.5898 24.5684 12.7715 24.2949 12.9238C24.0215 13.0723 23.7754 13.1465 23.5566 13.1465C23.2832 13.1465 23.084 13.041 22.959 12.8301C22.834 12.6152 22.7715 12.3867 22.7715 12.1445C22.7715 11.9688 22.7969 11.8125 22.8477 11.6758C22.6875 11.8906 22.498 12.1133 22.2793 12.3438C22.0605 12.5703 21.8242 12.7617 21.5703 12.918C21.3164 13.0703 21.0566 13.1465 20.791 13.1465ZM21.2598 12.1152C21.3848 12.1152 21.541 12.0352 21.7285 11.875C21.9199 11.7148 22.1035 11.5273 22.2793 11.3125C22.4746 11.0781 22.6289 10.8652 22.7422 10.6738C22.8555 10.4824 22.9121 10.3535 22.9121 10.2871C22.9121 10.1387 22.8262 10.0215 22.6543 9.93555C22.4824 9.8457 22.3281 9.80078 22.1914 9.80078C21.9492 9.80078 21.7188 9.87891 21.5 10.0352C21.2852 10.1914 21.1094 10.3926 20.9727 10.6387C20.8359 10.8809 20.7676 11.1328 20.7676 11.3945C20.7676 11.5469 20.7949 11.7051 20.8496 11.8691C20.9082 12.0332 21.0449 12.1152 21.2598 12.1152ZM26.334 13.1465C26.0488 13.1465 25.8125 13.0664 25.625 12.9062C25.4375 12.7422 25.3438 12.4707 25.3438 12.0918C25.3438 11.6113 25.4512 11.1621 25.666 10.7441C25.8809 10.3262 26.1523 9.96875 26.4805 9.67188C26.8047 9.375 27.1465 9.14648 27.5059 8.98633C27.8691 8.82227 28.1934 8.74023 28.4785 8.74023C28.709 8.74023 28.9004 8.77734 29.0527 8.85156C29.1387 8.89844 29.2109 8.95117 29.2695 9.00977L29.3164 8.91016L29.4219 8.66406L29.4863 8.51758C29.4941 8.48633 29.5449 8.36133 29.6387 8.14258C29.7324 7.92383 29.8574 7.62891 30.0137 7.25781C30.1582 6.91406 30.2773 6.62305 30.3711 6.38477C30.4648 6.14258 30.5137 6.01367 30.5176 5.99805C30.5723 5.80273 30.6641 5.62891 30.793 5.47656C30.9219 5.32422 31.0957 5.24805 31.3145 5.24805C31.4629 5.24805 31.5859 5.28125 31.6836 5.34766C31.7812 5.41016 31.8301 5.5332 31.8301 5.7168C31.8301 5.85742 31.7988 6.00781 31.7363 6.16797C31.6738 6.32812 31.6191 6.4707 31.5723 6.5957C31.3848 6.9707 31.1816 7.38672 30.9629 7.84375C30.748 8.30078 30.5332 8.76953 30.3184 9.25C30.1035 9.73047 29.9004 10.1934 29.709 10.6387C29.5176 11.0801 29.3516 11.4707 29.2109 11.8105C29.207 11.8145 29.2051 11.8242 29.2051 11.8398C29.2051 11.8555 29.2031 11.8652 29.1992 11.8691C29.1992 11.9395 29.2168 12.0137 29.252 12.0918C29.2871 12.166 29.3438 12.2031 29.4219 12.2031C29.4453 12.2031 29.4688 12.1992 29.4922 12.1914C29.7812 12.1055 30.0781 11.9551 30.3828 11.7402C30.6875 11.5254 30.9688 11.2949 31.2266 11.0488C31.4883 10.7988 31.6973 10.5801 31.8535 10.3926C31.9082 10.3262 31.9688 10.293 32.0352 10.293C32.0938 10.293 32.1445 10.3203 32.1875 10.375C32.2344 10.4297 32.2578 10.5039 32.2578 10.5977C32.2578 10.6719 32.2363 10.7598 32.1934 10.8613C32.1543 10.9629 32.0879 11.0723 31.9941 11.1895C31.6895 11.5254 31.373 11.8438 31.0449 12.1445C30.7168 12.4414 30.3887 12.6836 30.0605 12.8711C29.7324 13.0547 29.4121 13.1465 29.0996 13.1465C28.8145 13.1465 28.5898 13.0664 28.4258 12.9062C28.2617 12.7422 28.1797 12.498 28.1797 12.1738V12.1094C28.1797 12.082 28.1816 12.0625 28.1855 12.0508C28.0059 12.375 27.7363 12.6387 27.377 12.8418C27.0215 13.0449 26.6738 13.1465 26.334 13.1465ZM26.7676 12.1094C27.0059 12.1094 27.2324 12.0371 27.4473 11.8926C27.6621 11.748 27.8594 11.5625 28.0391 11.3359C28.2188 11.1094 28.375 10.873 28.5078 10.627C28.6445 10.3809 28.7559 10.1562 28.8418 9.95312L28.9238 9.77148L29.0352 9.51953C28.8047 9.52344 28.5586 9.57422 28.2969 9.67188C27.8477 9.82422 27.4551 10.0938 27.1191 10.4805C26.7871 10.8633 26.6035 11.3281 26.5684 11.875C26.5684 12.0312 26.6348 12.1094 26.7676 12.1094ZM32.2285 13.1465C32.0957 13.1465 31.9375 13.1094 31.7539 13.0352C31.5703 12.9609 31.4082 12.8379 31.2676 12.666C31.1309 12.4941 31.0625 12.2637 31.0625 11.9746C31.0625 11.7324 31.1172 11.4297 31.2266 11.0664C31.3359 10.7031 31.5078 10.3457 31.7422 9.99414C31.9766 9.63477 32.2754 9.33594 32.6387 9.09766C33.0059 8.85938 33.4297 8.74023 33.9102 8.74023C34.082 8.74023 34.2324 8.76172 34.3613 8.80469C34.4902 8.84766 34.5996 8.89453 34.6895 8.94531C34.7402 8.97656 34.7871 9.00977 34.8301 9.04492C34.877 9.07617 34.9199 9.11133 34.959 9.15039L35.1641 9.05078C35.2227 9.02344 35.2832 9 35.3457 8.98047C35.4121 8.95703 35.4688 8.94531 35.5156 8.94531C35.6641 8.94531 35.7852 8.98633 35.8789 9.06836C35.9727 9.15039 36.0195 9.24023 36.0195 9.33789C36.0195 9.36914 36.0176 9.39062 36.0137 9.40234C35.9863 9.51172 35.9355 9.66211 35.8613 9.85352C35.791 10.0449 35.7148 10.2578 35.6328 10.4922C35.5508 10.7188 35.4805 10.9375 35.4219 11.1484C35.3672 11.3594 35.3398 11.5332 35.3398 11.6699C35.3398 11.7871 35.3594 11.8848 35.3984 11.9629C35.4375 12.0371 35.5039 12.0742 35.5977 12.0742C35.7109 12.0742 35.8633 12.0098 36.0547 11.8809C36.2461 11.748 36.4434 11.5918 36.6465 11.4121C36.7559 11.3145 36.8691 11.2109 36.9863 11.1016C37.1035 10.9883 37.2227 10.8691 37.3438 10.7441C37.4062 10.6934 37.4668 10.668 37.5254 10.668C37.6035 10.668 37.668 10.707 37.7188 10.7852C37.7734 10.8594 37.8008 10.9434 37.8008 11.0371C37.8008 11.1465 37.7637 11.2383 37.6895 11.3125C37.5332 11.457 37.373 11.6113 37.209 11.7754C37.0449 11.9395 36.8184 12.1406 36.5293 12.3789C36.2715 12.5898 36.0059 12.7715 35.7324 12.9238C35.459 13.0723 35.2129 13.1465 34.9941 13.1465C34.7207 13.1465 34.5215 13.041 34.3965 12.8301C34.2715 12.6152 34.209 12.3867 34.209 12.1445C34.209 11.9688 34.2344 11.8125 34.2852 11.6758C34.125 11.8906 33.9355 12.1133 33.7168 12.3438C33.498 12.5703 33.2617 12.7617 33.0078 12.918C32.7539 13.0703 32.4941 13.1465 32.2285 13.1465ZM32.6973 12.1152C32.8223 12.1152 32.9785 12.0352 33.166 11.875C33.3574 11.7148 33.541 11.5273 33.7168 11.3125C33.9121 11.0781 34.0664 10.8652 34.1797 10.6738C34.293 10.4824 34.3496 10.3535 34.3496 10.2871C34.3496 10.1387 34.2637 10.0215 34.0918 9.93555C33.9199 9.8457 33.7656 9.80078 33.6289 9.80078C33.3867 9.80078 33.1562 9.87891 32.9375 10.0352C32.7227 10.1914 32.5469 10.3926 32.4102 10.6387C32.2734 10.8809 32.2051 11.1328 32.2051 11.3945C32.2051 11.5469 32.2324 11.7051 32.2871 11.8691C32.3457 12.0332 32.4824 12.1152 32.6973 12.1152ZM38.0879 13.1465C37.6777 13.1465 37.3047 13.0547 36.9688 12.8711C36.6328 12.6836 36.418 12.3887 36.3242 11.9863C36.3164 11.9473 36.3125 11.9219 36.3125 11.9102C36.3125 11.8047 36.3496 11.7148 36.4238 11.6406C36.498 11.5625 36.5801 11.5234 36.6699 11.5234C36.7129 11.5234 36.7598 11.5312 36.8105 11.5469C36.8652 11.5625 36.9062 11.5977 36.9336 11.6523C37.0352 11.8359 37.209 11.9844 37.4551 12.0977C37.7051 12.207 37.9492 12.2617 38.1875 12.2617C38.4414 12.2617 38.6621 12.2129 38.8496 12.1152C39.041 12.0176 39.1367 11.8574 39.1367 11.6348C39.1367 11.3613 39.0586 11.1191 38.9023 10.9082C38.75 10.6973 38.5566 10.5078 38.3223 10.3398C38.0918 10.168 37.8594 10.0098 37.625 9.86523C37.6055 9.85352 37.5762 9.82031 37.5371 9.76562C37.498 9.70703 37.4785 9.64844 37.4785 9.58984C37.4785 9.54297 37.4902 9.50586 37.5137 9.47852C37.6387 9.31055 37.7988 9.14648 37.9941 8.98633C38.1895 8.82617 38.4043 8.74609 38.6387 8.74609C38.8105 8.74609 38.9512 8.78906 39.0605 8.875C39.1738 8.95703 39.2305 9.03906 39.2305 9.12109C39.2305 9.23047 39.1797 9.33398 39.0781 9.43164C38.9766 9.52539 38.8711 9.61523 38.7617 9.70117C39.2266 9.94336 39.5957 10.252 39.8691 10.627C40.1426 10.998 40.2793 11.3613 40.2793 11.7168C40.2793 12.0176 40.1699 12.2754 39.9512 12.4902C39.7363 12.7012 39.4609 12.8633 39.125 12.9766C38.793 13.0898 38.4473 13.1465 38.0879 13.1465Z"/>
</mask>
<path d="M14.2812 13.1465C14.1445 13.1465 14.0391 13.1055 13.9648 13.0234C13.8906 12.9453 13.8535 12.8457 13.8535 12.7246C13.8535 12.5605 13.9199 12.3438 14.0527 12.0742C14.1816 11.8047 14.3281 11.5059 14.4922 11.1777C14.6562 10.8457 14.8164 10.5254 14.9727 10.2168C15.1328 9.9082 15.2637 9.65039 15.3652 9.44336L17.2988 5.64062C17.3457 5.53906 17.4375 5.44922 17.5742 5.37109C17.7109 5.28906 17.8477 5.24805 17.9844 5.24805C18.1562 5.24805 18.2754 5.28125 18.3418 5.34766C18.4082 5.41016 18.4414 5.48828 18.4414 5.58203C18.4414 5.66797 18.4199 5.75977 18.377 5.85742C18.334 5.95117 18.2852 6.03906 18.2305 6.12109C17.9102 6.67188 17.5918 7.26172 17.2754 7.89062C16.959 8.51953 16.627 9.12305 16.2793 9.70117C16.4277 9.55664 16.5879 9.41211 16.7598 9.26758C16.9316 9.11914 17.125 8.99414 17.3398 8.89258C17.5547 8.79102 17.8008 8.74023 18.0781 8.74023C18.3359 8.74023 18.5566 8.79102 18.7402 8.89258C18.9238 8.99414 19.0156 9.17773 19.0156 9.44336C19.0156 9.69336 18.9609 9.92188 18.8516 10.1289C18.7422 10.3359 18.6133 10.5312 18.4648 10.7148C18.3203 10.8945 18.1855 11.0801 18.0605 11.2715C17.9355 11.4629 17.8613 11.6719 17.8379 11.8984V11.9219L17.832 11.9453C17.832 12.0234 17.8574 12.0723 17.9082 12.0918C17.9629 12.1113 18.0312 12.1211 18.1133 12.1211C18.2734 12.1211 18.4453 12.0781 18.6289 11.9922C18.8164 11.9023 19.0039 11.793 19.1914 11.6641C19.375 11.5352 19.5449 11.4023 19.7012 11.2656C19.8613 11.1289 19.9902 11.0137 20.0879 10.9199C20.1543 10.8574 20.2285 10.8262 20.3105 10.8262C20.3809 10.8262 20.4395 10.8535 20.4863 10.9082C20.5371 10.959 20.5625 11.0293 20.5625 11.1191C20.5625 11.2012 20.5332 11.2949 20.4746 11.4004C20.4199 11.5059 20.3242 11.6113 20.1875 11.7168C19.9062 11.959 19.6152 12.1895 19.3145 12.4082C19.0176 12.627 18.7168 12.8047 18.4121 12.9414C18.1113 13.0781 17.8145 13.1465 17.5215 13.1465C17.2441 13.1465 17.0215 13.084 16.8535 12.959C16.6855 12.8301 16.6016 12.6289 16.6016 12.3555C16.6016 12.0859 16.6621 11.8281 16.7832 11.582C16.9082 11.3359 17.0469 11.1074 17.1992 10.8965C17.3555 10.6855 17.4805 10.5 17.5742 10.3398C17.6211 10.2734 17.6562 10.2129 17.6797 10.1582C17.707 10.0996 17.7207 10.0371 17.7207 9.9707C17.7207 9.83789 17.6562 9.77148 17.5273 9.77148C17.2227 9.77148 16.9473 9.86719 16.7012 10.0586C16.459 10.2461 16.2383 10.4785 16.0391 10.7559C15.8438 11.0293 15.6641 11.2949 15.5 11.5527C15.4219 11.6738 15.3398 11.8223 15.2539 11.998C15.168 12.1738 15.0723 12.3535 14.9668 12.5371C14.8691 12.709 14.7617 12.8535 14.6445 12.9707C14.5273 13.0879 14.4062 13.1465 14.2812 13.1465ZM20.791 13.1465C20.6582 13.1465 20.5 13.1094 20.3164 13.0352C20.1328 12.9609 19.9707 12.8379 19.8301 12.666C19.6934 12.4941 19.625 12.2637 19.625 11.9746C19.625 11.7324 19.6797 11.4297 19.7891 11.0664C19.8984 10.7031 20.0703 10.3457 20.3047 9.99414C20.5391 9.63477 20.8379 9.33594 21.2012 9.09766C21.5684 8.85938 21.9922 8.74023 22.4727 8.74023C22.6445 8.74023 22.7949 8.76172 22.9238 8.80469C23.0527 8.84766 23.1621 8.89453 23.252 8.94531C23.3027 8.97656 23.3496 9.00977 23.3926 9.04492C23.4395 9.07617 23.4824 9.11133 23.5215 9.15039L23.7266 9.05078C23.7852 9.02344 23.8457 9 23.9082 8.98047C23.9746 8.95703 24.0312 8.94531 24.0781 8.94531C24.2266 8.94531 24.3477 8.98633 24.4414 9.06836C24.5352 9.15039 24.582 9.24023 24.582 9.33789C24.582 9.36914 24.5801 9.39062 24.5762 9.40234C24.5488 9.51172 24.498 9.66211 24.4238 9.85352C24.3535 10.0449 24.2773 10.2578 24.1953 10.4922C24.1133 10.7188 24.043 10.9375 23.9844 11.1484C23.9297 11.3594 23.9023 11.5332 23.9023 11.6699C23.9023 11.7871 23.9219 11.8848 23.9609 11.9629C24 12.0371 24.0664 12.0742 24.1602 12.0742C24.2734 12.0742 24.4258 12.0098 24.6172 11.8809C24.8086 11.748 25.0059 11.5918 25.209 11.4121C25.3184 11.3145 25.4316 11.2109 25.5488 11.1016C25.666 10.9883 25.7852 10.8691 25.9062 10.7441C25.9688 10.6934 26.0293 10.668 26.0879 10.668C26.166 10.668 26.2305 10.707 26.2812 10.7852C26.3359 10.8594 26.3633 10.9434 26.3633 11.0371C26.3633 11.1465 26.3262 11.2383 26.252 11.3125C26.0957 11.457 25.9355 11.6113 25.7715 11.7754C25.6074 11.9395 25.3809 12.1406 25.0918 12.3789C24.834 12.5898 24.5684 12.7715 24.2949 12.9238C24.0215 13.0723 23.7754 13.1465 23.5566 13.1465C23.2832 13.1465 23.084 13.041 22.959 12.8301C22.834 12.6152 22.7715 12.3867 22.7715 12.1445C22.7715 11.9688 22.7969 11.8125 22.8477 11.6758C22.6875 11.8906 22.498 12.1133 22.2793 12.3438C22.0605 12.5703 21.8242 12.7617 21.5703 12.918C21.3164 13.0703 21.0566 13.1465 20.791 13.1465ZM21.2598 12.1152C21.3848 12.1152 21.541 12.0352 21.7285 11.875C21.9199 11.7148 22.1035 11.5273 22.2793 11.3125C22.4746 11.0781 22.6289 10.8652 22.7422 10.6738C22.8555 10.4824 22.9121 10.3535 22.9121 10.2871C22.9121 10.1387 22.8262 10.0215 22.6543 9.93555C22.4824 9.8457 22.3281 9.80078 22.1914 9.80078C21.9492 9.80078 21.7188 9.87891 21.5 10.0352C21.2852 10.1914 21.1094 10.3926 20.9727 10.6387C20.8359 10.8809 20.7676 11.1328 20.7676 11.3945C20.7676 11.5469 20.7949 11.7051 20.8496 11.8691C20.9082 12.0332 21.0449 12.1152 21.2598 12.1152ZM26.334 13.1465C26.0488 13.1465 25.8125 13.0664 25.625 12.9062C25.4375 12.7422 25.3438 12.4707 25.3438 12.0918C25.3438 11.6113 25.4512 11.1621 25.666 10.7441C25.8809 10.3262 26.1523 9.96875 26.4805 9.67188C26.8047 9.375 27.1465 9.14648 27.5059 8.98633C27.8691 8.82227 28.1934 8.74023 28.4785 8.74023C28.709 8.74023 28.9004 8.77734 29.0527 8.85156C29.1387 8.89844 29.2109 8.95117 29.2695 9.00977L29.3164 8.91016L29.4219 8.66406L29.4863 8.51758C29.4941 8.48633 29.5449 8.36133 29.6387 8.14258C29.7324 7.92383 29.8574 7.62891 30.0137 7.25781C30.1582 6.91406 30.2773 6.62305 30.3711 6.38477C30.4648 6.14258 30.5137 6.01367 30.5176 5.99805C30.5723 5.80273 30.6641 5.62891 30.793 5.47656C30.9219 5.32422 31.0957 5.24805 31.3145 5.24805C31.4629 5.24805 31.5859 5.28125 31.6836 5.34766C31.7812 5.41016 31.8301 5.5332 31.8301 5.7168C31.8301 5.85742 31.7988 6.00781 31.7363 6.16797C31.6738 6.32812 31.6191 6.4707 31.5723 6.5957C31.3848 6.9707 31.1816 7.38672 30.9629 7.84375C30.748 8.30078 30.5332 8.76953 30.3184 9.25C30.1035 9.73047 29.9004 10.1934 29.709 10.6387C29.5176 11.0801 29.3516 11.4707 29.2109 11.8105C29.207 11.8145 29.2051 11.8242 29.2051 11.8398C29.2051 11.8555 29.2031 11.8652 29.1992 11.8691C29.1992 11.9395 29.2168 12.0137 29.252 12.0918C29.2871 12.166 29.3438 12.2031 29.4219 12.2031C29.4453 12.2031 29.4688 12.1992 29.4922 12.1914C29.7812 12.1055 30.0781 11.9551 30.3828 11.7402C30.6875 11.5254 30.9688 11.2949 31.2266 11.0488C31.4883 10.7988 31.6973 10.5801 31.8535 10.3926C31.9082 10.3262 31.9688 10.293 32.0352 10.293C32.0938 10.293 32.1445 10.3203 32.1875 10.375C32.2344 10.4297 32.2578 10.5039 32.2578 10.5977C32.2578 10.6719 32.2363 10.7598 32.1934 10.8613C32.1543 10.9629 32.0879 11.0723 31.9941 11.1895C31.6895 11.5254 31.373 11.8438 31.0449 12.1445C30.7168 12.4414 30.3887 12.6836 30.0605 12.8711C29.7324 13.0547 29.4121 13.1465 29.0996 13.1465C28.8145 13.1465 28.5898 13.0664 28.4258 12.9062C28.2617 12.7422 28.1797 12.498 28.1797 12.1738V12.1094C28.1797 12.082 28.1816 12.0625 28.1855 12.0508C28.0059 12.375 27.7363 12.6387 27.377 12.8418C27.0215 13.0449 26.6738 13.1465 26.334 13.1465ZM26.7676 12.1094C27.0059 12.1094 27.2324 12.0371 27.4473 11.8926C27.6621 11.748 27.8594 11.5625 28.0391 11.3359C28.2188 11.1094 28.375 10.873 28.5078 10.627C28.6445 10.3809 28.7559 10.1562 28.8418 9.95312L28.9238 9.77148L29.0352 9.51953C28.8047 9.52344 28.5586 9.57422 28.2969 9.67188C27.8477 9.82422 27.4551 10.0938 27.1191 10.4805C26.7871 10.8633 26.6035 11.3281 26.5684 11.875C26.5684 12.0312 26.6348 12.1094 26.7676 12.1094ZM32.2285 13.1465C32.0957 13.1465 31.9375 13.1094 31.7539 13.0352C31.5703 12.9609 31.4082 12.8379 31.2676 12.666C31.1309 12.4941 31.0625 12.2637 31.0625 11.9746C31.0625 11.7324 31.1172 11.4297 31.2266 11.0664C31.3359 10.7031 31.5078 10.3457 31.7422 9.99414C31.9766 9.63477 32.2754 9.33594 32.6387 9.09766C33.0059 8.85938 33.4297 8.74023 33.9102 8.74023C34.082 8.74023 34.2324 8.76172 34.3613 8.80469C34.4902 8.84766 34.5996 8.89453 34.6895 8.94531C34.7402 8.97656 34.7871 9.00977 34.8301 9.04492C34.877 9.07617 34.9199 9.11133 34.959 9.15039L35.1641 9.05078C35.2227 9.02344 35.2832 9 35.3457 8.98047C35.4121 8.95703 35.4688 8.94531 35.5156 8.94531C35.6641 8.94531 35.7852 8.98633 35.8789 9.06836C35.9727 9.15039 36.0195 9.24023 36.0195 9.33789C36.0195 9.36914 36.0176 9.39062 36.0137 9.40234C35.9863 9.51172 35.9355 9.66211 35.8613 9.85352C35.791 10.0449 35.7148 10.2578 35.6328 10.4922C35.5508 10.7188 35.4805 10.9375 35.4219 11.1484C35.3672 11.3594 35.3398 11.5332 35.3398 11.6699C35.3398 11.7871 35.3594 11.8848 35.3984 11.9629C35.4375 12.0371 35.5039 12.0742 35.5977 12.0742C35.7109 12.0742 35.8633 12.0098 36.0547 11.8809C36.2461 11.748 36.4434 11.5918 36.6465 11.4121C36.7559 11.3145 36.8691 11.2109 36.9863 11.1016C37.1035 10.9883 37.2227 10.8691 37.3438 10.7441C37.4062 10.6934 37.4668 10.668 37.5254 10.668C37.6035 10.668 37.668 10.707 37.7188 10.7852C37.7734 10.8594 37.8008 10.9434 37.8008 11.0371C37.8008 11.1465 37.7637 11.2383 37.6895 11.3125C37.5332 11.457 37.373 11.6113 37.209 11.7754C37.0449 11.9395 36.8184 12.1406 36.5293 12.3789C36.2715 12.5898 36.0059 12.7715 35.7324 12.9238C35.459 13.0723 35.2129 13.1465 34.9941 13.1465C34.7207 13.1465 34.5215 13.041 34.3965 12.8301C34.2715 12.6152 34.209 12.3867 34.209 12.1445C34.209 11.9688 34.2344 11.8125 34.2852 11.6758C34.125 11.8906 33.9355 12.1133 33.7168 12.3438C33.498 12.5703 33.2617 12.7617 33.0078 12.918C32.7539 13.0703 32.4941 13.1465 32.2285 13.1465ZM32.6973 12.1152C32.8223 12.1152 32.9785 12.0352 33.166 11.875C33.3574 11.7148 33.541 11.5273 33.7168 11.3125C33.9121 11.0781 34.0664 10.8652 34.1797 10.6738C34.293 10.4824 34.3496 10.3535 34.3496 10.2871C34.3496 10.1387 34.2637 10.0215 34.0918 9.93555C33.9199 9.8457 33.7656 9.80078 33.6289 9.80078C33.3867 9.80078 33.1562 9.87891 32.9375 10.0352C32.7227 10.1914 32.5469 10.3926 32.4102 10.6387C32.2734 10.8809 32.2051 11.1328 32.2051 11.3945C32.2051 11.5469 32.2324 11.7051 32.2871 11.8691C32.3457 12.0332 32.4824 12.1152 32.6973 12.1152ZM38.0879 13.1465C37.6777 13.1465 37.3047 13.0547 36.9688 12.8711C36.6328 12.6836 36.418 12.3887 36.3242 11.9863C36.3164 11.9473 36.3125 11.9219 36.3125 11.9102C36.3125 11.8047 36.3496 11.7148 36.4238 11.6406C36.498 11.5625 36.5801 11.5234 36.6699 11.5234C36.7129 11.5234 36.7598 11.5312 36.8105 11.5469C36.8652 11.5625 36.9062 11.5977 36.9336 11.6523C37.0352 11.8359 37.209 11.9844 37.4551 12.0977C37.7051 12.207 37.9492 12.2617 38.1875 12.2617C38.4414 12.2617 38.6621 12.2129 38.8496 12.1152C39.041 12.0176 39.1367 11.8574 39.1367 11.6348C39.1367 11.3613 39.0586 11.1191 38.9023 10.9082C38.75 10.6973 38.5566 10.5078 38.3223 10.3398C38.0918 10.168 37.8594 10.0098 37.625 9.86523C37.6055 9.85352 37.5762 9.82031 37.5371 9.76562C37.498 9.70703 37.4785 9.64844 37.4785 9.58984C37.4785 9.54297 37.4902 9.50586 37.5137 9.47852C37.6387 9.31055 37.7988 9.14648 37.9941 8.98633C38.1895 8.82617 38.4043 8.74609 38.6387 8.74609C38.8105 8.74609 38.9512 8.78906 39.0605 8.875C39.1738 8.95703 39.2305 9.03906 39.2305 9.12109C39.2305 9.23047 39.1797 9.33398 39.0781 9.43164C38.9766 9.52539 38.8711 9.61523 38.7617 9.70117C39.2266 9.94336 39.5957 10.252 39.8691 10.627C40.1426 10.998 40.2793 11.3613 40.2793 11.7168C40.2793 12.0176 40.1699 12.2754 39.9512 12.4902C39.7363 12.7012 39.4609 12.8633 39.125 12.9766C38.793 13.0898 38.4473 13.1465 38.0879 13.1465Z" fill="#F4C2C2"/>
<path d="M13.9648 13.0234L14.1503 12.8557L14.1461 12.8512L13.9648 13.0234ZM14.0527 12.0742L14.277 12.1847L14.2783 12.1821L14.0527 12.0742ZM14.4922 11.1777L14.7158 11.2895L14.7163 11.2885L14.4922 11.1777ZM14.9727 10.2168L14.7507 10.1016L14.7496 10.1039L14.9727 10.2168ZM15.3652 9.44336L15.1424 9.33004L15.1408 9.33325L15.3652 9.44336ZM17.2988 5.64062L17.5218 5.75402L17.5258 5.74539L17.2988 5.64062ZM17.5742 5.37109L17.6983 5.5882L17.7028 5.58547L17.5742 5.37109ZM18.3418 5.34766L18.1649 5.52451L18.1705 5.52971L18.3418 5.34766ZM18.377 5.85742L18.6042 5.9616L18.6058 5.95811L18.377 5.85742ZM18.2305 6.12109L18.0225 5.98242L18.0182 5.98879L18.0144 5.99541L18.2305 6.12109ZM16.2793 9.70117L16.0651 9.57234L16.4537 9.88029L16.2793 9.70117ZM16.7598 9.26758L16.9207 9.45893L16.9232 9.45678L16.7598 9.26758ZM18.4648 10.7148L18.2704 10.5577L18.27 10.5582L18.4648 10.7148ZM17.8379 11.8984L17.5892 11.8727L17.5879 11.8855V11.8984H17.8379ZM17.8379 11.9219L18.0804 11.9825L18.0879 11.9527V11.9219H17.8379ZM17.832 11.9453L17.5895 11.8847L17.582 11.9145V11.9453H17.832ZM17.9082 12.0918L17.8184 12.3252L17.8241 12.3272L17.9082 12.0918ZM18.6289 11.9922L18.7349 12.2186L18.7369 12.2176L18.6289 11.9922ZM19.1914 11.6641L19.333 11.8701L19.3351 11.8687L19.1914 11.6641ZM19.7012 11.2656L19.5388 11.0755L19.5365 11.0775L19.7012 11.2656ZM20.0879 10.9199L19.9165 10.7379L19.9148 10.7396L20.0879 10.9199ZM20.4863 10.9082L20.2965 11.0709L20.3028 11.0782L20.3096 11.085L20.4863 10.9082ZM20.4746 11.4004L20.256 11.2789L20.2527 11.2853L20.4746 11.4004ZM20.1875 11.7168L20.0346 11.5186L20.0244 11.5274L20.1875 11.7168ZM19.3145 12.4082L19.1674 12.206L19.1662 12.2069L19.3145 12.4082ZM18.4121 12.9414L18.3098 12.7133L18.3087 12.7138L18.4121 12.9414ZM16.8535 12.959L16.7013 13.1573L16.7043 13.1595L16.8535 12.959ZM16.7832 11.582L16.5603 11.4688L16.5589 11.4717L16.7832 11.582ZM17.1992 10.8965L16.9983 10.7477L16.9965 10.7501L17.1992 10.8965ZM17.5742 10.3398L17.37 10.1957L17.3638 10.2044L17.3585 10.2135L17.5742 10.3398ZM17.6797 10.1582L17.453 10.0524L17.4499 10.0597L17.6797 10.1582ZM16.7012 10.0586L16.8542 10.2563L16.8547 10.2559L16.7012 10.0586ZM16.0391 10.7559L15.836 10.61L15.8356 10.6105L16.0391 10.7559ZM15.5 11.5527L15.7101 11.6883L15.7109 11.687L15.5 11.5527ZM14.9668 12.5371L14.75 12.4126L14.7494 12.4136L14.9668 12.5371ZM14.2812 13.1465V12.8965C14.1972 12.8965 14.1662 12.8734 14.1502 12.8557L13.9648 13.0234L13.7795 13.1912C13.9119 13.3376 14.0918 13.3965 14.2812 13.3965V13.1465ZM13.9648 13.0234L14.1461 12.8512C14.1216 12.8255 14.1035 12.7902 14.1035 12.7246H13.8535H13.6035C13.6035 12.9012 13.6597 13.0652 13.7836 13.1956L13.9648 13.0234ZM13.8535 12.7246H14.1035C14.1035 12.6188 14.1493 12.4439 14.277 12.1847L14.0527 12.0742L13.8285 11.9637C13.6906 12.2436 13.6035 12.5023 13.6035 12.7246H13.8535ZM14.0527 12.0742L14.2783 12.1821C14.4064 11.9141 14.5522 11.6166 14.7158 11.2895L14.4922 11.1777L14.2686 11.0659C14.104 11.3951 13.9569 11.6952 13.8272 11.9664L14.0527 12.0742ZM14.4922 11.1777L14.7163 11.2885C14.88 10.9571 15.0398 10.6375 15.1957 10.3297L14.9727 10.2168L14.7496 10.1039C14.593 10.4132 14.4325 10.7343 14.2681 11.067L14.4922 11.1777ZM14.9727 10.2168L15.1946 10.332C15.3552 10.0224 15.487 9.76281 15.5897 9.55347L15.3652 9.44336L15.1408 9.33325C15.0404 9.53797 14.9104 9.79397 14.7508 10.1016L14.9727 10.2168ZM15.3652 9.44336L15.5881 9.55667L17.5217 5.75394L17.2988 5.64062L17.076 5.52731L15.1424 9.33005L15.3652 9.44336ZM17.2988 5.64062L17.5258 5.74539C17.5436 5.70679 17.5889 5.65066 17.6983 5.58815L17.5742 5.37109L17.4502 5.15403C17.2861 5.24778 17.1478 5.37133 17.0718 5.53586L17.2988 5.64062ZM17.5742 5.37109L17.7028 5.58547C17.8073 5.52282 17.9 5.49805 17.9844 5.49805V5.24805V4.99805C17.7953 4.99805 17.6146 5.0553 17.4456 5.15672L17.5742 5.37109ZM17.9844 5.24805V5.49805C18.0557 5.49805 18.1044 5.50511 18.1355 5.51377C18.1664 5.52237 18.1704 5.52981 18.165 5.52443L18.3418 5.34766L18.5186 5.17088C18.379 5.03131 18.1727 4.99805 17.9844 4.99805V5.24805ZM18.3418 5.34766L18.1705 5.52971C18.1851 5.54349 18.1914 5.55503 18.1914 5.58203H18.4414H18.6914C18.6914 5.42153 18.6313 5.27683 18.5131 5.16561L18.3418 5.34766ZM18.4414 5.58203H18.1914C18.1914 5.626 18.1804 5.68337 18.1481 5.75674L18.377 5.85742L18.6058 5.95811C18.6594 5.83616 18.6914 5.70993 18.6914 5.58203H18.4414ZM18.377 5.85742L18.1497 5.75326C18.112 5.83556 18.0695 5.91186 18.0225 5.98242L18.2305 6.12109L18.4385 6.25977C18.5008 6.16627 18.556 6.06678 18.6042 5.96159L18.377 5.85742ZM18.2305 6.12109L18.0144 5.99541C17.6913 6.55099 17.3705 7.14531 17.0521 7.77827L17.2754 7.89062L17.4987 8.00298C17.8131 7.37813 18.1291 6.79276 18.4466 6.24678L18.2305 6.12109ZM17.2754 7.89062L17.0521 7.77827C16.7384 8.40181 16.4093 8.99981 16.0651 9.57234L16.2793 9.70117L16.4935 9.83001C16.8446 9.24628 17.1796 8.63725 17.4987 8.00298L17.2754 7.89062ZM16.2793 9.70117L16.4537 9.88029C16.5974 9.74033 16.7531 9.59986 16.9207 9.45892L16.7598 9.26758L16.5989 9.07624C16.4227 9.22436 16.258 9.37295 16.1049 9.52205L16.2793 9.70117ZM16.7598 9.26758L16.9232 9.45678C17.0772 9.32379 17.2513 9.21095 17.4467 9.1186L17.3398 8.89258L17.233 8.66656C16.9987 8.77733 16.7861 8.91449 16.5964 9.07837L16.7598 9.26758ZM17.3398 8.89258L17.4467 9.1186C17.623 9.03525 17.8316 8.99023 18.0781 8.99023V8.74023V8.49023C17.77 8.49023 17.4864 8.54678 17.233 8.66656L17.3398 8.89258ZM18.0781 8.74023V8.99023C18.3032 8.99023 18.4802 9.03445 18.6192 9.11134L18.7402 8.89258L18.8612 8.67382C18.633 8.54758 18.3687 8.49023 18.0781 8.49023V8.74023ZM18.7402 8.89258L18.6192 9.11134C18.7012 9.1567 18.7656 9.2404 18.7656 9.44336H19.0156H19.2656C19.2656 9.11507 19.1464 8.83158 18.8612 8.67382L18.7402 8.89258ZM19.0156 9.44336H18.7656C18.7656 9.65549 18.7196 9.84351 18.6305 10.0121L18.8516 10.1289L19.0726 10.2457C19.2023 10.0002 19.2656 9.73123 19.2656 9.44336H19.0156ZM18.8516 10.1289L18.6305 10.0121C18.5288 10.2047 18.4088 10.3865 18.2704 10.5577L18.4648 10.7148L18.6593 10.872C18.8178 10.676 18.9556 10.4671 19.0726 10.2457L18.8516 10.1289ZM18.4648 10.7148L18.27 10.5582C18.1204 10.7442 17.9808 10.9364 17.8512 11.1348L18.0605 11.2715L18.2699 11.4082C18.3903 11.2237 18.5202 11.0449 18.6596 10.8715L18.4648 10.7148ZM18.0605 11.2715L17.8512 11.1348C17.7045 11.3594 17.6168 11.6064 17.5892 11.8727L17.8379 11.8984L18.0866 11.9242C18.1059 11.7373 18.1665 11.5664 18.2699 11.4082L18.0605 11.2715ZM17.8379 11.8984H17.5879V11.9219H17.8379H18.0879V11.8984H17.8379ZM17.8379 11.9219L17.5954 11.8612L17.5895 11.8847L17.832 11.9453L18.0746 12.0059L18.0804 11.9825L17.8379 11.9219ZM17.832 11.9453H17.582C17.582 12.0087 17.5919 12.0841 17.6293 12.1559C17.6698 12.2337 17.7354 12.2932 17.8185 12.3251L17.9082 12.0918L17.9979 11.8585C18.0118 11.8638 18.0273 11.8726 18.0419 11.8856C18.0564 11.8986 18.0664 11.9127 18.0729 11.9252C18.0848 11.9482 18.082 11.96 18.082 11.9453H17.832ZM17.9082 12.0918L17.8241 12.3272C17.9144 12.3595 18.0135 12.3711 18.1133 12.3711V12.1211V11.8711C18.049 11.8711 18.0114 11.8632 17.9923 11.8564L17.9082 12.0918ZM18.1133 12.1211V12.3711C18.3185 12.3711 18.5267 12.3161 18.7349 12.2186L18.6289 11.9922L18.5229 11.7658C18.364 11.8402 18.2284 11.8711 18.1133 11.8711V12.1211ZM18.6289 11.9922L18.7369 12.2176C18.9372 12.1217 19.1358 12.0056 19.333 11.8701L19.1914 11.6641L19.0498 11.4581C18.872 11.5803 18.6957 11.683 18.5209 11.7667L18.6289 11.9922ZM19.1914 11.6641L19.3351 11.8687C19.5254 11.7351 19.7023 11.5968 19.8658 11.4538L19.7012 11.2656L19.5365 11.0775C19.3875 11.2079 19.2246 11.3353 19.0477 11.4595L19.1914 11.6641ZM19.7012 11.2656L19.8635 11.4558C20.0256 11.3174 20.1585 11.1987 20.261 11.1003L20.0879 10.9199L19.9148 10.7396C19.822 10.8286 19.6971 10.9404 19.5389 11.0755L19.7012 11.2656ZM20.0879 10.9199L20.2592 11.102C20.2849 11.0778 20.2995 11.0762 20.3105 11.0762V10.8262V10.5762C20.1575 10.5762 20.0237 10.637 19.9165 10.7379L20.0879 10.9199ZM20.3105 10.8262V11.0762C20.3119 11.0762 20.3112 11.0763 20.3092 11.0759C20.3071 11.0754 20.3044 11.0746 20.3015 11.0732C20.2986 11.0719 20.2966 11.0705 20.2955 11.0697C20.2944 11.0688 20.2949 11.069 20.2965 11.0709L20.4863 10.9082L20.6761 10.7455C20.5831 10.637 20.4559 10.5762 20.3105 10.5762V10.8262ZM20.4863 10.9082L20.3096 11.085C20.3079 11.0833 20.3076 11.0819 20.3083 11.0839C20.3094 11.087 20.3125 11.0975 20.3125 11.1191H20.5625H20.8125C20.8125 10.9806 20.7719 10.8402 20.6631 10.7314L20.4863 10.9082ZM20.5625 11.1191H20.3125C20.3125 11.1433 20.3031 11.1944 20.2561 11.279L20.4746 11.4004L20.6931 11.5218C20.7633 11.3955 20.8125 11.259 20.8125 11.1191H20.5625ZM20.4746 11.4004L20.2527 11.2853C20.2206 11.3472 20.1547 11.4263 20.0348 11.5189L20.1875 11.7168L20.3402 11.9147C20.4937 11.7963 20.6193 11.6645 20.6965 11.5155L20.4746 11.4004ZM20.1875 11.7168L20.0244 11.5274C19.7483 11.7651 19.4627 11.9913 19.1674 12.206L19.3145 12.4082L19.4615 12.6104C19.7678 12.3876 20.0642 12.1529 20.3506 11.9062L20.1875 11.7168ZM19.3145 12.4082L19.1662 12.2069C18.8821 12.4162 18.5966 12.5846 18.3098 12.7133L18.4121 12.9414L18.5145 13.1695C18.837 13.0248 19.153 12.8377 19.4628 12.6095L19.3145 12.4082ZM18.4121 12.9414L18.3087 12.7138C18.0362 12.8377 17.7745 12.8965 17.5215 12.8965V13.1465V13.3965C17.8544 13.3965 18.1864 13.3186 18.5156 13.169L18.4121 12.9414ZM17.5215 13.1465V12.8965C17.2806 12.8965 17.1155 12.8423 17.0028 12.7584L16.8535 12.959L16.7043 13.1595C16.9275 13.3257 17.2077 13.3965 17.5215 13.3965V13.1465ZM16.8535 12.959L17.0057 12.7607C16.9167 12.6923 16.8516 12.5759 16.8516 12.3555H16.6016H16.3516C16.3516 12.6819 16.4544 12.9678 16.7013 13.1573L16.8535 12.959ZM16.6016 12.3555H16.8516C16.8516 12.1249 16.903 11.9048 17.0075 11.6924L16.7832 11.582L16.5589 11.4717C16.4212 11.7515 16.3516 12.047 16.3516 12.3555H16.6016ZM16.7832 11.582L17.0061 11.6952C17.1256 11.46 17.2576 11.2427 17.4019 11.0429L17.1992 10.8965L16.9965 10.7501C16.8362 10.9722 16.6908 11.2119 16.5603 11.4688L16.7832 11.582ZM17.1992 10.8965L17.4001 11.0453C17.5597 10.8298 17.6902 10.6365 17.79 10.4661L17.5742 10.3398L17.3585 10.2135C17.2707 10.3635 17.1512 10.5413 16.9983 10.7477L17.1992 10.8965ZM17.5742 10.3398L17.7785 10.484C17.832 10.4081 17.8772 10.3321 17.9095 10.2567L17.6797 10.1582L17.4499 10.0597C17.4353 10.0937 17.4102 10.1388 17.37 10.1957L17.5742 10.3398ZM17.6797 10.1582L17.9062 10.2639C17.9494 10.1713 17.9707 10.0726 17.9707 9.9707H17.7207H17.4707C17.4707 10.0016 17.4646 10.0279 17.4531 10.0525L17.6797 10.1582ZM17.7207 9.9707H17.9707C17.9707 9.8676 17.9458 9.74401 17.8518 9.64717C17.7564 9.54894 17.6323 9.52148 17.5273 9.52148V9.77148V10.0215C17.5388 10.0215 17.5385 10.023 17.5307 10.0204C17.5217 10.0173 17.507 10.0099 17.493 9.99541C17.4634 9.96497 17.4707 9.94099 17.4707 9.9707H17.7207ZM17.5273 9.77148V9.52148C17.1657 9.52148 16.8366 9.63658 16.5477 9.86126L16.7012 10.0586L16.8547 10.2559C17.058 10.0978 17.2796 10.0215 17.5273 10.0215V9.77148ZM16.7012 10.0586L16.5481 9.86091C16.2848 10.0648 16.0477 10.3153 15.836 10.61L16.0391 10.7559L16.2421 10.9017C16.4288 10.6417 16.6332 10.4274 16.8542 10.2563L16.7012 10.0586ZM16.0391 10.7559L15.8356 10.6105C15.638 10.8873 15.4558 11.1566 15.2891 11.4185L15.5 11.5527L15.7109 11.687C15.8724 11.4333 16.0495 11.1713 16.2425 10.9012L16.0391 10.7559ZM15.5 11.5527L15.2899 11.4172C15.205 11.5489 15.1182 11.7065 15.0293 11.8882L15.2539 11.998L15.4785 12.1078C15.5615 11.938 15.6388 11.7987 15.7101 11.6883L15.5 11.5527ZM15.2539 11.998L15.0293 11.8882C14.946 12.0586 14.8529 12.2334 14.75 12.4126L14.9668 12.5371L15.1836 12.6616C15.2916 12.4736 15.3899 12.289 15.4785 12.1078L15.2539 11.998ZM14.9668 12.5371L14.7494 12.4136C14.6608 12.5696 14.5664 12.6953 14.4678 12.7939L14.6445 12.9707L14.8213 13.1475C14.9571 13.0117 15.0775 12.8484 15.1842 12.6606L14.9668 12.5371ZM14.6445 12.9707L14.4678 12.7939C14.3816 12.88 14.3205 12.8965 14.2812 12.8965V13.1465V13.3965C14.492 13.3965 14.673 13.2957 14.8213 13.1475L14.6445 12.9707ZM19.8301 12.666L19.6344 12.8217L19.6366 12.8243L19.8301 12.666ZM20.3047 9.99414L20.5127 10.1328L20.5141 10.1307L20.3047 9.99414ZM21.2012 9.09766L21.0651 8.88794L21.0641 8.88861L21.2012 9.09766ZM23.252 8.94531L23.3831 8.73225L23.375 8.72767L23.252 8.94531ZM23.3926 9.04492L23.2343 9.23841L23.2437 9.24615L23.2539 9.25293L23.3926 9.04492ZM23.5215 9.15039L23.3447 9.32717L23.4706 9.45304L23.6307 9.37527L23.5215 9.15039ZM23.7266 9.05078L23.6208 8.82421L23.6173 8.8259L23.7266 9.05078ZM23.9082 8.98047L23.9828 9.21925L23.9914 9.21622L23.9082 8.98047ZM24.5762 9.40234L24.339 9.32329L24.336 9.3324L24.3336 9.34171L24.5762 9.40234ZM24.4238 9.85352L24.1907 9.76312L24.1892 9.76731L24.4238 9.85352ZM24.1953 10.4922L24.4304 10.5773L24.4313 10.5748L24.1953 10.4922ZM23.9844 11.1484L23.7435 11.0815L23.7424 11.0857L23.9844 11.1484ZM23.9609 11.9629L23.7373 12.0747L23.7397 12.0793L23.9609 11.9629ZM24.6172 11.8809L24.7569 12.0882L24.7597 12.0863L24.6172 11.8809ZM25.209 11.4121L25.3746 11.5994L25.3755 11.5986L25.209 11.4121ZM25.5488 11.1016L25.7194 11.2844L25.7226 11.2813L25.5488 11.1016ZM25.9062 10.7441L25.7486 10.5501L25.737 10.5595L25.7267 10.5702L25.9062 10.7441ZM26.2812 10.7852L26.0716 10.9214L26.0756 10.9276L26.08 10.9335L26.2812 10.7852ZM26.252 11.3125L26.4218 11.4962L26.4287 11.4893L26.252 11.3125ZM25.0918 12.3789L25.2501 12.5724L25.2508 12.5718L25.0918 12.3789ZM24.2949 12.9238L24.4142 13.1436L24.4166 13.1422L24.2949 12.9238ZM22.959 12.8301L22.7429 12.9558L22.7439 12.9575L22.959 12.8301ZM22.8477 11.6758L23.082 11.7628L22.6472 11.5264L22.8477 11.6758ZM22.2793 12.3438L22.4592 12.5174L22.4606 12.5159L22.2793 12.3438ZM21.5703 12.918L21.6989 13.1324L21.7013 13.1309L21.5703 12.918ZM21.7285 11.875L21.5681 11.6833L21.5661 11.6849L21.7285 11.875ZM22.2793 11.3125L22.0872 11.1524L22.0858 11.1542L22.2793 11.3125ZM22.6543 9.93555L22.5385 10.1571L22.5425 10.1592L22.6543 9.93555ZM21.5 10.0352L21.3547 9.83172L21.353 9.83297L21.5 10.0352ZM20.9727 10.6387L21.1904 10.7616L21.1912 10.7601L20.9727 10.6387ZM20.8496 11.8691L20.6124 11.9482L20.6142 11.9532L20.8496 11.8691ZM20.791 13.1465V12.8965C20.702 12.8965 20.5772 12.8709 20.4101 12.8034L20.3164 13.0352L20.2227 13.2669C20.4228 13.3478 20.6144 13.3965 20.791 13.3965V13.1465ZM20.3164 13.0352L20.4101 12.8034C20.2699 12.7467 20.1409 12.6511 20.0236 12.5077L19.8301 12.666L19.6366 12.8243C19.8005 13.0247 19.9957 13.1752 20.2227 13.2669L20.3164 13.0352ZM19.8301 12.666L20.0257 12.5104C19.934 12.395 19.875 12.2251 19.875 11.9746H19.625H19.375C19.375 12.3022 19.4528 12.5933 19.6344 12.8216L19.8301 12.666ZM19.625 11.9746H19.875C19.875 11.7666 19.9226 11.49 20.0284 11.1385L19.7891 11.0664L19.5497 10.9943C19.4368 11.3694 19.375 11.6983 19.375 11.9746H19.625ZM19.7891 11.0664L20.0284 11.1385C20.13 10.8013 20.2905 10.4662 20.5127 10.1328L20.3047 9.99414L20.0967 9.85547C19.8502 10.2253 19.6669 10.6049 19.5497 10.9943L19.7891 11.0664ZM20.3047 9.99414L20.5141 10.1307C20.7294 9.80059 21.0035 9.52631 21.3383 9.3067L21.2012 9.09766L21.0641 8.88861C20.6723 9.14556 20.3487 9.46894 20.0953 9.85757L20.3047 9.99414ZM21.2012 9.09766L21.3373 9.30737C21.66 9.09793 22.0356 8.99023 22.4727 8.99023V8.74023V8.49023C21.9488 8.49023 21.4767 8.62082 21.0651 8.88794L21.2012 9.09766ZM22.4727 8.74023V8.99023C22.6244 8.99023 22.7471 9.00929 22.8448 9.04186L22.9238 8.80469L23.0029 8.56752C22.8428 8.51414 22.6646 8.49023 22.4727 8.49023V8.74023ZM22.9238 8.80469L22.8448 9.04186C22.9629 9.08124 23.0567 9.12211 23.1289 9.16295L23.252 8.94531L23.375 8.72767C23.2675 8.66695 23.1426 8.61407 23.0029 8.56752L22.9238 8.80469ZM23.252 8.94531L23.1209 9.15823C23.1629 9.18405 23.2006 9.21083 23.2343 9.23841L23.3926 9.04492L23.5509 8.85143C23.4987 8.8087 23.4426 8.76908 23.383 8.7324L23.252 8.94531ZM23.3926 9.04492L23.2539 9.25293C23.2874 9.27523 23.3175 9.29997 23.3447 9.32717L23.5215 9.15039L23.6983 8.97361C23.6473 8.92268 23.5916 8.87711 23.5313 8.83691L23.3926 9.04492ZM23.5215 9.15039L23.6307 9.37527L23.8358 9.27566L23.7266 9.05078L23.6173 8.8259L23.4123 8.92551L23.5215 9.15039ZM23.7266 9.05078L23.8323 9.27733C23.8806 9.25476 23.9308 9.23534 23.9828 9.21909L23.9082 8.98047L23.8336 8.74185C23.7606 8.76466 23.6897 8.79212 23.6208 8.82424L23.7266 9.05078ZM23.9082 8.98047L23.9914 9.21622C24.0431 9.19796 24.07 9.19531 24.0781 9.19531V8.94531V8.69531C23.9925 8.69531 23.9061 8.71611 23.825 8.74472L23.9082 8.98047ZM24.0781 8.94531V9.19531C24.1782 9.19531 24.237 9.22171 24.2768 9.2565L24.4414 9.06836L24.606 8.88022C24.4583 8.75095 24.2749 8.69531 24.0781 8.69531V8.94531ZM24.4414 9.06836L24.2768 9.2565C24.3323 9.30509 24.332 9.3312 24.332 9.33789H24.582H24.832C24.832 9.14927 24.738 8.99569 24.606 8.88022L24.4414 9.06836ZM24.582 9.33789H24.332C24.332 9.34316 24.3319 9.34723 24.3318 9.35024C24.3318 9.35173 24.3317 9.35285 24.3317 9.35365C24.3316 9.35445 24.3316 9.35482 24.3316 9.35481C24.3316 9.3548 24.3316 9.35426 24.3318 9.35325C24.3319 9.35225 24.3321 9.35056 24.3325 9.34828C24.3329 9.34602 24.3336 9.34281 24.3345 9.33883C24.3355 9.3349 24.3369 9.3296 24.339 9.32329L24.5762 9.40234L24.8133 9.4814C24.8316 9.42658 24.832 9.36719 24.832 9.33789H24.582ZM24.5762 9.40234L24.3336 9.34171C24.3101 9.43594 24.2637 9.57495 24.1907 9.76313L24.4238 9.85352L24.6569 9.9439C24.7324 9.74927 24.7876 9.58749 24.8187 9.46298L24.5762 9.40234ZM24.4238 9.85352L24.1892 9.76731C24.1183 9.96014 24.0417 10.1743 23.9593 10.4096L24.1953 10.4922L24.4313 10.5748C24.513 10.3414 24.5887 10.1297 24.6585 9.93972L24.4238 9.85352ZM24.1953 10.4922L23.9602 10.4071C23.8763 10.639 23.804 10.8639 23.7435 11.0815L23.9844 11.1484L24.2253 11.2153C24.282 11.0111 24.3503 10.7985 24.4304 10.5773L24.1953 10.4922ZM23.9844 11.1484L23.7424 11.0857C23.6851 11.3065 23.6523 11.5034 23.6523 11.6699H23.9023H24.1523C24.1523 11.5631 24.1743 11.4122 24.2264 11.2112L23.9844 11.1484ZM23.9023 11.6699H23.6523C23.6523 11.8133 23.676 11.9521 23.7373 12.0747L23.9609 11.9629L24.1845 11.8511C24.1677 11.8175 24.1523 11.7609 24.1523 11.6699H23.9023ZM23.9609 11.9629L23.7397 12.0793C23.7794 12.1547 23.8384 12.2201 23.9181 12.2646C23.9963 12.3083 24.0804 12.3242 24.1602 12.3242V12.0742V11.8242C24.1462 11.8242 24.1502 11.8216 24.162 11.8282C24.1676 11.8313 24.1728 11.8354 24.1768 11.8397C24.1808 11.8438 24.1823 11.8467 24.1822 11.8465L23.9609 11.9629ZM24.1602 12.0742V12.3242C24.3532 12.3242 24.5592 12.2213 24.7568 12.0882L24.6172 11.8809L24.4775 11.6735C24.2923 11.7982 24.1937 11.8242 24.1602 11.8242V12.0742ZM24.6172 11.8809L24.7597 12.0863C24.9603 11.947 25.1653 11.7845 25.3746 11.5994L25.209 11.4121L25.0433 11.2249C24.8464 11.3991 24.6568 11.5491 24.4747 11.6755L24.6172 11.8809ZM25.209 11.4121L25.3755 11.5986C25.4864 11.4996 25.601 11.3948 25.7194 11.2843L25.5488 11.1016L25.3782 10.9188C25.2623 11.027 25.1504 11.1293 25.0425 11.2256L25.209 11.4121ZM25.5488 11.1016L25.7226 11.2813C25.8419 11.166 25.9629 11.0449 26.0858 10.9181L25.9062 10.7441L25.7267 10.5702C25.6074 10.6934 25.4902 10.8106 25.3751 10.9218L25.5488 11.1016ZM25.9062 10.7441L26.0639 10.9382C26.0807 10.9245 26.0912 10.9192 26.0952 10.9176C26.0986 10.9162 26.0956 10.918 26.0879 10.918V10.668V10.418C25.9537 10.418 25.8391 10.4766 25.7486 10.5501L25.9062 10.7441ZM26.0879 10.668V10.918C26.0864 10.918 26.0828 10.9177 26.0779 10.9164C26.0729 10.9151 26.0685 10.9131 26.0652 10.9111C26.0586 10.907 26.062 10.9066 26.0716 10.9214L26.2812 10.7852L26.4909 10.6489C26.4042 10.5156 26.2679 10.418 26.0879 10.418V10.668ZM26.2812 10.7852L26.08 10.9335C26.1024 10.9639 26.1133 10.9958 26.1133 11.0371H26.3633H26.6133C26.6133 10.891 26.5694 10.7548 26.4825 10.6369L26.2812 10.7852ZM26.3633 11.0371H26.1133C26.1133 11.0833 26.1004 11.1105 26.0752 11.1357L26.252 11.3125L26.4287 11.4893C26.552 11.366 26.6133 11.2097 26.6133 11.0371H26.3633ZM26.252 11.3125L26.0822 11.129C25.9234 11.2759 25.7609 11.4325 25.5947 11.5986L25.7715 11.7754L25.9483 11.9522C26.1102 11.7902 26.268 11.6382 26.4217 11.496L26.252 11.3125ZM25.7715 11.7754L25.5947 11.5986C25.4387 11.7547 25.2189 11.9501 24.9328 12.186L25.0918 12.3789L25.2508 12.5718C25.5428 12.3311 25.7762 12.1242 25.9483 11.9522L25.7715 11.7754ZM25.0918 12.3789L24.9335 12.1854C24.6864 12.3876 24.433 12.5607 24.1732 12.7054L24.2949 12.9238L24.4166 13.1422C24.7038 12.9822 24.9816 12.7921 25.2501 12.5724L25.0918 12.3789ZM24.2949 12.9238L24.1756 12.7041C23.9243 12.8406 23.7198 12.8965 23.5566 12.8965V13.1465V13.3965C23.8309 13.3965 24.1187 13.304 24.4142 13.1435L24.2949 12.9238ZM23.5566 13.1465V12.8965C23.3593 12.8965 23.2481 12.8276 23.1741 12.7026L22.959 12.8301L22.7439 12.9575C22.9198 13.2544 23.2071 13.3965 23.5566 13.3965V13.1465ZM22.959 12.8301L23.1751 12.7044C23.0717 12.5266 23.0215 12.3413 23.0215 12.1445H22.7715H22.5215C22.5215 12.4321 22.5963 12.7038 22.7429 12.9558L22.959 12.8301ZM22.7715 12.1445H23.0215C23.0215 11.9925 23.0435 11.8666 23.082 11.7628L22.8477 11.6758L22.6133 11.5887C22.5503 11.7584 22.5215 11.945 22.5215 12.1445H22.7715ZM22.8477 11.6758L22.6472 11.5264C22.4939 11.732 22.3111 11.9471 22.098 12.1716L22.2793 12.3438L22.4606 12.5159C22.685 12.2795 22.8811 12.0493 23.0481 11.8252L22.8477 11.6758ZM22.2793 12.3438L22.0994 12.1701C21.8944 12.3824 21.6744 12.5604 21.4393 12.7051L21.5703 12.918L21.7013 13.1309C21.9741 12.963 22.2267 12.7582 22.4591 12.5174L22.2793 12.3438ZM21.5703 12.918L21.4417 12.7036C21.2221 12.8354 21.0063 12.8965 20.791 12.8965V13.1465V13.3965C21.107 13.3965 21.4108 13.3053 21.6989 13.1323L21.5703 12.918ZM21.2598 12.1152V12.3652C21.4799 12.3652 21.6958 12.2317 21.8909 12.0651L21.7285 11.875L21.5661 11.6849C21.3863 11.8386 21.2896 11.8652 21.2598 11.8652V12.1152ZM21.7285 11.875L21.8889 12.0667C22.0937 11.8954 22.2882 11.6965 22.4728 11.4708L22.2793 11.3125L22.0858 11.1542C21.9189 11.3582 21.7462 11.5342 21.5681 11.6833L21.7285 11.875ZM22.2793 11.3125L22.4714 11.4725C22.6723 11.2314 22.8353 11.0074 22.9573 10.8012L22.7422 10.6738L22.527 10.5465C22.4225 10.7231 22.2769 10.9249 22.0872 11.1525L22.2793 11.3125ZM22.7422 10.6738L22.9573 10.8012C23.0165 10.7011 23.0645 10.6115 23.0985 10.5342C23.1286 10.4657 23.1621 10.376 23.1621 10.2871H22.9121H22.6621C22.6621 10.2712 22.665 10.2666 22.6614 10.279C22.6583 10.2897 22.652 10.3073 22.6407 10.333C22.6181 10.3846 22.5811 10.4551 22.527 10.5465L22.7422 10.6738ZM22.9121 10.2871H23.1621C23.1621 10.015 22.9932 9.82548 22.7661 9.71194L22.6543 9.93555L22.5425 10.1592C22.6592 10.2175 22.6621 10.2624 22.6621 10.2871H22.9121ZM22.6543 9.93555L22.7701 9.71399C22.5765 9.6128 22.3818 9.55078 22.1914 9.55078V9.80078V10.0508C22.2745 10.0508 22.3883 10.0786 22.5385 10.1571L22.6543 9.93555ZM22.1914 9.80078V9.55078C21.8914 9.55078 21.611 9.64867 21.3547 9.83172L21.5 10.0352L21.6453 10.2386C21.8265 10.1091 22.007 10.0508 22.1914 10.0508V9.80078ZM21.5 10.0352L21.353 9.83297C21.1069 10.0119 20.9074 10.2413 20.7541 10.5173L20.9727 10.6387L21.1912 10.7601C21.3113 10.5439 21.4634 10.3709 21.647 10.2373L21.5 10.0352ZM20.9727 10.6387L20.755 10.5158C20.5984 10.793 20.5176 11.087 20.5176 11.3945H20.7676H21.0176C21.0176 11.1786 21.0734 10.9687 21.1904 10.7616L20.9727 10.6387ZM20.7676 11.3945H20.5176C20.5176 11.5771 20.5504 11.762 20.6124 11.9482L20.8496 11.8691L21.0868 11.7901C21.0395 11.6481 21.0176 11.5166 21.0176 11.3945H20.7676ZM20.8496 11.8691L20.6142 11.9532C20.661 12.0843 20.7448 12.1945 20.8675 12.2681C20.9859 12.3392 21.1223 12.3652 21.2598 12.3652V12.1152V11.8652C21.1824 11.8652 21.143 11.8503 21.1247 11.8393C21.1107 11.8309 21.0968 11.818 21.085 11.7851L20.8496 11.8691ZM25.625 12.9062L25.4604 13.0944L25.4626 13.0963L25.625 12.9062ZM26.4805 9.67188L26.6482 9.85726L26.6493 9.85626L26.4805 9.67188ZM27.5059 8.98633L27.6076 9.21468L27.6088 9.21417L27.5059 8.98633ZM29.0527 8.85156L29.1726 8.63186L29.1622 8.62681L29.0527 8.85156ZM29.2695 9.00977L29.0928 9.18654L29.3443 9.43806L29.4957 9.11621L29.2695 9.00977ZM29.3164 8.91016L29.5427 9.01667L29.5462 9.00864L29.3164 8.91016ZM29.4219 8.66406L29.193 8.56337L29.1921 8.56558L29.4219 8.66406ZM29.4863 8.51758L29.7152 8.61826L29.7237 8.59882L29.7289 8.57821L29.4863 8.51758ZM30.0137 7.25781L30.2441 7.35483L30.2441 7.35471L30.0137 7.25781ZM30.3711 6.38477L30.6037 6.4763L30.6042 6.47501L30.3711 6.38477ZM30.5176 5.99805L30.2767 5.93061L30.275 5.93741L30.5176 5.99805ZM31.6836 5.34766L31.543 5.55447L31.5488 5.55822L31.6836 5.34766ZM31.5723 6.5957L31.7959 6.70751L31.8017 6.69577L31.8063 6.68348L31.5723 6.5957ZM30.9629 7.84375L30.7374 7.73582L30.7366 7.73739L30.9629 7.84375ZM29.709 10.6387L29.9383 10.7381L29.9387 10.7374L29.709 10.6387ZM29.2109 11.8105L29.3877 11.9873L29.4229 11.9521L29.4419 11.9061L29.2109 11.8105ZM29.1992 11.8691L29.0224 11.6924L28.9492 11.7656V11.8691H29.1992ZM29.252 12.0918L29.0239 12.1944L29.026 12.1988L29.252 12.0918ZM29.4922 12.1914L29.4209 11.9516L29.4131 11.9542L29.4922 12.1914ZM31.2266 11.0488L31.3992 11.2297L31.3992 11.2296L31.2266 11.0488ZM31.8535 10.3926L32.0456 10.5526L32.0465 10.5515L31.8535 10.3926ZM32.1875 10.375L31.9907 10.5296L31.9977 10.5377L32.1875 10.375ZM32.1934 10.8613L31.963 10.7639L31.96 10.7716L32.1934 10.8613ZM31.9941 11.1895L32.1793 11.3574L32.1845 11.3517L32.1894 11.3456L31.9941 11.1895ZM31.0449 12.1445L31.2127 12.3299L31.2139 12.3288L31.0449 12.1445ZM30.0605 12.8711L30.1826 13.0893L30.1846 13.0882L30.0605 12.8711ZM28.4258 12.9062L28.249 13.083L28.2511 13.0851L28.4258 12.9062ZM28.1855 12.0508L28.4227 12.1298L27.9669 11.9296L28.1855 12.0508ZM27.377 12.8418L27.2539 12.6242L27.2529 12.6247L27.377 12.8418ZM28.5078 10.627L28.2893 10.5055L28.2878 10.5082L28.5078 10.627ZM28.8418 9.95312L28.6139 9.8502L28.6116 9.85571L28.8418 9.95312ZM28.9238 9.77148L29.1517 9.87438L29.1525 9.87253L28.9238 9.77148ZM29.0352 9.51953L29.2638 9.62057L29.4219 9.26294L29.0309 9.26957L29.0352 9.51953ZM28.2969 9.67188L28.3772 9.90874L28.3843 9.9061L28.2969 9.67188ZM27.1191 10.4805L26.9304 10.3165L26.9303 10.3167L27.1191 10.4805ZM26.5684 11.875L26.3189 11.859L26.3184 11.867V11.875H26.5684ZM26.334 13.1465V12.8965C26.0985 12.8965 25.9226 12.8317 25.7874 12.7162L25.625 12.9062L25.4626 13.0963C25.7024 13.3011 25.9991 13.3965 26.334 13.3965V13.1465ZM25.625 12.9062L25.7896 12.7181C25.6794 12.6217 25.5938 12.4363 25.5938 12.0918H25.3438H25.0938C25.0938 12.5051 25.1956 12.8627 25.4604 13.0944L25.625 12.9062ZM25.3438 12.0918H25.5938C25.5938 11.6502 25.6921 11.2402 25.8884 10.8584L25.666 10.7441L25.4437 10.6299C25.2102 11.084 25.0938 11.5725 25.0938 12.0918H25.3438ZM25.666 10.7441L25.8884 10.8584C26.0903 10.4656 26.3438 10.1327 26.6482 9.85726L26.4805 9.67188L26.3127 9.48649C25.9609 9.80481 25.6714 10.1868 25.4437 10.6299L25.666 10.7441ZM26.4805 9.67188L26.6493 9.85626C26.956 9.57544 27.2755 9.36268 27.6076 9.21468L27.5059 8.98633L27.4041 8.75798C27.0174 8.93029 26.6534 9.17456 26.3116 9.48749L26.4805 9.67188ZM27.5059 8.98633L27.6088 9.21417C27.9517 9.05929 28.24 8.99023 28.4785 8.99023V8.74023V8.49023C28.1467 8.49023 27.7866 8.58525 27.403 8.75849L27.5059 8.98633ZM28.4785 8.74023V8.99023C28.684 8.99023 28.835 9.02357 28.9432 9.07631L29.0527 8.85156L29.1622 8.62681C28.9658 8.53111 28.734 8.49023 28.4785 8.49023V8.74023ZM29.0527 8.85156L28.933 9.07104C29.0017 9.10849 29.0538 9.14756 29.0928 9.18654L29.2695 9.00977L29.4463 8.83299C29.3681 8.75478 29.2757 8.68839 29.1724 8.63209L29.0527 8.85156ZM29.2695 9.00977L29.4957 9.11621L29.5426 9.01661L29.3164 8.91016L29.0902 8.80371L29.0433 8.90332L29.2695 9.00977ZM29.3164 8.91016L29.5462 9.00864L29.6517 8.76254L29.4219 8.66406L29.1921 8.56558L29.0866 8.81168L29.3164 8.91016ZM29.4219 8.66406L29.6507 8.76475L29.7152 8.61826L29.4863 8.51758L29.2575 8.41689L29.193 8.56338L29.4219 8.66406ZM29.4863 8.51758L29.7289 8.57821C29.7269 8.58596 29.7267 8.58462 29.7343 8.56434C29.7405 8.54781 29.7496 8.52475 29.7619 8.49448C29.7864 8.43415 29.8218 8.34989 29.8685 8.24106L29.6387 8.14258L29.4089 8.0441C29.3618 8.15401 29.3249 8.24163 29.2987 8.3063C29.276 8.36215 29.253 8.42019 29.2438 8.45694L29.4863 8.51758ZM29.6387 8.14258L29.8685 8.24106C29.9625 8.0216 30.0877 7.72613 30.2441 7.35483L30.0137 7.25781L29.7833 7.1608C29.6271 7.53169 29.5023 7.82605 29.4089 8.0441L29.6387 8.14258ZM30.0137 7.25781L30.2441 7.35471C30.3891 7.0099 30.509 6.71698 30.6037 6.4763L30.3711 6.38477L30.1385 6.29323C30.0456 6.52911 29.9273 6.81822 29.7832 7.16092L30.0137 7.25781ZM30.3711 6.38477L30.6042 6.47501C30.6512 6.35376 30.6871 6.26031 30.7118 6.195C30.7242 6.16244 30.734 6.13619 30.7411 6.1167C30.7455 6.10469 30.7551 6.07854 30.7601 6.05868L30.5176 5.99805L30.275 5.93741C30.2781 5.92536 30.2802 5.92119 30.2714 5.94532C30.2653 5.96196 30.2563 5.986 30.2442 6.01789C30.2201 6.08148 30.1848 6.17359 30.138 6.29452L30.3711 6.38477ZM30.5176 5.99805L30.7583 6.06545C30.8035 5.90414 30.8785 5.76252 30.9838 5.63805L30.793 5.47656L30.6021 5.31508C30.4496 5.49529 30.341 5.70133 30.2768 5.93064L30.5176 5.99805ZM30.793 5.47656L30.9838 5.63805C31.0603 5.54767 31.1612 5.49805 31.3145 5.49805V5.24805V4.99805C31.0302 4.99805 30.7835 5.10077 30.6021 5.31508L30.793 5.47656ZM31.3145 5.24805V5.49805C31.4257 5.49805 31.4963 5.52265 31.543 5.55439L31.6836 5.34766L31.8242 5.14092C31.6755 5.03985 31.5001 4.99805 31.3145 4.99805V5.24805ZM31.6836 5.34766L31.5488 5.55822C31.5493 5.55855 31.5501 5.55901 31.5515 5.56079C31.5531 5.56283 31.5568 5.56814 31.5611 5.57903C31.5703 5.60223 31.5801 5.64521 31.5801 5.7168H31.8301H32.0801C32.0801 5.49981 32.0227 5.26784 31.8184 5.13709L31.6836 5.34766ZM31.8301 5.7168H31.5801C31.5801 5.82026 31.5571 5.93964 31.5034 6.07708L31.7363 6.16797L31.9692 6.25885C32.0406 6.07598 32.0801 5.89459 32.0801 5.7168H31.8301ZM31.7363 6.16797L31.5034 6.07708C31.4406 6.238 31.3855 6.38164 31.3382 6.50792L31.5723 6.5957L31.8063 6.68348C31.8527 6.55977 31.907 6.41825 31.9692 6.25885L31.7363 6.16797ZM31.5723 6.5957L31.3487 6.4839C31.1604 6.86042 30.9566 7.27775 30.7374 7.73582L30.9629 7.84375L31.1884 7.95168C31.4066 7.49569 31.6091 7.08099 31.7959 6.70751L31.5723 6.5957ZM30.9629 7.84375L30.7366 7.73739C30.5211 8.19591 30.3056 8.6661 30.0901 9.14795L30.3184 9.25L30.5466 9.35205C30.7608 8.87296 30.975 8.40565 31.1891 7.95011L30.9629 7.84375ZM30.3184 9.25L30.0901 9.14795C29.8748 9.62943 29.6712 10.0934 29.4793 10.5399L29.709 10.6387L29.9387 10.7374C30.1296 10.2933 30.3322 9.83151 30.5466 9.35205L30.3184 9.25ZM29.709 10.6387L29.4796 10.5392C29.2878 10.9815 29.1212 11.3735 28.9799 11.715L29.2109 11.8105L29.4419 11.9061C29.5819 11.5679 29.7473 11.1786 29.9383 10.7381L29.709 10.6387ZM29.2109 11.8105L29.0342 11.6338C28.9791 11.6889 28.9653 11.7522 28.9614 11.7718C28.9559 11.7992 28.9551 11.8237 28.9551 11.8398H29.2051H29.4551C29.4551 11.8403 29.4552 11.8522 29.4517 11.8698C29.4498 11.879 29.4461 11.8945 29.4382 11.9131C29.4304 11.9311 29.4155 11.9595 29.3877 11.9873L29.2109 11.8105ZM29.2051 11.8398H28.9551C28.9551 11.8393 28.9549 11.8275 28.9585 11.8099C28.9603 11.8006 28.9641 11.7851 28.972 11.7666C28.9797 11.7486 28.9946 11.7202 29.0224 11.6924L29.1992 11.8691L29.376 12.0459C29.4311 11.9908 29.4448 11.9275 29.4488 11.9079C29.4542 11.8805 29.4551 11.856 29.4551 11.8398H29.2051ZM29.1992 11.8691H28.9492C28.9492 11.9817 28.9774 12.0909 29.024 12.1944L29.252 12.0918L29.4799 11.9892C29.4562 11.9364 29.4492 11.8972 29.4492 11.8691H29.1992ZM29.252 12.0918L29.026 12.1988C29.0591 12.2686 29.1095 12.3358 29.1838 12.3844C29.2588 12.4336 29.3418 12.4531 29.4219 12.4531V12.2031V11.9531C29.4238 11.9531 29.4394 11.9541 29.4578 11.9662C29.4754 11.9777 29.48 11.9892 29.4779 11.9848L29.252 12.0918ZM29.4219 12.2031V12.4531C29.4736 12.4531 29.5237 12.4444 29.5712 12.4286L29.4922 12.1914L29.4131 11.9542C29.4138 11.954 29.417 11.9531 29.4219 11.9531V12.2031ZM29.4922 12.1914L29.5634 12.431C29.8838 12.3358 30.205 12.1715 30.5269 11.9445L30.3828 11.7402L30.2387 11.5359C29.9512 11.7387 29.6787 11.8752 29.4209 11.9518L29.4922 12.1914ZM30.3828 11.7402L30.5269 11.9445C30.8412 11.7229 31.132 11.4847 31.3992 11.2297L31.2266 11.0488L31.0539 10.868C30.8055 11.1052 30.5338 11.3279 30.2387 11.5359L30.3828 11.7402ZM31.2266 11.0488L31.3992 11.2296C31.6649 10.9759 31.8811 10.75 32.0456 10.5526L31.8535 10.3926L31.6615 10.2325C31.5134 10.4102 31.3117 10.6218 31.0539 10.8681L31.2266 11.0488ZM31.8535 10.3926L32.0465 10.5515C32.0584 10.537 32.0637 10.5351 32.0602 10.5371C32.0582 10.5381 32.0547 10.5398 32.0497 10.5411C32.0447 10.5424 32.0396 10.543 32.0352 10.543V10.293V10.043C31.8731 10.043 31.7476 10.1279 31.6605 10.2337L31.8535 10.3926ZM32.0352 10.293V10.543C32.0302 10.543 32.0239 10.5424 32.017 10.5406C32.0101 10.5389 32.0038 10.5364 31.9987 10.5336C31.9882 10.528 31.9864 10.5237 31.9909 10.5295L32.1875 10.375L32.3841 10.2205C32.3036 10.1181 32.1852 10.043 32.0352 10.043V10.293ZM32.1875 10.375L31.9977 10.5377C31.9978 10.5379 31.9982 10.5383 31.9988 10.5394C31.9994 10.5405 32.0005 10.5429 32.0018 10.547C32.0045 10.5553 32.0078 10.5713 32.0078 10.5977H32.2578H32.5078C32.5078 10.4626 32.4735 10.3245 32.3773 10.2123L32.1875 10.375ZM32.2578 10.5977H32.0078C32.0078 10.6263 31.9988 10.6796 31.9631 10.7639L32.1934 10.8613L32.4236 10.9587C32.4738 10.84 32.5078 10.7175 32.5078 10.5977H32.2578ZM32.1934 10.8613L31.96 10.7716C31.9329 10.842 31.8822 10.9291 31.7989 11.0333L31.9941 11.1895L32.1894 11.3456C32.2935 11.2154 32.3757 11.0838 32.4267 10.9511L32.1934 10.8613ZM31.9941 11.1895L31.809 11.0215C31.5093 11.3519 31.1983 11.6648 30.876 11.9602L31.0449 12.1445L31.2139 12.3288C31.5477 12.0227 31.8696 11.6989 32.1793 11.3574L31.9941 11.1895ZM31.0449 12.1445L30.8772 11.9591C30.5602 12.2459 30.2466 12.4768 29.9365 12.654L30.0605 12.8711L30.1846 13.0882C30.5308 12.8903 30.8734 12.6369 31.2127 12.3299L31.0449 12.1445ZM30.0605 12.8711L29.9385 12.6529C29.6401 12.8199 29.3615 12.8965 29.0996 12.8965V13.1465V13.3965C29.4628 13.3965 29.8248 13.2895 30.1826 13.0893L30.0605 12.8711ZM29.0996 13.1465V12.8965C28.8629 12.8965 28.707 12.8314 28.6004 12.7274L28.4258 12.9062L28.2511 13.0851C28.4727 13.3014 28.766 13.3965 29.0996 13.3965V13.1465ZM28.4258 12.9062L28.6026 12.7295C28.5014 12.6283 28.4297 12.4585 28.4297 12.1738H28.1797H27.9297C27.9297 12.5376 28.022 12.8561 28.249 13.083L28.4258 12.9062ZM28.1797 12.1738H28.4297V12.1094H28.1797H27.9297V12.1738H28.1797ZM28.1797 12.1094H28.4297C28.4297 12.1011 28.43 12.0981 28.4299 12.0991C28.4298 12.0997 28.4295 12.1026 28.4287 12.1071C28.4279 12.1114 28.4262 12.1194 28.4227 12.1298L28.1855 12.0508L27.9484 11.9717C27.9307 12.0248 27.9297 12.0797 27.9297 12.1094H28.1797ZM28.1855 12.0508L27.9669 11.9296C27.812 12.209 27.5778 12.4411 27.2539 12.6242L27.377 12.8418L27.5 13.0594C27.8948 12.8363 28.1997 12.541 28.4042 12.172L28.1855 12.0508ZM27.377 12.8418L27.2529 12.6247C26.9275 12.8107 26.6222 12.8965 26.334 12.8965V13.1465V13.3965C26.7254 13.3965 27.1155 13.2792 27.501 13.0589L27.377 12.8418ZM26.7676 12.1094V12.3594C27.0599 12.3594 27.3345 12.2698 27.5868 12.1L27.4473 11.8926L27.3077 11.6851C27.1304 11.8044 26.9518 11.8594 26.7676 11.8594V12.1094ZM27.4473 11.8926L27.5868 12.1C27.8253 11.9396 28.0411 11.7357 28.2349 11.4913L28.0391 11.3359L27.8432 11.1806C27.6776 11.3893 27.4989 11.5565 27.3077 11.6851L27.4473 11.8926ZM28.0391 11.3359L28.2349 11.4913C28.4234 11.2536 28.5878 11.0051 28.7278 10.7457L28.5078 10.627L28.2878 10.5082C28.1622 10.741 28.0141 10.9651 27.8432 11.1806L28.0391 11.3359ZM28.5078 10.627L28.7264 10.7484C28.8663 10.4965 28.9818 10.2637 29.072 10.0505L28.8418 9.95312L28.6116 9.85571C28.5299 10.0488 28.4228 10.2652 28.2893 10.5055L28.5078 10.627ZM28.8418 9.95312L29.0696 10.056L29.1517 9.87438L28.9238 9.77148L28.696 9.66859L28.614 9.85023L28.8418 9.95312ZM28.9238 9.77148L29.1525 9.87253L29.2638 9.62057L29.0352 9.51953L28.8065 9.41849L28.6952 9.67044L28.9238 9.77148ZM29.0352 9.51953L29.0309 9.26957C28.7667 9.27404 28.4924 9.3321 28.2095 9.43765L28.2969 9.67188L28.3843 9.9061C28.6248 9.81634 28.8426 9.77283 29.0394 9.7695L29.0352 9.51953ZM28.2969 9.67188L28.2166 9.43512C27.7221 9.60282 27.293 9.89911 26.9304 10.3165L27.1191 10.4805L27.3079 10.6444C27.6172 10.2884 27.9732 10.0456 28.3772 9.90863L28.2969 9.67188ZM27.1191 10.4805L26.9303 10.3167C26.5594 10.7442 26.3572 11.2622 26.3189 11.859L26.5684 11.875L26.8178 11.891C26.8498 11.394 27.0148 10.9824 27.308 10.6443L27.1191 10.4805ZM26.5684 11.875H26.3184C26.3184 11.9826 26.3404 12.11 26.4277 12.2127C26.5216 12.3232 26.651 12.3594 26.7676 12.3594V12.1094V11.8594C26.7583 11.8594 26.7614 11.858 26.7717 11.862C26.7835 11.8666 26.7974 11.8756 26.8086 11.8889C26.8192 11.9013 26.8217 11.9106 26.8213 11.9094C26.8208 11.9075 26.8184 11.8972 26.8184 11.875H26.5684ZM31.2676 12.666L31.0719 12.8217L31.0741 12.8243L31.2676 12.666ZM31.7422 9.99414L31.9502 10.1328L31.9516 10.1307L31.7422 9.99414ZM32.6387 9.09766L32.5026 8.88794L32.5016 8.88861L32.6387 9.09766ZM34.6895 8.94531L34.8206 8.73225L34.8125 8.72767L34.6895 8.94531ZM34.8301 9.04492L34.6718 9.23841L34.6812 9.24615L34.6914 9.25293L34.8301 9.04492ZM34.959 9.15039L34.7822 9.32717L34.9081 9.45304L35.0682 9.37527L34.959 9.15039ZM35.1641 9.05078L35.0583 8.82421L35.0548 8.8259L35.1641 9.05078ZM35.3457 8.98047L35.4203 9.21925L35.4289 9.21622L35.3457 8.98047ZM36.0137 9.40234L35.7765 9.32329L35.7735 9.3324L35.7711 9.34171L36.0137 9.40234ZM35.8613 9.85352L35.6282 9.76312L35.6267 9.76731L35.8613 9.85352ZM35.6328 10.4922L35.8679 10.5773L35.8688 10.5748L35.6328 10.4922ZM35.4219 11.1484L35.181 11.0815L35.1799 11.0857L35.4219 11.1484ZM35.3984 11.9629L35.1748 12.0747L35.1772 12.0793L35.3984 11.9629ZM36.0547 11.8809L36.1944 12.0882L36.1972 12.0863L36.0547 11.8809ZM36.6465 11.4121L36.8121 11.5994L36.813 11.5986L36.6465 11.4121ZM36.9863 11.1016L37.1569 11.2844L37.1601 11.2813L36.9863 11.1016ZM37.3438 10.7441L37.1861 10.5501L37.1745 10.5595L37.1642 10.5702L37.3438 10.7441ZM37.7188 10.7852L37.5091 10.9214L37.5131 10.9276L37.5175 10.9335L37.7188 10.7852ZM37.6895 11.3125L37.8593 11.4962L37.8662 11.4893L37.6895 11.3125ZM36.5293 12.3789L36.6876 12.5724L36.6883 12.5718L36.5293 12.3789ZM35.7324 12.9238L35.8517 13.1436L35.8541 13.1422L35.7324 12.9238ZM34.3965 12.8301L34.1804 12.9558L34.1814 12.9575L34.3965 12.8301ZM34.2852 11.6758L34.5195 11.7628L34.0847 11.5264L34.2852 11.6758ZM33.7168 12.3438L33.8967 12.5174L33.8981 12.5159L33.7168 12.3438ZM33.0078 12.918L33.1364 13.1324L33.1388 13.1309L33.0078 12.918ZM33.166 11.875L33.0056 11.6833L33.0036 11.6849L33.166 11.875ZM33.7168 11.3125L33.5247 11.1524L33.5233 11.1542L33.7168 11.3125ZM34.0918 9.93555L33.976 10.1571L33.98 10.1592L34.0918 9.93555ZM32.9375 10.0352L32.7922 9.83172L32.7905 9.83297L32.9375 10.0352ZM32.4102 10.6387L32.6279 10.7616L32.6287 10.7601L32.4102 10.6387ZM32.2871 11.8691L32.0499 11.9482L32.0517 11.9532L32.2871 11.8691ZM32.2285 13.1465V12.8965C32.1395 12.8965 32.0147 12.8709 31.8476 12.8034L31.7539 13.0352L31.6602 13.2669C31.8603 13.3478 32.0519 13.3965 32.2285 13.3965V13.1465ZM31.7539 13.0352L31.8476 12.8034C31.7074 12.7467 31.5784 12.6511 31.4611 12.5077L31.2676 12.666L31.0741 12.8243C31.238 13.0247 31.4332 13.1752 31.6602 13.2669L31.7539 13.0352ZM31.2676 12.666L31.4632 12.5104C31.3715 12.395 31.3125 12.2251 31.3125 11.9746H31.0625H30.8125C30.8125 12.3022 30.8903 12.5933 31.0719 12.8216L31.2676 12.666ZM31.0625 11.9746H31.3125C31.3125 11.7666 31.3601 11.49 31.4659 11.1385L31.2266 11.0664L30.9872 10.9943C30.8743 11.3694 30.8125 11.6983 30.8125 11.9746H31.0625ZM31.2266 11.0664L31.4659 11.1385C31.5675 10.8013 31.728 10.4662 31.9502 10.1328L31.7422 9.99414L31.5342 9.85547C31.2876 10.2253 31.1044 10.6049 30.9872 10.9943L31.2266 11.0664ZM31.7422 9.99414L31.9516 10.1307C32.1669 9.80059 32.441 9.52631 32.7758 9.3067L32.6387 9.09766L32.5016 8.88861C32.1098 9.14556 31.7862 9.46894 31.5328 9.85757L31.7422 9.99414ZM32.6387 9.09766L32.7748 9.30737C33.0975 9.09793 33.4731 8.99023 33.9102 8.99023V8.74023V8.49023C33.3863 8.49023 32.9142 8.62082 32.5026 8.88794L32.6387 9.09766ZM33.9102 8.74023V8.99023C34.0619 8.99023 34.1846 9.00929 34.2823 9.04186L34.3613 8.80469L34.4404 8.56752C34.2803 8.51414 34.1021 8.49023 33.9102 8.49023V8.74023ZM34.3613 8.80469L34.2823 9.04186C34.4004 9.08124 34.4942 9.12211 34.5664 9.16295L34.6895 8.94531L34.8125 8.72767C34.705 8.66695 34.5801 8.61407 34.4404 8.56752L34.3613 8.80469ZM34.6895 8.94531L34.5584 9.15823C34.6004 9.18405 34.6381 9.21083 34.6718 9.23841L34.8301 9.04492L34.9884 8.85143C34.9362 8.8087 34.8801 8.76908 34.8205 8.7324L34.6895 8.94531ZM34.8301 9.04492L34.6914 9.25293C34.7249 9.27523 34.755 9.29997 34.7822 9.32717L34.959 9.15039L35.1358 8.97361C35.0848 8.92268 35.0291 8.87711 34.9688 8.83691L34.8301 9.04492ZM34.959 9.15039L35.0682 9.37527L35.2733 9.27566L35.1641 9.05078L35.0548 8.8259L34.8498 8.92551L34.959 9.15039ZM35.1641 9.05078L35.2698 9.27733C35.3181 9.25476 35.3683 9.23534 35.4203 9.21909L35.3457 8.98047L35.2711 8.74185C35.1981 8.76466 35.1272 8.79212 35.0583 8.82424L35.1641 9.05078ZM35.3457 8.98047L35.4289 9.21622C35.4806 9.19796 35.5075 9.19531 35.5156 9.19531V8.94531V8.69531C35.43 8.69531 35.3436 8.71611 35.2625 8.74472L35.3457 8.98047ZM35.5156 8.94531V9.19531C35.6157 9.19531 35.6745 9.22171 35.7143 9.2565L35.8789 9.06836L36.0435 8.88022C35.8958 8.75095 35.7124 8.69531 35.5156 8.69531V8.94531ZM35.8789 9.06836L35.7143 9.2565C35.7698 9.30509 35.7695 9.3312 35.7695 9.33789H36.0195H36.2695C36.2695 9.14927 36.1755 8.99569 36.0435 8.88022L35.8789 9.06836ZM36.0195 9.33789H35.7695C35.7695 9.34316 35.7694 9.34723 35.7693 9.35024C35.7693 9.35173 35.7692 9.35285 35.7692 9.35365C35.7691 9.35445 35.7691 9.35482 35.7691 9.35481C35.7691 9.3548 35.7691 9.35426 35.7693 9.35325C35.7694 9.35225 35.7696 9.35056 35.77 9.34828C35.7704 9.34602 35.7711 9.34281 35.772 9.33883C35.773 9.3349 35.7744 9.3296 35.7765 9.32329L36.0137 9.40234L36.2508 9.4814C36.2691 9.42658 36.2695 9.36719 36.2695 9.33789H36.0195ZM36.0137 9.40234L35.7711 9.34171C35.7476 9.43594 35.7012 9.57495 35.6282 9.76313L35.8613 9.85352L36.0944 9.9439C36.1699 9.74927 36.2251 9.58749 36.2562 9.46298L36.0137 9.40234ZM35.8613 9.85352L35.6267 9.76731C35.5558 9.96014 35.4792 10.1743 35.3968 10.4096L35.6328 10.4922L35.8688 10.5748C35.9505 10.3414 36.0262 10.1297 36.096 9.93972L35.8613 9.85352ZM35.6328 10.4922L35.3977 10.4071C35.3138 10.639 35.2415 10.8639 35.181 11.0815L35.4219 11.1484L35.6628 11.2153C35.7195 11.0111 35.7878 10.7985 35.8679 10.5773L35.6328 10.4922ZM35.4219 11.1484L35.1799 11.0857C35.1226 11.3065 35.0898 11.5034 35.0898 11.6699H35.3398H35.5898C35.5898 11.5631 35.6118 11.4122 35.6639 11.2112L35.4219 11.1484ZM35.3398 11.6699H35.0898C35.0898 11.8133 35.1135 11.9521 35.1748 12.0747L35.3984 11.9629L35.622 11.8511C35.6052 11.8175 35.5898 11.7609 35.5898 11.6699H35.3398ZM35.3984 11.9629L35.1772 12.0793C35.2169 12.1547 35.2759 12.2201 35.3556 12.2646C35.4338 12.3083 35.5179 12.3242 35.5977 12.3242V12.0742V11.8242C35.5837 11.8242 35.5877 11.8216 35.5995 11.8282C35.6051 11.8313 35.6103 11.8354 35.6143 11.8397C35.6183 11.8438 35.6198 11.8467 35.6197 11.8465L35.3984 11.9629ZM35.5977 12.0742V12.3242C35.7907 12.3242 35.9967 12.2213 36.1943 12.0882L36.0547 11.8809L35.915 11.6735C35.7298 11.7982 35.6312 11.8242 35.5977 11.8242V12.0742ZM36.0547 11.8809L36.1972 12.0863C36.3979 11.947 36.6028 11.7845 36.8121 11.5994L36.6465 11.4121L36.4808 11.2249C36.2839 11.3991 36.0943 11.5491 35.9122 11.6755L36.0547 11.8809ZM36.6465 11.4121L36.813 11.5986C36.9239 11.4996 37.0385 11.3948 37.1569 11.2843L36.9863 11.1016L36.8157 10.9188C36.6998 11.027 36.5879 11.1293 36.48 11.2256L36.6465 11.4121ZM36.9863 11.1016L37.1601 11.2813C37.2794 11.166 37.4004 11.0449 37.5233 10.9181L37.3438 10.7441L37.1642 10.5702C37.0449 10.6934 36.9277 10.8106 36.8126 10.9218L36.9863 11.1016ZM37.3438 10.7441L37.5014 10.9382C37.5182 10.9245 37.5287 10.9192 37.5327 10.9176C37.5361 10.9162 37.5331 10.918 37.5254 10.918V10.668V10.418C37.3912 10.418 37.2766 10.4766 37.1861 10.5501L37.3438 10.7441ZM37.5254 10.668V10.918C37.5239 10.918 37.5203 10.9177 37.5154 10.9164C37.5104 10.9151 37.506 10.9131 37.5027 10.9111C37.4961 10.907 37.4995 10.9066 37.5091 10.9214L37.7188 10.7852L37.9284 10.6489C37.8417 10.5156 37.7054 10.418 37.5254 10.418V10.668ZM37.7188 10.7852L37.5175 10.9335C37.5399 10.9639 37.5508 10.9958 37.5508 11.0371H37.8008H38.0508C38.0508 10.891 38.0069 10.7548 37.92 10.6369L37.7188 10.7852ZM37.8008 11.0371H37.5508C37.5508 11.0833 37.5379 11.1105 37.5127 11.1357L37.6895 11.3125L37.8662 11.4893C37.9895 11.366 38.0508 11.2097 38.0508 11.0371H37.8008ZM37.6895 11.3125L37.5197 11.129C37.3609 11.2759 37.1984 11.4325 37.0322 11.5986L37.209 11.7754L37.3858 11.9522C37.5477 11.7902 37.7055 11.6382 37.8592 11.496L37.6895 11.3125ZM37.209 11.7754L37.0322 11.5986C36.8762 11.7547 36.6564 11.9501 36.3703 12.186L36.5293 12.3789L36.6883 12.5718C36.9803 12.3311 37.2137 12.1242 37.3858 11.9522L37.209 11.7754ZM36.5293 12.3789L36.371 12.1854C36.1239 12.3876 35.8705 12.5607 35.6107 12.7054L35.7324 12.9238L35.8541 13.1422C36.1413 12.9822 36.4191 12.7921 36.6876 12.5724L36.5293 12.3789ZM35.7324 12.9238L35.6131 12.7041C35.3618 12.8406 35.1573 12.8965 34.9941 12.8965V13.1465V13.3965C35.2684 13.3965 35.5562 13.304 35.8517 13.1435L35.7324 12.9238ZM34.9941 13.1465V12.8965C34.7968 12.8965 34.6856 12.8276 34.6116 12.7026L34.3965 12.8301L34.1814 12.9575C34.3573 13.2544 34.6446 13.3965 34.9941 13.3965V13.1465ZM34.3965 12.8301L34.6126 12.7044C34.5092 12.5266 34.459 12.3413 34.459 12.1445H34.209H33.959C33.959 12.4321 34.0338 12.7038 34.1804 12.9558L34.3965 12.8301ZM34.209 12.1445H34.459C34.459 11.9925 34.481 11.8666 34.5195 11.7628L34.2852 11.6758L34.0508 11.5887C33.9878 11.7584 33.959 11.945 33.959 12.1445H34.209ZM34.2852 11.6758L34.0847 11.5264C33.9314 11.732 33.7486 11.9471 33.5355 12.1716L33.7168 12.3438L33.8981 12.5159C34.1225 12.2795 34.3186 12.0493 34.4856 11.8252L34.2852 11.6758ZM33.7168 12.3438L33.5369 12.1701C33.3319 12.3824 33.1119 12.5604 32.8768 12.7051L33.0078 12.918L33.1388 13.1309C33.4116 12.963 33.6642 12.7582 33.8966 12.5174L33.7168 12.3438ZM33.0078 12.918L32.8792 12.7036C32.6596 12.8354 32.4438 12.8965 32.2285 12.8965V13.1465V13.3965C32.5445 13.3965 32.8483 13.3053 33.1364 13.1323L33.0078 12.918ZM32.6973 12.1152V12.3652C32.9174 12.3652 33.1333 12.2317 33.3284 12.0651L33.166 11.875L33.0036 11.6849C32.8238 11.8386 32.7271 11.8652 32.6973 11.8652V12.1152ZM33.166 11.875L33.3264 12.0667C33.5312 11.8954 33.7257 11.6965 33.9103 11.4708L33.7168 11.3125L33.5233 11.1542C33.3564 11.3582 33.1837 11.5342 33.0056 11.6833L33.166 11.875ZM33.7168 11.3125L33.9089 11.4725C34.1098 11.2314 34.2728 11.0074 34.3948 10.8012L34.1797 10.6738L33.9645 10.5465C33.86 10.7231 33.7144 10.9249 33.5247 11.1525L33.7168 11.3125ZM34.1797 10.6738L34.3948 10.8012C34.454 10.7011 34.502 10.6115 34.536 10.5342C34.5661 10.4657 34.5996 10.376 34.5996 10.2871H34.3496H34.0996C34.0996 10.2712 34.1025 10.2666 34.0989 10.279C34.0958 10.2897 34.0895 10.3073 34.0782 10.333C34.0556 10.3846 34.0186 10.4551 33.9645 10.5465L34.1797 10.6738ZM34.3496 10.2871H34.5996C34.5996 10.015 34.4307 9.82548 34.2036 9.71194L34.0918 9.93555L33.98 10.1592C34.0967 10.2175 34.0996 10.2624 34.0996 10.2871H34.3496ZM34.0918 9.93555L34.2076 9.71399C34.014 9.6128 33.8193 9.55078 33.6289 9.55078V9.80078V10.0508C33.712 10.0508 33.8258 10.0786 33.976 10.1571L34.0918 9.93555ZM33.6289 9.80078V9.55078C33.3289 9.55078 33.0485 9.64867 32.7922 9.83172L32.9375 10.0352L33.0828 10.2386C33.264 10.1091 33.4445 10.0508 33.6289 10.0508V9.80078ZM32.9375 10.0352L32.7905 9.83297C32.5444 10.0119 32.3449 10.2413 32.1916 10.5173L32.4102 10.6387L32.6287 10.7601C32.7488 10.5439 32.9009 10.3709 33.0845 10.2373L32.9375 10.0352ZM32.4102 10.6387L32.1924 10.5158C32.0359 10.793 31.9551 11.087 31.9551 11.3945H32.2051H32.4551C32.4551 11.1786 32.5109 10.9687 32.6279 10.7616L32.4102 10.6387ZM32.2051 11.3945H31.9551C31.9551 11.5771 31.9879 11.762 32.0499 11.9482L32.2871 11.8691L32.5243 11.7901C32.477 11.6481 32.4551 11.5166 32.4551 11.3945H32.2051ZM32.2871 11.8691L32.0517 11.9532C32.0985 12.0843 32.1823 12.1945 32.305 12.2681C32.4234 12.3392 32.5598 12.3652 32.6973 12.3652V12.1152V11.8652C32.6199 11.8652 32.5805 11.8503 32.5622 11.8393C32.5482 11.8309 32.5343 11.818 32.5225 11.7851L32.2871 11.8691ZM36.9688 12.8711L36.8469 13.0894L36.8489 13.0905L36.9688 12.8711ZM36.3242 11.9863L36.079 12.0354L36.0807 12.0431L36.3242 11.9863ZM36.4238 11.6406L36.6007 11.8175L36.6051 11.8128L36.4238 11.6406ZM36.8105 11.5469L36.737 11.7859L36.7419 11.7873L36.8105 11.5469ZM36.9336 11.6523L36.7098 11.7642L36.7148 11.7734L36.9336 11.6523ZM37.4551 12.0977L37.3505 12.3248L37.3549 12.3267L37.4551 12.0977ZM38.8496 12.1152L38.736 11.8925L38.7341 11.8935L38.8496 12.1152ZM38.9023 10.9082L38.6997 11.0546L38.7015 11.057L38.9023 10.9082ZM38.3223 10.3398L38.1728 10.5403L38.1766 10.543L38.3223 10.3398ZM37.625 9.86523L37.7562 9.65243L37.7536 9.65086L37.625 9.86523ZM37.5371 9.76562L37.329 9.90437L37.3337 9.91093L37.5371 9.76562ZM37.5137 9.47852L37.7035 9.64121L37.7091 9.63468L37.7142 9.62777L37.5137 9.47852ZM39.0605 8.875L38.906 9.07173L38.9139 9.07749L39.0605 8.875ZM39.0781 9.43164L39.2477 9.61538L39.2514 9.61185L39.0781 9.43164ZM38.7617 9.70117L38.6073 9.50459L38.3027 9.74391L38.6462 9.92288L38.7617 9.70117ZM39.8691 10.627L39.6671 10.7742L39.6679 10.7753L39.8691 10.627ZM39.9512 12.4902L40.1263 12.6686L40.1263 12.6686L39.9512 12.4902ZM39.125 12.9766L39.0451 12.7397L39.0443 12.74L39.125 12.9766ZM38.0879 13.1465V12.8965C37.7166 12.8965 37.3852 12.8138 37.0886 12.6517L36.9688 12.8711L36.8489 13.0905C37.2242 13.2956 37.6389 13.3965 38.0879 13.3965V13.1465ZM36.9688 12.8711L37.0906 12.6528C36.8211 12.5024 36.6468 12.269 36.5677 11.9296L36.3242 11.9863L36.0807 12.0431C36.1891 12.5083 36.4446 12.8648 36.8469 13.0894L36.9688 12.8711ZM36.3242 11.9863L36.5694 11.9373C36.5658 11.9197 36.5637 11.9076 36.5625 11.9C36.5619 11.8962 36.5618 11.8949 36.5619 11.8953C36.5619 11.8956 36.562 11.897 36.5622 11.8991C36.5623 11.9011 36.5625 11.905 36.5625 11.9102H36.3125H36.0625C36.0625 11.9515 36.0725 12.0027 36.0791 12.0354L36.3242 11.9863ZM36.3125 11.9102H36.5625C36.5625 11.8706 36.5735 11.8445 36.6006 11.8174L36.4238 11.6406L36.2471 11.4638C36.1257 11.5852 36.0625 11.7387 36.0625 11.9102H36.3125ZM36.4238 11.6406L36.6051 11.8128C36.6423 11.7737 36.6621 11.7734 36.6699 11.7734V11.5234V11.2734C36.4981 11.2734 36.3538 11.3513 36.2426 11.4684L36.4238 11.6406ZM36.6699 11.5234V11.7734C36.6829 11.7734 36.7047 11.7759 36.737 11.7858L36.8105 11.5469L36.8841 11.3079C36.8149 11.2866 36.7429 11.2734 36.6699 11.2734V11.5234ZM36.8105 11.5469L36.7419 11.7873C36.7365 11.7857 36.7279 11.7819 36.7196 11.7748C36.7117 11.768 36.7093 11.7627 36.71 11.7641L36.9336 11.6523L37.1572 11.5405C37.1012 11.4284 37.0068 11.3429 36.8792 11.3065L36.8105 11.5469ZM36.9336 11.6523L36.7148 11.7734C36.8488 12.0156 37.0702 12.1957 37.3505 12.3248L37.4551 12.0977L37.5596 11.8706C37.3478 11.7731 37.2215 11.6563 37.1524 11.5313L36.9336 11.6523ZM37.4551 12.0977L37.3549 12.3267C37.6319 12.4479 37.9101 12.5117 38.1875 12.5117V12.2617V12.0117C37.9884 12.0117 37.7783 11.9662 37.5553 11.8686L37.4551 12.0977ZM38.1875 12.2617V12.5117C38.4736 12.5117 38.7354 12.4566 38.9651 12.337L38.8496 12.1152L38.7341 11.8935C38.5888 11.9692 38.4092 12.0117 38.1875 12.0117V12.2617ZM38.8496 12.1152L38.9632 12.3379C39.0943 12.271 39.2041 12.1764 39.2795 12.0501C39.3547 11.9244 39.3867 11.7825 39.3867 11.6348H39.1367H38.8867C38.8867 11.7097 38.8709 11.7592 38.8503 11.7936C38.8301 11.8275 38.7963 11.8618 38.736 11.8925L38.8496 12.1152ZM39.1367 11.6348H39.3867C39.3867 11.3101 39.2928 11.0153 39.1032 10.7594L38.9023 10.9082L38.7015 11.057C38.8244 11.223 38.8867 11.4125 38.8867 11.6348H39.1367ZM38.9023 10.9082L39.105 10.7618C38.9352 10.5268 38.7219 10.3187 38.4679 10.1366L38.3223 10.3398L38.1766 10.543C38.3914 10.697 38.5648 10.8678 38.6997 11.0546L38.9023 10.9082ZM38.3223 10.3398L38.4717 10.1394C38.2356 9.96336 37.9971 9.801 37.7562 9.65244L37.625 9.86523L37.4938 10.078C37.7216 10.2185 37.948 10.3726 38.1728 10.5403L38.3223 10.3398ZM37.625 9.86523L37.7536 9.65086C37.7614 9.65555 37.7672 9.65976 37.7707 9.66249C37.7743 9.6653 37.7767 9.66743 37.7778 9.66843C37.7798 9.67026 37.7792 9.66994 37.7758 9.66614C37.7689 9.65833 37.7574 9.64386 37.7405 9.62032L37.5371 9.76562L37.3337 9.91093C37.3559 9.94208 37.3785 9.97155 37.4009 9.99695C37.4197 10.0182 37.4525 10.0533 37.4964 10.0796L37.625 9.86523ZM37.5371 9.76562L37.7451 9.62695C37.7278 9.60101 37.7285 9.58986 37.7285 9.58984H37.4785H37.2285C37.2285 9.70701 37.2683 9.81305 37.3291 9.9043L37.5371 9.76562ZM37.4785 9.58984H37.7285C37.7285 9.5869 37.7289 9.59195 37.7257 9.60214C37.7222 9.61308 37.7154 9.62731 37.7035 9.64121L37.5137 9.47852L37.3239 9.31582C37.2511 9.40068 37.2285 9.50163 37.2285 9.58984H37.4785ZM37.5137 9.47852L37.7142 9.62777C37.8249 9.47909 37.97 9.32944 38.1527 9.17965L37.9941 8.98633L37.8356 8.79301C37.6277 8.96353 37.4525 9.142 37.3131 9.32926L37.5137 9.47852ZM37.9941 8.98633L38.1527 9.17965C38.307 9.05308 38.4667 8.99609 38.6387 8.99609V8.74609V8.49609C38.3418 8.49609 38.0719 8.59926 37.8356 8.79301L37.9941 8.98633ZM38.6387 8.74609V8.99609C38.7681 8.99609 38.8503 9.02777 38.9061 9.07158L39.0605 8.875L39.215 8.67842C39.052 8.55035 38.853 8.49609 38.6387 8.49609V8.74609ZM39.0605 8.875L38.9139 9.07749C38.9561 9.10804 38.9751 9.12977 38.9823 9.14009C38.988 9.14847 38.9805 9.14088 38.9805 9.12109H39.2305H39.4805C39.4805 8.91594 39.3402 8.76886 39.2072 8.67251L39.0605 8.875ZM39.2305 9.12109H38.9805C38.9805 9.14429 38.9723 9.18662 38.9048 9.25143L39.0781 9.43164L39.2514 9.61185C39.3871 9.48135 39.4805 9.31665 39.4805 9.12109H39.2305ZM39.0781 9.43164L38.9086 9.24794C38.8119 9.33717 38.7115 9.42272 38.6073 9.50459L38.7617 9.70117L38.9162 9.89775C39.0307 9.80775 39.1412 9.71361 39.2477 9.61534L39.0781 9.43164ZM38.7617 9.70117L38.6462 9.92288C39.0813 10.1496 39.4192 10.4342 39.6671 10.7742L39.8691 10.627L40.0711 10.4797C39.7722 10.0697 39.3718 9.73713 38.8772 9.47946L38.7617 9.70117ZM39.8691 10.627L39.6679 10.7753C39.9191 11.1161 40.0293 11.4286 40.0293 11.7168H40.2793H40.5293C40.5293 11.294 40.3661 10.88 40.0704 10.4787L39.8691 10.627ZM40.2793 11.7168H40.0293C40.0293 11.949 39.9479 12.143 39.776 12.3119L39.9512 12.4902L40.1263 12.6686C40.3919 12.4078 40.5293 12.0861 40.5293 11.7168H40.2793ZM39.9512 12.4902L39.776 12.3118C39.5925 12.492 39.3516 12.6363 39.0451 12.7397L39.125 12.9766L39.2049 13.2135C39.5703 13.0902 39.8802 12.9103 40.1263 12.6686L39.9512 12.4902ZM39.125 12.9766L39.0443 12.74C38.7389 12.8442 38.4205 12.8965 38.0879 12.8965V13.1465V13.3965C38.474 13.3965 38.8471 13.3355 39.2057 13.2132L39.125 12.9766Z" fill="#3C406B" mask="url(#path-1-outside-1_91_2)"/>
<path fill-rule="evenodd" clip-rule="evenodd" d="M3.61841 1C3.41381 2.18308 2.48186 2.41251 1.99995 2.44166C3.13475 2.65496 3.35482 3.62657 3.38277 4.12898C3.48559 3.63727 3.8484 2.71338 5.00122 2.68732C4.52958 2.58013 3.6434 2.20187 3.61841 1Z" stroke="#F4C2C2" stroke-width="0.4" stroke-linecap="round" stroke-linejoin="round"/>
<path fill-rule="evenodd" clip-rule="evenodd" d="M41.3499 13C40.7535 14.336 39.5801 14.305 39.0001 14.1829C40.2815 14.8047 40.2518 16.028 40.1347 16.6327C40.4036 16.0832 41.1101 15.1059 42.4845 15.4498C41.9574 15.1694 41.02 14.4329 41.3499 13Z" stroke="#3C406B" stroke-width="0.5" stroke-linecap="round" stroke-linejoin="round"/>
<path d="M2.89453 13.1289C2.16797 13.1289 1.64648 12.9629 1.33008 12.6309C1.01367 12.2988 0.855469 11.875 0.855469 11.3594C0.855469 10.9336 0.929688 10.4883 1.07812 10.0234C1.23047 9.55469 1.43555 9.08984 1.69336 8.62891C1.95508 8.16406 2.25195 7.71875 2.58398 7.29297C2.91992 6.86328 3.27148 6.47461 3.63867 6.12695C4.00586 5.77539 4.37109 5.48242 4.73438 5.24805C5.07422 5.0293 5.41602 4.85742 5.75977 4.73242C6.10352 4.60742 6.44141 4.54492 6.77344 4.54492C7.10547 4.54492 7.39062 4.62305 7.62891 4.7793C7.87109 4.93555 7.99219 5.20898 7.99219 5.59961C7.99219 5.75977 7.95508 5.96094 7.88086 6.20312C7.81055 6.44141 7.70898 6.67969 7.57617 6.91797C7.43945 7.16406 7.27539 7.36914 7.08398 7.5332C6.89648 7.69336 6.69336 7.77344 6.47461 7.77344C6.39648 7.77344 6.29102 7.75586 6.1582 7.7207C6.02539 7.68555 5.95898 7.59766 5.95898 7.45703C5.95898 7.41016 5.9707 7.35547 5.99414 7.29297C6.02148 7.23047 6.06836 7.1582 6.13477 7.07617C6.22852 6.97461 6.32812 6.84961 6.43359 6.70117C6.53906 6.54883 6.62891 6.39258 6.70312 6.23242C6.78125 6.07227 6.82031 5.93164 6.82031 5.81055C6.82031 5.56055 6.70312 5.43555 6.46875 5.43555C6.30078 5.43555 6.11133 5.49023 5.90039 5.59961C5.68945 5.70898 5.46875 5.85938 5.23828 6.05078C5.00391 6.24219 4.75 6.48828 4.47656 6.78906C4.20703 7.08594 3.93945 7.41602 3.67383 7.7793C3.4082 8.13867 3.16602 8.50977 2.94727 8.89258C2.72852 9.27539 2.55273 9.65234 2.41992 10.0234C2.29102 10.3906 2.22656 10.7285 2.22656 11.0371C2.22656 11.3223 2.30273 11.5508 2.45508 11.7227C2.60742 11.8945 2.85938 11.9805 3.21094 11.9805C3.44531 11.9805 3.69922 11.9219 3.97266 11.8047C4.25 11.6875 4.53125 11.5391 4.81641 11.3594C5.10547 11.1758 5.38477 10.9863 5.6543 10.791C5.92773 10.5957 6.17773 10.418 6.4043 10.2578C6.63477 10.0977 6.83008 9.98242 6.99023 9.91211C7.00586 9.89648 7.0293 9.88867 7.06055 9.88867C7.11914 9.88867 7.16016 9.93555 7.18359 10.0293C7.20312 10.1387 7.21289 10.248 7.21289 10.3574C7.21289 10.4238 7.20312 10.5059 7.18359 10.6035C7.16797 10.6973 7.11328 10.8066 7.01953 10.9316C6.76562 11.2363 6.4668 11.5215 6.12305 11.7871C5.7793 12.0527 5.41797 12.2871 5.03906 12.4902C4.66016 12.6895 4.28516 12.8457 3.91406 12.959C3.54688 13.0723 3.20703 13.1289 2.89453 13.1289ZM9.63492 8.34766C9.39273 8.34766 9.22281 8.31055 9.12516 8.23633C9.0275 8.1582 8.97281 8.05664 8.96109 7.93164C8.96109 7.74805 9.0275 7.56836 9.16031 7.39258C9.29703 7.21289 9.4982 7.12305 9.76383 7.12305C9.99039 7.12305 10.1486 7.16797 10.2384 7.25781C10.3283 7.34375 10.3732 7.45312 10.3732 7.58594C10.3732 7.73438 10.3146 7.89844 10.1974 8.07812C10.0841 8.25781 9.89664 8.34766 9.63492 8.34766ZM8.19938 13.1465C7.88297 13.1465 7.63297 13.0664 7.44938 12.9062C7.26969 12.7422 7.17984 12.4883 7.17984 12.1445C7.17984 11.9062 7.22281 11.6699 7.30875 11.4355C7.39859 11.1973 7.49625 10.9746 7.60172 10.7676C7.71109 10.5566 7.79703 10.373 7.85953 10.2168C7.87906 10.166 7.91227 10.0879 7.95914 9.98242C8.00992 9.87695 8.06266 9.76953 8.11734 9.66016L8.31656 9.25C8.38297 9.14062 8.45914 9.0625 8.54508 9.01562C8.63102 8.96875 8.71891 8.94531 8.80875 8.94531C8.95719 8.94531 9.08414 8.99414 9.18961 9.0918C9.29898 9.18555 9.35367 9.30664 9.35367 9.45508C9.34977 9.49023 9.34391 9.52539 9.33609 9.56055C9.33219 9.5957 9.32047 9.63086 9.30094 9.66602C9.215 9.82227 9.14078 9.96875 9.07828 10.1055C9.01578 10.2383 8.95133 10.373 8.88492 10.5098C8.83023 10.623 8.76188 10.7617 8.67984 10.9258C8.59781 11.0898 8.52555 11.2559 8.46305 11.4238C8.40055 11.5879 8.3693 11.7344 8.3693 11.8633C8.3693 11.9688 8.39469 12.0391 8.44547 12.0742C8.50016 12.1055 8.57633 12.1211 8.67398 12.1211C8.83023 12.1211 9.00211 12.0723 9.18961 11.9746C9.38102 11.877 9.56266 11.7559 9.73453 11.6113C9.91422 11.4668 10.0802 11.3203 10.2326 11.1719C10.3849 11.0195 10.4982 10.8965 10.5724 10.8027C10.6466 10.7285 10.7248 10.6914 10.8068 10.6914C10.8771 10.6914 10.9338 10.7227 10.9767 10.7852C11.0236 10.8477 11.047 10.9277 11.047 11.0254C11.047 11.1152 11.0236 11.2109 10.9767 11.3125C10.9338 11.4141 10.8615 11.5098 10.7599 11.5996C10.5021 11.8613 10.2326 12.1113 9.95133 12.3496C9.67008 12.584 9.38102 12.7754 9.08414 12.9238C8.79117 13.0723 8.49625 13.1465 8.19938 13.1465ZM10.8302 13.1465C10.5216 13.1465 10.3068 13.0703 10.1857 12.918C10.0646 12.7656 10.0041 12.5781 10.0041 12.3555C10.0041 12.1602 10.0373 11.957 10.1037 11.7461C10.1701 11.5352 10.2443 11.3457 10.3263 11.1777L11.0119 9.77148H10.7599C10.5412 9.77148 10.3908 9.73633 10.3088 9.66602C10.2267 9.5957 10.1857 9.51562 10.1857 9.42578C10.1857 9.33594 10.2365 9.23438 10.338 9.12109C10.4396 9.00391 10.5783 8.94531 10.7541 8.94531H11.3869L12.6232 6.49023C12.7013 6.3418 12.797 6.23633 12.9103 6.17383C13.0275 6.10742 13.1486 6.07422 13.2736 6.07422C13.3908 6.07422 13.4982 6.10547 13.5959 6.16797C13.6935 6.23047 13.7423 6.33398 13.7423 6.47852C13.7423 6.55273 13.7248 6.62891 13.6896 6.70703C13.6584 6.78125 13.6154 6.86914 13.5607 6.9707C13.4982 7.08789 13.4142 7.24609 13.3088 7.44531C13.2033 7.64062 13.0724 7.87695 12.9162 8.1543L12.4943 8.94531H14.4045C14.592 8.94531 14.7443 8.9707 14.8615 9.02148C14.9826 9.06836 15.0431 9.17578 15.0431 9.34375C15.0431 9.42969 15.0119 9.51367 14.9494 9.5957C14.8869 9.67773 14.7521 9.72656 14.5451 9.74219H12.1076L11.6974 10.5625L11.3341 11.3066C11.2873 11.4004 11.2404 11.5098 11.1935 11.6348C11.1505 11.7559 11.1291 11.8633 11.1291 11.957C11.1291 12.0742 11.1838 12.1328 11.2931 12.1328C11.4181 12.1328 11.5861 12.0801 11.797 11.9746C12.008 11.8691 12.2306 11.7402 12.465 11.5879C12.7033 11.4355 12.9318 11.2773 13.1505 11.1133C13.3693 10.9453 13.5705 10.7832 13.7541 10.627C13.8205 10.584 13.8791 10.5625 13.9298 10.5625C14.0158 10.5625 14.0802 10.6094 14.1232 10.7031C14.1662 10.7969 14.1701 10.9102 14.1349 11.043C14.1037 11.1758 14.0119 11.3027 13.8595 11.4238C13.6056 11.6543 13.3478 11.873 13.0861 12.0801C12.8283 12.2832 12.5724 12.4648 12.3185 12.625C12.0607 12.7812 11.8068 12.9062 11.5568 13C11.3068 13.0977 11.0646 13.1465 10.8302 13.1465Z" fill="#3C406B"/>
</svg>
