<svg width="47" height="19" viewBox="0 0 47 19" fill="none" xmlns="http://www.w3.org/2000/svg">
<path d="M6.996 14.168C6.148 14.168 5.468 13.984 4.956 13.616C4.444 13.248 4.072 12.752 3.84 12.128C3.616 11.504 3.504 10.808 3.504 10.04C3.504 9.472 3.552 8.884 3.648 8.276C3.752 7.668 3.912 7.084 4.128 6.524C4.352 5.964 4.64 5.46 4.992 5.012C5.352 4.556 5.788 4.196 6.3 3.932C6.812 3.668 7.408 3.536 8.088 3.536C8.592 3.536 9.024 3.604 9.384 3.74C9.744 3.876 10.04 4.04 10.272 4.232C10.504 4.416 10.672 4.592 10.776 4.76C10.888 4.928 10.944 5.044 10.944 5.108C10.944 5.188 10.876 5.276 10.74 5.372C10.612 5.46 10.496 5.504 10.392 5.504C10.312 5.504 10.224 5.444 10.128 5.324C10.04 5.196 9.92 5.052 9.768 4.892C9.616 4.724 9.404 4.58 9.132 4.46C8.86 4.332 8.5 4.268 8.052 4.268C7.516 4.268 7.048 4.4 6.648 4.664C6.248 4.928 5.908 5.276 5.628 5.708C5.348 6.14 5.12 6.616 4.944 7.136C4.776 7.656 4.652 8.176 4.572 8.696C4.5 9.208 4.464 9.676 4.464 10.1C4.464 10.516 4.512 10.92 4.608 11.312C4.704 11.704 4.856 12.056 5.064 12.368C5.272 12.672 5.54 12.916 5.868 13.1C6.204 13.276 6.608 13.364 7.08 13.364C7.544 13.364 7.976 13.28 8.376 13.112C8.784 12.936 9.148 12.676 9.468 12.332C9.548 12.244 9.632 12.14 9.72 12.02C9.808 11.892 9.904 11.828 10.008 11.828C10.096 11.828 10.18 11.86 10.26 11.924C10.348 11.988 10.392 12.076 10.392 12.188C10.392 12.244 10.364 12.316 10.308 12.404C9.94 12.988 9.468 13.428 8.892 13.724C8.316 14.02 7.684 14.168 6.996 14.168ZM13.3456 5.696C13.3456 5.88 13.3016 6.052 13.2136 6.212C13.1256 6.364 12.9416 6.44 12.6616 6.44C12.4536 6.44 12.3096 6.396 12.2296 6.308C12.1576 6.22 12.1216 6.112 12.1216 5.984C12.1216 5.8 12.1656 5.632 12.2536 5.48C12.3496 5.328 12.5336 5.252 12.8056 5.252C13.0136 5.252 13.1536 5.296 13.2256 5.384C13.3056 5.464 13.3456 5.568 13.3456 5.696ZM11.6056 14.168C11.4936 14.168 11.4096 14.152 11.3536 14.12C11.3056 14.088 11.2816 14.024 11.2816 13.928L11.9656 8.216C11.9816 8.08 12.0376 7.996 12.1336 7.964C12.2376 7.932 12.3576 7.916 12.4936 7.916C12.6056 7.916 12.6936 7.936 12.7576 7.976C12.8296 8.008 12.8656 8.068 12.8656 8.156L12.1696 13.868C12.1536 13.996 12.0896 14.076 11.9776 14.108C11.8656 14.148 11.7416 14.168 11.6056 14.168ZM14.7513 14.168C14.6553 14.168 14.5713 14.092 14.4993 13.94C14.4353 13.788 14.3833 13.592 14.3433 13.352C14.3113 13.104 14.2953 12.84 14.2953 12.56C14.2953 12.392 14.3033 12.204 14.3193 11.996C14.3433 11.788 14.3593 11.628 14.3673 11.516L14.6793 8.888H13.9953C13.8193 8.888 13.7313 8.772 13.7313 8.54C13.7313 8.436 13.7633 8.336 13.8273 8.24C13.8913 8.136 13.9753 8.084 14.0793 8.084H14.7873L15.0033 6.236C15.0193 6.1 15.0993 6 15.2433 5.936C15.3873 5.872 15.5273 5.84 15.6633 5.84C15.7753 5.84 15.8433 5.848 15.8673 5.864C15.8993 5.88 15.9153 5.92 15.9153 5.984L15.6633 8.084H16.7793C16.9633 8.084 17.0553 8.204 17.0553 8.444C17.0553 8.54 17.0193 8.64 16.9473 8.744C16.8833 8.84 16.7993 8.888 16.6953 8.888H15.5553L15.2433 11.516C15.2193 11.708 15.2033 11.88 15.1953 12.032C15.1873 12.184 15.1833 12.324 15.1833 12.452C15.1833 12.844 15.2153 13.14 15.2793 13.34C15.3513 13.54 15.3873 13.704 15.3873 13.832C15.3873 13.936 15.3073 14.016 15.1473 14.072C14.9953 14.136 14.8633 14.168 14.7513 14.168Z" fill="#3C406B"/>
<mask id="path-2-outside-1_91_2" maskUnits="userSpaceOnUse" x="16" y="5" width="28" height="10" fill="black">
<rect fill="white" x="16" y="5" width="28" height="10"/>
<path d="M17.2812 14.1465C17.1445 14.1465 17.0391 14.1055 16.9648 14.0234C16.8906 13.9453 16.8535 13.8457 16.8535 13.7246C16.8535 13.5605 16.9199 13.3438 17.0527 13.0742C17.1816 12.8047 17.3281 12.5059 17.4922 12.1777C17.6562 11.8457 17.8164 11.5254 17.9727 11.2168C18.1328 10.9082 18.2637 10.6504 18.3652 10.4434L20.2988 6.64062C20.3457 6.53906 20.4375 6.44922 20.5742 6.37109C20.7109 6.28906 20.8477 6.24805 20.9844 6.24805C21.1562 6.24805 21.2754 6.28125 21.3418 6.34766C21.4082 6.41016 21.4414 6.48828 21.4414 6.58203C21.4414 6.66797 21.4199 6.75977 21.377 6.85742C21.334 6.95117 21.2852 7.03906 21.2305 7.12109C20.9102 7.67188 20.5918 8.26172 20.2754 8.89062C19.959 9.51953 19.627 10.123 19.2793 10.7012C19.4277 10.5566 19.5879 10.4121 19.7598 10.2676C19.9316 10.1191 20.125 9.99414 20.3398 9.89258C20.5547 9.79102 20.8008 9.74023 21.0781 9.74023C21.3359 9.74023 21.5566 9.79102 21.7402 9.89258C21.9238 9.99414 22.0156 10.1777 22.0156 10.4434C22.0156 10.6934 21.9609 10.9219 21.8516 11.1289C21.7422 11.3359 21.6133 11.5312 21.4648 11.7148C21.3203 11.8945 21.1855 12.0801 21.0605 12.2715C20.9355 12.4629 20.8613 12.6719 20.8379 12.8984V12.9219L20.832 12.9453C20.832 13.0234 20.8574 13.0723 20.9082 13.0918C20.9629 13.1113 21.0312 13.1211 21.1133 13.1211C21.2734 13.1211 21.4453 13.0781 21.6289 12.9922C21.8164 12.9023 22.0039 12.793 22.1914 12.6641C22.375 12.5352 22.5449 12.4023 22.7012 12.2656C22.8613 12.1289 22.9902 12.0137 23.0879 11.9199C23.1543 11.8574 23.2285 11.8262 23.3105 11.8262C23.3809 11.8262 23.4395 11.8535 23.4863 11.9082C23.5371 11.959 23.5625 12.0293 23.5625 12.1191C23.5625 12.2012 23.5332 12.2949 23.4746 12.4004C23.4199 12.5059 23.3242 12.6113 23.1875 12.7168C22.9062 12.959 22.6152 13.1895 22.3145 13.4082C22.0176 13.627 21.7168 13.8047 21.4121 13.9414C21.1113 14.0781 20.8145 14.1465 20.5215 14.1465C20.2441 14.1465 20.0215 14.084 19.8535 13.959C19.6855 13.8301 19.6016 13.6289 19.6016 13.3555C19.6016 13.0859 19.6621 12.8281 19.7832 12.582C19.9082 12.3359 20.0469 12.1074 20.1992 11.8965C20.3555 11.6855 20.4805 11.5 20.5742 11.3398C20.6211 11.2734 20.6562 11.2129 20.6797 11.1582C20.707 11.0996 20.7207 11.0371 20.7207 10.9707C20.7207 10.8379 20.6562 10.7715 20.5273 10.7715C20.2227 10.7715 19.9473 10.8672 19.7012 11.0586C19.459 11.2461 19.2383 11.4785 19.0391 11.7559C18.8438 12.0293 18.6641 12.2949 18.5 12.5527C18.4219 12.6738 18.3398 12.8223 18.2539 12.998C18.168 13.1738 18.0723 13.3535 17.9668 13.5371C17.8691 13.709 17.7617 13.8535 17.6445 13.9707C17.5273 14.0879 17.4062 14.1465 17.2812 14.1465ZM23.791 14.1465C23.6582 14.1465 23.5 14.1094 23.3164 14.0352C23.1328 13.9609 22.9707 13.8379 22.8301 13.666C22.6934 13.4941 22.625 13.2637 22.625 12.9746C22.625 12.7324 22.6797 12.4297 22.7891 12.0664C22.8984 11.7031 23.0703 11.3457 23.3047 10.9941C23.5391 10.6348 23.8379 10.3359 24.2012 10.0977C24.5684 9.85938 24.9922 9.74023 25.4727 9.74023C25.6445 9.74023 25.7949 9.76172 25.9238 9.80469C26.0527 9.84766 26.1621 9.89453 26.252 9.94531C26.3027 9.97656 26.3496 10.0098 26.3926 10.0449C26.4395 10.0762 26.4824 10.1113 26.5215 10.1504L26.7266 10.0508C26.7852 10.0234 26.8457 10 26.9082 9.98047C26.9746 9.95703 27.0312 9.94531 27.0781 9.94531C27.2266 9.94531 27.3477 9.98633 27.4414 10.0684C27.5352 10.1504 27.582 10.2402 27.582 10.3379C27.582 10.3691 27.5801 10.3906 27.5762 10.4023C27.5488 10.5117 27.498 10.6621 27.4238 10.8535C27.3535 11.0449 27.2773 11.2578 27.1953 11.4922C27.1133 11.7188 27.043 11.9375 26.9844 12.1484C26.9297 12.3594 26.9023 12.5332 26.9023 12.6699C26.9023 12.7871 26.9219 12.8848 26.9609 12.9629C27 13.0371 27.0664 13.0742 27.1602 13.0742C27.2734 13.0742 27.4258 13.0098 27.6172 12.8809C27.8086 12.748 28.0059 12.5918 28.209 12.4121C28.3184 12.3145 28.4316 12.2109 28.5488 12.1016C28.666 11.9883 28.7852 11.8691 28.9062 11.7441C28.9688 11.6934 29.0293 11.668 29.0879 11.668C29.166 11.668 29.2305 11.707 29.2812 11.7852C29.3359 11.8594 29.3633 11.9434 29.3633 12.0371C29.3633 12.1465 29.3262 12.2383 29.252 12.3125C29.0957 12.457 28.9355 12.6113 28.7715 12.7754C28.6074 12.9395 28.3809 13.1406 28.0918 13.3789C27.834 13.5898 27.5684 13.7715 27.2949 13.9238C27.0215 14.0723 26.7754 14.1465 26.5566 14.1465C26.2832 14.1465 26.084 14.041 25.959 13.8301C25.834 13.6152 25.7715 13.3867 25.7715 13.1445C25.7715 12.9688 25.7969 12.8125 25.8477 12.6758C25.6875 12.8906 25.498 13.1133 25.2793 13.3438C25.0605 13.5703 24.8242 13.7617 24.5703 13.918C24.3164 14.0703 24.0566 14.1465 23.791 14.1465ZM24.2598 13.1152C24.3848 13.1152 24.541 13.0352 24.7285 12.875C24.9199 12.7148 25.1035 12.5273 25.2793 12.3125C25.4746 12.0781 25.6289 11.8652 25.7422 11.6738C25.8555 11.4824 25.9121 11.3535 25.9121 11.2871C25.9121 11.1387 25.8262 11.0215 25.6543 10.9355C25.4824 10.8457 25.3281 10.8008 25.1914 10.8008C24.9492 10.8008 24.7188 10.8789 24.5 11.0352C24.2852 11.1914 24.1094 11.3926 23.9727 11.6387C23.8359 11.8809 23.7676 12.1328 23.7676 12.3945C23.7676 12.5469 23.7949 12.7051 23.8496 12.8691C23.9082 13.0332 24.0449 13.1152 24.2598 13.1152ZM29.334 14.1465C29.0488 14.1465 28.8125 14.0664 28.625 13.9062C28.4375 13.7422 28.3438 13.4707 28.3438 13.0918C28.3438 12.6113 28.4512 12.1621 28.666 11.7441C28.8809 11.3262 29.1523 10.9688 29.4805 10.6719C29.8047 10.375 30.1465 10.1465 30.5059 9.98633C30.8691 9.82227 31.1934 9.74023 31.4785 9.74023C31.709 9.74023 31.9004 9.77734 32.0527 9.85156C32.1387 9.89844 32.2109 9.95117 32.2695 10.0098L32.3164 9.91016L32.4219 9.66406L32.4863 9.51758C32.4941 9.48633 32.5449 9.36133 32.6387 9.14258C32.7324 8.92383 32.8574 8.62891 33.0137 8.25781C33.1582 7.91406 33.2773 7.62305 33.3711 7.38477C33.4648 7.14258 33.5137 7.01367 33.5176 6.99805C33.5723 6.80273 33.6641 6.62891 33.793 6.47656C33.9219 6.32422 34.0957 6.24805 34.3145 6.24805C34.4629 6.24805 34.5859 6.28125 34.6836 6.34766C34.7812 6.41016 34.8301 6.5332 34.8301 6.7168C34.8301 6.85742 34.7988 7.00781 34.7363 7.16797C34.6738 7.32812 34.6191 7.4707 34.5723 7.5957C34.3848 7.9707 34.1816 8.38672 33.9629 8.84375C33.748 9.30078 33.5332 9.76953 33.3184 10.25C33.1035 10.7305 32.9004 11.1934 32.709 11.6387C32.5176 12.0801 32.3516 12.4707 32.2109 12.8105C32.207 12.8145 32.2051 12.8242 32.2051 12.8398C32.2051 12.8555 32.2031 12.8652 32.1992 12.8691C32.1992 12.9395 32.2168 13.0137 32.252 13.0918C32.2871 13.166 32.3438 13.2031 32.4219 13.2031C32.4453 13.2031 32.4688 13.1992 32.4922 13.1914C32.7812 13.1055 33.0781 12.9551 33.3828 12.7402C33.6875 12.5254 33.9688 12.2949 34.2266 12.0488C34.4883 11.7988 34.6973 11.5801 34.8535 11.3926C34.9082 11.3262 34.9688 11.293 35.0352 11.293C35.0938 11.293 35.1445 11.3203 35.1875 11.375C35.2344 11.4297 35.2578 11.5039 35.2578 11.5977C35.2578 11.6719 35.2363 11.7598 35.1934 11.8613C35.1543 11.9629 35.0879 12.0723 34.9941 12.1895C34.6895 12.5254 34.373 12.8438 34.0449 13.1445C33.7168 13.4414 33.3887 13.6836 33.0605 13.8711C32.7324 14.0547 32.4121 14.1465 32.0996 14.1465C31.8145 14.1465 31.5898 14.0664 31.4258 13.9062C31.2617 13.7422 31.1797 13.498 31.1797 13.1738V13.1094C31.1797 13.082 31.1816 13.0625 31.1855 13.0508C31.0059 13.375 30.7363 13.6387 30.377 13.8418C30.0215 14.0449 29.6738 14.1465 29.334 14.1465ZM29.7676 13.1094C30.0059 13.1094 30.2324 13.0371 30.4473 12.8926C30.6621 12.748 30.8594 12.5625 31.0391 12.3359C31.2188 12.1094 31.375 11.873 31.5078 11.627C31.6445 11.3809 31.7559 11.1562 31.8418 10.9531L31.9238 10.7715L32.0352 10.5195C31.8047 10.5234 31.5586 10.5742 31.2969 10.6719C30.8477 10.8242 30.4551 11.0938 30.1191 11.4805C29.7871 11.8633 29.6035 12.3281 29.5684 12.875C29.5684 13.0312 29.6348 13.1094 29.7676 13.1094ZM35.2285 14.1465C35.0957 14.1465 34.9375 14.1094 34.7539 14.0352C34.5703 13.9609 34.4082 13.8379 34.2676 13.666C34.1309 13.4941 34.0625 13.2637 34.0625 12.9746C34.0625 12.7324 34.1172 12.4297 34.2266 12.0664C34.3359 11.7031 34.5078 11.3457 34.7422 10.9941C34.9766 10.6348 35.2754 10.3359 35.6387 10.0977C36.0059 9.85938 36.4297 9.74023 36.9102 9.74023C37.082 9.74023 37.2324 9.76172 37.3613 9.80469C37.4902 9.84766 37.5996 9.89453 37.6895 9.94531C37.7402 9.97656 37.7871 10.0098 37.8301 10.0449C37.877 10.0762 37.9199 10.1113 37.959 10.1504L38.1641 10.0508C38.2227 10.0234 38.2832 10 38.3457 9.98047C38.4121 9.95703 38.4688 9.94531 38.5156 9.94531C38.6641 9.94531 38.7852 9.98633 38.8789 10.0684C38.9727 10.1504 39.0195 10.2402 39.0195 10.3379C39.0195 10.3691 39.0176 10.3906 39.0137 10.4023C38.9863 10.5117 38.9355 10.6621 38.8613 10.8535C38.791 11.0449 38.7148 11.2578 38.6328 11.4922C38.5508 11.7188 38.4805 11.9375 38.4219 12.1484C38.3672 12.3594 38.3398 12.5332 38.3398 12.6699C38.3398 12.7871 38.3594 12.8848 38.3984 12.9629C38.4375 13.0371 38.5039 13.0742 38.5977 13.0742C38.7109 13.0742 38.8633 13.0098 39.0547 12.8809C39.2461 12.748 39.4434 12.5918 39.6465 12.4121C39.7559 12.3145 39.8691 12.2109 39.9863 12.1016C40.1035 11.9883 40.2227 11.8691 40.3438 11.7441C40.4062 11.6934 40.4668 11.668 40.5254 11.668C40.6035 11.668 40.668 11.707 40.7188 11.7852C40.7734 11.8594 40.8008 11.9434 40.8008 12.0371C40.8008 12.1465 40.7637 12.2383 40.6895 12.3125C40.5332 12.457 40.373 12.6113 40.209 12.7754C40.0449 12.9395 39.8184 13.1406 39.5293 13.3789C39.2715 13.5898 39.0059 13.7715 38.7324 13.9238C38.459 14.0723 38.2129 14.1465 37.9941 14.1465C37.7207 14.1465 37.5215 14.041 37.3965 13.8301C37.2715 13.6152 37.209 13.3867 37.209 13.1445C37.209 12.9688 37.2344 12.8125 37.2852 12.6758C37.125 12.8906 36.9355 13.1133 36.7168 13.3438C36.498 13.5703 36.2617 13.7617 36.0078 13.918C35.7539 14.0703 35.4941 14.1465 35.2285 14.1465ZM35.6973 13.1152C35.8223 13.1152 35.9785 13.0352 36.166 12.875C36.3574 12.7148 36.541 12.5273 36.7168 12.3125C36.9121 12.0781 37.0664 11.8652 37.1797 11.6738C37.293 11.4824 37.3496 11.3535 37.3496 11.2871C37.3496 11.1387 37.2637 11.0215 37.0918 10.9355C36.9199 10.8457 36.7656 10.8008 36.6289 10.8008C36.3867 10.8008 36.1562 10.8789 35.9375 11.0352C35.7227 11.1914 35.5469 11.3926 35.4102 11.6387C35.2734 11.8809 35.2051 12.1328 35.2051 12.3945C35.2051 12.5469 35.2324 12.7051 35.2871 12.8691C35.3457 13.0332 35.4824 13.1152 35.6973 13.1152ZM41.0879 14.1465C40.6777 14.1465 40.3047 14.0547 39.9688 13.8711C39.6328 13.6836 39.418 13.3887 39.3242 12.9863C39.3164 12.9473 39.3125 12.9219 39.3125 12.9102C39.3125 12.8047 39.3496 12.7148 39.4238 12.6406C39.498 12.5625 39.5801 12.5234 39.6699 12.5234C39.7129 12.5234 39.7598 12.5312 39.8105 12.5469C39.8652 12.5625 39.9062 12.5977 39.9336 12.6523C40.0352 12.8359 40.209 12.9844 40.4551 13.0977C40.7051 13.207 40.9492 13.2617 41.1875 13.2617C41.4414 13.2617 41.6621 13.2129 41.8496 13.1152C42.041 13.0176 42.1367 12.8574 42.1367 12.6348C42.1367 12.3613 42.0586 12.1191 41.9023 11.9082C41.75 11.6973 41.5566 11.5078 41.3223 11.3398C41.0918 11.168 40.8594 11.0098 40.625 10.8652C40.6055 10.8535 40.5762 10.8203 40.5371 10.7656C40.498 10.707 40.4785 10.6484 40.4785 10.5898C40.4785 10.543 40.4902 10.5059 40.5137 10.4785C40.6387 10.3105 40.7988 10.1465 40.9941 9.98633C41.1895 9.82617 41.4043 9.74609 41.6387 9.74609C41.8105 9.74609 41.9512 9.78906 42.0605 9.875C42.1738 9.95703 42.2305 10.0391 42.2305 10.1211C42.2305 10.2305 42.1797 10.334 42.0781 10.4316C41.9766 10.5254 41.8711 10.6152 41.7617 10.7012C42.2266 10.9434 42.5957 11.252 42.8691 11.627C43.1426 11.998 43.2793 12.3613 43.2793 12.7168C43.2793 13.0176 43.1699 13.2754 42.9512 13.4902C42.7363 13.7012 42.4609 13.8633 42.125 13.9766C41.793 14.0898 41.4473 14.1465 41.0879 14.1465Z"/>
</mask>
<path d="M17.2812 14.1465C17.1445 14.1465 17.0391 14.1055 16.9648 14.0234C16.8906 13.9453 16.8535 13.8457 16.8535 13.7246C16.8535 13.5605 16.9199 13.3438 17.0527 13.0742C17.1816 12.8047 17.3281 12.5059 17.4922 12.1777C17.6562 11.8457 17.8164 11.5254 17.9727 11.2168C18.1328 10.9082 18.2637 10.6504 18.3652 10.4434L20.2988 6.64062C20.3457 6.53906 20.4375 6.44922 20.5742 6.37109C20.7109 6.28906 20.8477 6.24805 20.9844 6.24805C21.1562 6.24805 21.2754 6.28125 21.3418 6.34766C21.4082 6.41016 21.4414 6.48828 21.4414 6.58203C21.4414 6.66797 21.4199 6.75977 21.377 6.85742C21.334 6.95117 21.2852 7.03906 21.2305 7.12109C20.9102 7.67188 20.5918 8.26172 20.2754 8.89062C19.959 9.51953 19.627 10.123 19.2793 10.7012C19.4277 10.5566 19.5879 10.4121 19.7598 10.2676C19.9316 10.1191 20.125 9.99414 20.3398 9.89258C20.5547 9.79102 20.8008 9.74023 21.0781 9.74023C21.3359 9.74023 21.5566 9.79102 21.7402 9.89258C21.9238 9.99414 22.0156 10.1777 22.0156 10.4434C22.0156 10.6934 21.9609 10.9219 21.8516 11.1289C21.7422 11.3359 21.6133 11.5312 21.4648 11.7148C21.3203 11.8945 21.1855 12.0801 21.0605 12.2715C20.9355 12.4629 20.8613 12.6719 20.8379 12.8984V12.9219L20.832 12.9453C20.832 13.0234 20.8574 13.0723 20.9082 13.0918C20.9629 13.1113 21.0312 13.1211 21.1133 13.1211C21.2734 13.1211 21.4453 13.0781 21.6289 12.9922C21.8164 12.9023 22.0039 12.793 22.1914 12.6641C22.375 12.5352 22.5449 12.4023 22.7012 12.2656C22.8613 12.1289 22.9902 12.0137 23.0879 11.9199C23.1543 11.8574 23.2285 11.8262 23.3105 11.8262C23.3809 11.8262 23.4395 11.8535 23.4863 11.9082C23.5371 11.959 23.5625 12.0293 23.5625 12.1191C23.5625 12.2012 23.5332 12.2949 23.4746 12.4004C23.4199 12.5059 23.3242 12.6113 23.1875 12.7168C22.9062 12.959 22.6152 13.1895 22.3145 13.4082C22.0176 13.627 21.7168 13.8047 21.4121 13.9414C21.1113 14.0781 20.8145 14.1465 20.5215 14.1465C20.2441 14.1465 20.0215 14.084 19.8535 13.959C19.6855 13.8301 19.6016 13.6289 19.6016 13.3555C19.6016 13.0859 19.6621 12.8281 19.7832 12.582C19.9082 12.3359 20.0469 12.1074 20.1992 11.8965C20.3555 11.6855 20.4805 11.5 20.5742 11.3398C20.6211 11.2734 20.6562 11.2129 20.6797 11.1582C20.707 11.0996 20.7207 11.0371 20.7207 10.9707C20.7207 10.8379 20.6562 10.7715 20.5273 10.7715C20.2227 10.7715 19.9473 10.8672 19.7012 11.0586C19.459 11.2461 19.2383 11.4785 19.0391 11.7559C18.8438 12.0293 18.6641 12.2949 18.5 12.5527C18.4219 12.6738 18.3398 12.8223 18.2539 12.998C18.168 13.1738 18.0723 13.3535 17.9668 13.5371C17.8691 13.709 17.7617 13.8535 17.6445 13.9707C17.5273 14.0879 17.4062 14.1465 17.2812 14.1465ZM23.791 14.1465C23.6582 14.1465 23.5 14.1094 23.3164 14.0352C23.1328 13.9609 22.9707 13.8379 22.8301 13.666C22.6934 13.4941 22.625 13.2637 22.625 12.9746C22.625 12.7324 22.6797 12.4297 22.7891 12.0664C22.8984 11.7031 23.0703 11.3457 23.3047 10.9941C23.5391 10.6348 23.8379 10.3359 24.2012 10.0977C24.5684 9.85938 24.9922 9.74023 25.4727 9.74023C25.6445 9.74023 25.7949 9.76172 25.9238 9.80469C26.0527 9.84766 26.1621 9.89453 26.252 9.94531C26.3027 9.97656 26.3496 10.0098 26.3926 10.0449C26.4395 10.0762 26.4824 10.1113 26.5215 10.1504L26.7266 10.0508C26.7852 10.0234 26.8457 10 26.9082 9.98047C26.9746 9.95703 27.0312 9.94531 27.0781 9.94531C27.2266 9.94531 27.3477 9.98633 27.4414 10.0684C27.5352 10.1504 27.582 10.2402 27.582 10.3379C27.582 10.3691 27.5801 10.3906 27.5762 10.4023C27.5488 10.5117 27.498 10.6621 27.4238 10.8535C27.3535 11.0449 27.2773 11.2578 27.1953 11.4922C27.1133 11.7188 27.043 11.9375 26.9844 12.1484C26.9297 12.3594 26.9023 12.5332 26.9023 12.6699C26.9023 12.7871 26.9219 12.8848 26.9609 12.9629C27 13.0371 27.0664 13.0742 27.1602 13.0742C27.2734 13.0742 27.4258 13.0098 27.6172 12.8809C27.8086 12.748 28.0059 12.5918 28.209 12.4121C28.3184 12.3145 28.4316 12.2109 28.5488 12.1016C28.666 11.9883 28.7852 11.8691 28.9062 11.7441C28.9688 11.6934 29.0293 11.668 29.0879 11.668C29.166 11.668 29.2305 11.707 29.2812 11.7852C29.3359 11.8594 29.3633 11.9434 29.3633 12.0371C29.3633 12.1465 29.3262 12.2383 29.252 12.3125C29.0957 12.457 28.9355 12.6113 28.7715 12.7754C28.6074 12.9395 28.3809 13.1406 28.0918 13.3789C27.834 13.5898 27.5684 13.7715 27.2949 13.9238C27.0215 14.0723 26.7754 14.1465 26.5566 14.1465C26.2832 14.1465 26.084 14.041 25.959 13.8301C25.834 13.6152 25.7715 13.3867 25.7715 13.1445C25.7715 12.9688 25.7969 12.8125 25.8477 12.6758C25.6875 12.8906 25.498 13.1133 25.2793 13.3438C25.0605 13.5703 24.8242 13.7617 24.5703 13.918C24.3164 14.0703 24.0566 14.1465 23.791 14.1465ZM24.2598 13.1152C24.3848 13.1152 24.541 13.0352 24.7285 12.875C24.9199 12.7148 25.1035 12.5273 25.2793 12.3125C25.4746 12.0781 25.6289 11.8652 25.7422 11.6738C25.8555 11.4824 25.9121 11.3535 25.9121 11.2871C25.9121 11.1387 25.8262 11.0215 25.6543 10.9355C25.4824 10.8457 25.3281 10.8008 25.1914 10.8008C24.9492 10.8008 24.7188 10.8789 24.5 11.0352C24.2852 11.1914 24.1094 11.3926 23.9727 11.6387C23.8359 11.8809 23.7676 12.1328 23.7676 12.3945C23.7676 12.5469 23.7949 12.7051 23.8496 12.8691C23.9082 13.0332 24.0449 13.1152 24.2598 13.1152ZM29.334 14.1465C29.0488 14.1465 28.8125 14.0664 28.625 13.9062C28.4375 13.7422 28.3438 13.4707 28.3438 13.0918C28.3438 12.6113 28.4512 12.1621 28.666 11.7441C28.8809 11.3262 29.1523 10.9688 29.4805 10.6719C29.8047 10.375 30.1465 10.1465 30.5059 9.98633C30.8691 9.82227 31.1934 9.74023 31.4785 9.74023C31.709 9.74023 31.9004 9.77734 32.0527 9.85156C32.1387 9.89844 32.2109 9.95117 32.2695 10.0098L32.3164 9.91016L32.4219 9.66406L32.4863 9.51758C32.4941 9.48633 32.5449 9.36133 32.6387 9.14258C32.7324 8.92383 32.8574 8.62891 33.0137 8.25781C33.1582 7.91406 33.2773 7.62305 33.3711 7.38477C33.4648 7.14258 33.5137 7.01367 33.5176 6.99805C33.5723 6.80273 33.6641 6.62891 33.793 6.47656C33.9219 6.32422 34.0957 6.24805 34.3145 6.24805C34.4629 6.24805 34.5859 6.28125 34.6836 6.34766C34.7812 6.41016 34.8301 6.5332 34.8301 6.7168C34.8301 6.85742 34.7988 7.00781 34.7363 7.16797C34.6738 7.32812 34.6191 7.4707 34.5723 7.5957C34.3848 7.9707 34.1816 8.38672 33.9629 8.84375C33.748 9.30078 33.5332 9.76953 33.3184 10.25C33.1035 10.7305 32.9004 11.1934 32.709 11.6387C32.5176 12.0801 32.3516 12.4707 32.2109 12.8105C32.207 12.8145 32.2051 12.8242 32.2051 12.8398C32.2051 12.8555 32.2031 12.8652 32.1992 12.8691C32.1992 12.9395 32.2168 13.0137 32.252 13.0918C32.2871 13.166 32.3438 13.2031 32.4219 13.2031C32.4453 13.2031 32.4688 13.1992 32.4922 13.1914C32.7812 13.1055 33.0781 12.9551 33.3828 12.7402C33.6875 12.5254 33.9688 12.2949 34.2266 12.0488C34.4883 11.7988 34.6973 11.5801 34.8535 11.3926C34.9082 11.3262 34.9688 11.293 35.0352 11.293C35.0938 11.293 35.1445 11.3203 35.1875 11.375C35.2344 11.4297 35.2578 11.5039 35.2578 11.5977C35.2578 11.6719 35.2363 11.7598 35.1934 11.8613C35.1543 11.9629 35.0879 12.0723 34.9941 12.1895C34.6895 12.5254 34.373 12.8438 34.0449 13.1445C33.7168 13.4414 33.3887 13.6836 33.0605 13.8711C32.7324 14.0547 32.4121 14.1465 32.0996 14.1465C31.8145 14.1465 31.5898 14.0664 31.4258 13.9062C31.2617 13.7422 31.1797 13.498 31.1797 13.1738V13.1094C31.1797 13.082 31.1816 13.0625 31.1855 13.0508C31.0059 13.375 30.7363 13.6387 30.377 13.8418C30.0215 14.0449 29.6738 14.1465 29.334 14.1465ZM29.7676 13.1094C30.0059 13.1094 30.2324 13.0371 30.4473 12.8926C30.6621 12.748 30.8594 12.5625 31.0391 12.3359C31.2188 12.1094 31.375 11.873 31.5078 11.627C31.6445 11.3809 31.7559 11.1562 31.8418 10.9531L31.9238 10.7715L32.0352 10.5195C31.8047 10.5234 31.5586 10.5742 31.2969 10.6719C30.8477 10.8242 30.4551 11.0938 30.1191 11.4805C29.7871 11.8633 29.6035 12.3281 29.5684 12.875C29.5684 13.0312 29.6348 13.1094 29.7676 13.1094ZM35.2285 14.1465C35.0957 14.1465 34.9375 14.1094 34.7539 14.0352C34.5703 13.9609 34.4082 13.8379 34.2676 13.666C34.1309 13.4941 34.0625 13.2637 34.0625 12.9746C34.0625 12.7324 34.1172 12.4297 34.2266 12.0664C34.3359 11.7031 34.5078 11.3457 34.7422 10.9941C34.9766 10.6348 35.2754 10.3359 35.6387 10.0977C36.0059 9.85938 36.4297 9.74023 36.9102 9.74023C37.082 9.74023 37.2324 9.76172 37.3613 9.80469C37.4902 9.84766 37.5996 9.89453 37.6895 9.94531C37.7402 9.97656 37.7871 10.0098 37.8301 10.0449C37.877 10.0762 37.9199 10.1113 37.959 10.1504L38.1641 10.0508C38.2227 10.0234 38.2832 10 38.3457 9.98047C38.4121 9.95703 38.4688 9.94531 38.5156 9.94531C38.6641 9.94531 38.7852 9.98633 38.8789 10.0684C38.9727 10.1504 39.0195 10.2402 39.0195 10.3379C39.0195 10.3691 39.0176 10.3906 39.0137 10.4023C38.9863 10.5117 38.9355 10.6621 38.8613 10.8535C38.791 11.0449 38.7148 11.2578 38.6328 11.4922C38.5508 11.7188 38.4805 11.9375 38.4219 12.1484C38.3672 12.3594 38.3398 12.5332 38.3398 12.6699C38.3398 12.7871 38.3594 12.8848 38.3984 12.9629C38.4375 13.0371 38.5039 13.0742 38.5977 13.0742C38.7109 13.0742 38.8633 13.0098 39.0547 12.8809C39.2461 12.748 39.4434 12.5918 39.6465 12.4121C39.7559 12.3145 39.8691 12.2109 39.9863 12.1016C40.1035 11.9883 40.2227 11.8691 40.3438 11.7441C40.4062 11.6934 40.4668 11.668 40.5254 11.668C40.6035 11.668 40.668 11.707 40.7188 11.7852C40.7734 11.8594 40.8008 11.9434 40.8008 12.0371C40.8008 12.1465 40.7637 12.2383 40.6895 12.3125C40.5332 12.457 40.373 12.6113 40.209 12.7754C40.0449 12.9395 39.8184 13.1406 39.5293 13.3789C39.2715 13.5898 39.0059 13.7715 38.7324 13.9238C38.459 14.0723 38.2129 14.1465 37.9941 14.1465C37.7207 14.1465 37.5215 14.041 37.3965 13.8301C37.2715 13.6152 37.209 13.3867 37.209 13.1445C37.209 12.9688 37.2344 12.8125 37.2852 12.6758C37.125 12.8906 36.9355 13.1133 36.7168 13.3438C36.498 13.5703 36.2617 13.7617 36.0078 13.918C35.7539 14.0703 35.4941 14.1465 35.2285 14.1465ZM35.6973 13.1152C35.8223 13.1152 35.9785 13.0352 36.166 12.875C36.3574 12.7148 36.541 12.5273 36.7168 12.3125C36.9121 12.0781 37.0664 11.8652 37.1797 11.6738C37.293 11.4824 37.3496 11.3535 37.3496 11.2871C37.3496 11.1387 37.2637 11.0215 37.0918 10.9355C36.9199 10.8457 36.7656 10.8008 36.6289 10.8008C36.3867 10.8008 36.1562 10.8789 35.9375 11.0352C35.7227 11.1914 35.5469 11.3926 35.4102 11.6387C35.2734 11.8809 35.2051 12.1328 35.2051 12.3945C35.2051 12.5469 35.2324 12.7051 35.2871 12.8691C35.3457 13.0332 35.4824 13.1152 35.6973 13.1152ZM41.0879 14.1465C40.6777 14.1465 40.3047 14.0547 39.9688 13.8711C39.6328 13.6836 39.418 13.3887 39.3242 12.9863C39.3164 12.9473 39.3125 12.9219 39.3125 12.9102C39.3125 12.8047 39.3496 12.7148 39.4238 12.6406C39.498 12.5625 39.5801 12.5234 39.6699 12.5234C39.7129 12.5234 39.7598 12.5312 39.8105 12.5469C39.8652 12.5625 39.9062 12.5977 39.9336 12.6523C40.0352 12.8359 40.209 12.9844 40.4551 13.0977C40.7051 13.207 40.9492 13.2617 41.1875 13.2617C41.4414 13.2617 41.6621 13.2129 41.8496 13.1152C42.041 13.0176 42.1367 12.8574 42.1367 12.6348C42.1367 12.3613 42.0586 12.1191 41.9023 11.9082C41.75 11.6973 41.5566 11.5078 41.3223 11.3398C41.0918 11.168 40.8594 11.0098 40.625 10.8652C40.6055 10.8535 40.5762 10.8203 40.5371 10.7656C40.498 10.707 40.4785 10.6484 40.4785 10.5898C40.4785 10.543 40.4902 10.5059 40.5137 10.4785C40.6387 10.3105 40.7988 10.1465 40.9941 9.98633C41.1895 9.82617 41.4043 9.74609 41.6387 9.74609C41.8105 9.74609 41.9512 9.78906 42.0605 9.875C42.1738 9.95703 42.2305 10.0391 42.2305 10.1211C42.2305 10.2305 42.1797 10.334 42.0781 10.4316C41.9766 10.5254 41.8711 10.6152 41.7617 10.7012C42.2266 10.9434 42.5957 11.252 42.8691 11.627C43.1426 11.998 43.2793 12.3613 43.2793 12.7168C43.2793 13.0176 43.1699 13.2754 42.9512 13.4902C42.7363 13.7012 42.4609 13.8633 42.125 13.9766C41.793 14.0898 41.4473 14.1465 41.0879 14.1465Z" fill="#F4C2C2"/>
<path d="M16.9648 14.0234L17.3357 13.6879L17.3273 13.6791L16.9648 14.0234ZM17.0527 13.0742L17.5013 13.2952L17.5038 13.2899L17.0527 13.0742ZM17.4922 12.1777L17.9394 12.4013L17.9405 12.3992L17.4922 12.1777ZM17.9727 11.2168L17.5288 10.9865L17.5266 10.9909L17.9727 11.2168ZM18.3652 10.4434L17.9195 10.2167L17.9163 10.2231L18.3652 10.4434ZM20.2988 6.64062L20.7445 6.86725L20.7488 6.85878L20.7528 6.85015L20.2988 6.64062ZM20.5742 6.37109L20.8223 6.80531L20.8315 6.79984L20.5742 6.37109ZM21.3418 6.34766L20.9882 6.70121L20.9936 6.70657L20.9991 6.71176L21.3418 6.34766ZM21.377 6.85742L21.8315 7.06577L21.8346 7.05879L21.377 6.85742ZM21.2305 7.12109L20.8144 6.84374L20.8059 6.85649L20.7982 6.86973L21.2305 7.12109ZM19.2793 10.7012L18.8508 10.4435L19.6281 11.0594L19.2793 10.7012ZM19.7598 10.2676L20.0816 10.6503L20.0866 10.646L19.7598 10.2676ZM21.4648 11.7148L21.076 11.4005L21.0752 11.4015L21.4648 11.7148ZM20.8379 12.8984L20.3405 12.847L20.3379 12.8726V12.8984H20.8379ZM20.8379 12.9219L21.323 13.0431L21.3379 12.9834V12.9219H20.8379ZM20.832 12.9453L20.347 12.824L20.332 12.8838V12.9453H20.832ZM20.9082 13.0918L20.7287 13.5586L20.74 13.5627L20.9082 13.0918ZM21.6289 12.9922L21.8409 13.4451L21.845 13.4431L21.6289 12.9922ZM22.1914 12.6641L22.4747 13.0761L22.4787 13.0733L22.1914 12.6641ZM22.7012 12.2656L22.3765 11.8853L22.3719 11.8893L22.7012 12.2656ZM23.0879 11.9199L22.7452 11.5558L22.7416 11.5592L23.0879 11.9199ZM23.4863 11.9082L23.1067 12.2336L23.1192 12.2482L23.1328 12.2618L23.4863 11.9082ZM23.4746 12.4004L23.0375 12.1576L23.034 12.1639L23.0307 12.1702L23.4746 12.4004ZM23.1875 12.7168L22.8821 12.3209L22.8714 12.3291L22.8612 12.3379L23.1875 12.7168ZM22.3145 13.4082L22.0204 13.0038L22.0179 13.0057L22.3145 13.4082ZM21.4121 13.9414L21.2074 13.4852L21.2052 13.4862L21.4121 13.9414ZM19.8535 13.959L19.5491 14.3557L19.555 14.3601L19.8535 13.959ZM19.7832 12.582L19.3374 12.3556L19.3346 12.3613L19.7832 12.582ZM20.1992 11.8965L19.7974 11.5988L19.7939 11.6037L20.1992 11.8965ZM20.5742 11.3398L20.1657 11.0515L20.1535 11.0689L20.1427 11.0873L20.5742 11.3398ZM20.6797 11.1582L20.2266 10.9468L20.2232 10.954L20.2201 10.9612L20.6797 11.1582ZM19.7012 11.0586L20.0073 11.454L20.0081 11.4533L19.7012 11.0586ZM19.0391 11.7559L18.633 11.4642L18.6322 11.4652L19.0391 11.7559ZM18.5 12.5527L18.9202 12.8238L18.9218 12.8212L18.5 12.5527ZM17.9668 13.5371L17.5332 13.288L17.5321 13.2901L17.9668 13.5371ZM17.2812 14.1465V13.6465C17.2623 13.6465 17.2651 13.6436 17.2808 13.6497C17.2888 13.6528 17.2985 13.6576 17.3089 13.6647C17.3193 13.6718 17.3283 13.6799 17.3356 13.688L16.9648 14.0234L16.5941 14.3589C16.7848 14.5697 17.0392 14.6465 17.2812 14.6465V14.1465ZM16.9648 14.0234L17.3273 13.6791C17.336 13.6882 17.3446 13.7013 17.3499 13.7156C17.3548 13.7288 17.3535 13.7338 17.3535 13.7246H16.8535H16.3535C16.3535 13.9567 16.4287 14.185 16.6023 14.3678L16.9648 14.0234ZM16.8535 13.7246H17.3535C17.3535 13.6771 17.3786 13.5441 17.5012 13.2952L17.0527 13.0742L16.6042 12.8532C16.4612 13.1434 16.3535 13.444 16.3535 13.7246H16.8535ZM17.0527 13.0742L17.5038 13.2899C17.6312 13.0236 17.7764 12.7274 17.9394 12.4013L17.4922 12.1777L17.045 11.9541C16.8799 12.2843 16.7321 12.5858 16.6017 12.8585L17.0527 13.0742ZM17.4922 12.1777L17.9405 12.3992C18.1038 12.0686 18.2633 11.7497 18.4187 11.4427L17.9727 11.2168L17.5266 10.9909C17.3695 11.3011 17.2087 11.6229 17.0439 11.9562L17.4922 12.1777ZM17.9727 11.2168L18.4164 11.4471C18.5776 11.1367 18.7103 10.8752 18.8141 10.6636L18.3652 10.4434L17.9163 10.2231C17.817 10.4256 17.6881 10.6797 17.5289 10.9865L17.9727 11.2168ZM18.3652 10.4434L18.8109 10.67L20.7445 6.86725L20.2988 6.64062L19.8531 6.414L17.9195 10.2167L18.3652 10.4434ZM20.2988 6.64062L20.7528 6.85015C20.7416 6.87453 20.7402 6.8521 20.8223 6.80522L20.5742 6.37109L20.3261 5.93697C20.1348 6.04634 19.9498 6.2036 19.8448 6.4311L20.2988 6.64062ZM20.5742 6.37109L20.8315 6.79984C20.9036 6.75658 20.9524 6.74805 20.9844 6.74805V6.24805V5.74805C20.7429 5.74805 20.5183 5.82154 20.317 5.94235L20.5742 6.37109ZM20.9844 6.24805V6.74805C21.0116 6.74805 21.032 6.74938 21.0467 6.75105C21.0539 6.75187 21.0593 6.75273 21.063 6.75343C21.0667 6.75413 21.0684 6.7546 21.0684 6.75459C21.0684 6.75459 21.0663 6.754 21.0625 6.75251C21.0587 6.75102 21.0529 6.74851 21.0456 6.74461C21.0309 6.73671 21.0101 6.72307 20.9882 6.70121L21.3418 6.34766L21.6954 5.9941C21.4826 5.78138 21.1891 5.74805 20.9844 5.74805V6.24805ZM21.3418 6.34766L20.9991 6.71176C20.9857 6.69914 20.9688 6.67796 20.9563 6.6487C20.944 6.61974 20.9414 6.59532 20.9414 6.58203H21.4414H21.9414C21.9414 6.35479 21.8544 6.1435 21.6845 5.98356L21.3418 6.34766ZM21.4414 6.58203H20.9414C20.9414 6.58404 20.9409 6.60697 20.9193 6.65605L21.377 6.85742L21.8346 7.05879C21.899 6.91256 21.9414 6.7519 21.9414 6.58203H21.4414ZM21.377 6.85742L20.9224 6.64909C20.8899 6.71995 20.8538 6.78465 20.8144 6.84374L21.2305 7.12109L21.6465 7.39844C21.7165 7.29348 21.778 7.18239 21.8315 7.06575L21.377 6.85742ZM21.2305 7.12109L20.7982 6.86973C20.4724 7.4301 20.1492 8.0289 19.8287 8.66591L20.2754 8.89062L20.722 9.11534C21.0344 8.49454 21.348 7.91365 21.6627 7.37246L21.2305 7.12109ZM20.2754 8.89062L19.8287 8.66591C19.5177 9.28409 19.1917 9.87658 18.8508 10.4435L19.2793 10.7012L19.7078 10.9588C20.0622 10.3695 20.4002 9.75497 20.722 9.11534L20.2754 8.89062ZM19.2793 10.7012L19.6281 11.0594C19.7672 10.924 19.9182 10.7876 20.0816 10.6503L19.7598 10.2676L19.438 9.8849C19.2576 10.0366 19.0883 10.1893 18.9305 10.3429L19.2793 10.7012ZM19.7598 10.2676L20.0866 10.646C20.2227 10.5284 20.3777 10.4278 20.5535 10.3446L20.3398 9.89258L20.1262 9.44054C19.8723 9.56052 19.6406 9.70984 19.433 9.88917L19.7598 10.2676ZM20.3398 9.89258L20.5535 10.3446C20.6913 10.2795 20.8624 10.2402 21.0781 10.2402V9.74023V9.24023C20.7392 9.24023 20.4181 9.30254 20.1262 9.44054L20.3398 9.89258ZM21.0781 9.74023V10.2402C21.2704 10.2402 21.4038 10.2779 21.4982 10.3301L21.7402 9.89258L21.9823 9.45506C21.7094 9.30414 21.4014 9.24023 21.0781 9.24023V9.74023ZM21.7402 9.89258L21.4982 10.3301C21.5032 10.3328 21.5031 10.3336 21.5011 10.3315C21.4989 10.3293 21.4985 10.328 21.4996 10.3301C21.5021 10.3351 21.5156 10.3661 21.5156 10.4434H22.0156H22.5156C22.5156 10.0524 22.3691 9.66903 21.9823 9.45506L21.7402 9.89258ZM22.0156 10.4434H21.5156C21.5156 10.6176 21.4783 10.7651 21.4095 10.8953L21.8516 11.1289L22.2937 11.3625C22.4436 11.0786 22.5156 10.7691 22.5156 10.4434H22.0156ZM21.8516 11.1289L21.4095 10.8953C21.3153 11.0735 21.2043 11.2418 21.076 11.4005L21.4648 11.7148L21.8537 12.0292C22.0223 11.8207 22.1691 11.5983 22.2937 11.3625L21.8516 11.1289ZM21.4648 11.7148L21.0752 11.4015C20.9205 11.5939 20.776 11.7928 20.6419 11.9981L21.0605 12.2715L21.4792 12.5449C21.5951 12.3674 21.7202 12.1952 21.8545 12.0282L21.4648 11.7148ZM21.0605 12.2715L20.6419 11.9981C20.4735 12.2559 20.3722 12.5409 20.3405 12.847L20.8379 12.8984L21.3352 12.9499C21.3505 12.8028 21.3975 12.6699 21.4792 12.5449L21.0605 12.2715ZM20.8379 12.8984H20.3379V12.9219H20.8379H21.3379V12.8984H20.8379ZM20.8379 12.9219L20.3528 12.8006L20.347 12.824L20.832 12.9453L21.3171 13.0666L21.323 13.0431L20.8379 12.9219ZM20.832 12.9453H20.332C20.332 13.0331 20.3455 13.152 20.4075 13.2712C20.4757 13.4025 20.588 13.5043 20.7287 13.5585L20.9082 13.0918L21.0877 12.6251C21.1776 12.6597 21.2518 12.7274 21.2947 12.8099C21.3313 12.8802 21.332 12.9357 21.332 12.9453H20.832ZM20.9082 13.0918L20.74 13.5627C20.8659 13.6076 20.9957 13.6211 21.1133 13.6211V13.1211V12.6211C21.0917 12.6211 21.0781 12.6198 21.0712 12.6188C21.0642 12.6178 21.0669 12.6175 21.0764 12.6209L20.9082 13.0918ZM21.1133 13.1211V13.6211C21.3635 13.6211 21.608 13.554 21.8409 13.445L21.6289 12.9922L21.4169 12.5393C21.2826 12.6022 21.1834 12.6211 21.1133 12.6211V13.1211ZM21.6289 12.9922L21.845 13.4431C22.0579 13.3411 22.2678 13.2183 22.4747 13.0761L22.1914 12.6641L21.9081 12.252C21.74 12.3676 21.5749 12.4636 21.4128 12.5413L21.6289 12.9922ZM22.1914 12.6641L22.4787 13.0733C22.6757 12.935 22.8598 12.7912 23.0304 12.6419L22.7012 12.2656L22.3719 11.8893C22.2301 12.0135 22.0743 12.1354 21.9041 12.2549L22.1914 12.6641ZM22.7012 12.2656L23.0258 12.6459C23.1898 12.5059 23.3268 12.3837 23.4342 12.2806L23.0879 11.9199L22.7416 11.5592C22.6537 11.6436 22.5329 11.7519 22.3765 11.8853L22.7012 12.2656ZM23.0879 11.9199L23.4306 12.284C23.4261 12.2883 23.412 12.3001 23.3874 12.3104C23.3619 12.3212 23.3349 12.3262 23.3105 12.3262V11.8262V11.3262C23.0865 11.3262 22.8931 11.4166 22.7452 11.5558L23.0879 11.9199ZM23.3105 11.8262V12.3262C23.2791 12.3262 23.2383 12.3196 23.1958 12.2998C23.1536 12.2801 23.1243 12.2541 23.1067 12.2336L23.4863 11.9082L23.866 11.5828C23.7268 11.4204 23.5309 11.3262 23.3105 11.3262V11.8262ZM23.4863 11.9082L23.1328 12.2618C23.1041 12.2331 23.0844 12.1999 23.0732 12.1688C23.0627 12.1398 23.0625 12.1208 23.0625 12.1191H23.5625H24.0625C24.0625 11.9318 24.0067 11.7214 23.8399 11.5546L23.4863 11.9082ZM23.5625 12.1191H23.0625C23.0625 12.1008 23.0657 12.094 23.0633 12.1018C23.0608 12.1098 23.0539 12.1281 23.0375 12.1576L23.4746 12.4004L23.9117 12.6432C23.9935 12.496 24.0625 12.3169 24.0625 12.1191H23.5625ZM23.4746 12.4004L23.0307 12.1702C23.0212 12.1886 22.9853 12.2413 22.8821 12.3209L23.1875 12.7168L23.4929 13.1127C23.6632 12.9813 23.8186 12.8232 23.9185 12.6305L23.4746 12.4004ZM23.1875 12.7168L22.8612 12.3379C22.5904 12.5712 22.3101 12.7931 22.0204 13.0038L22.3145 13.4082L22.6085 13.8126C22.9204 13.5858 23.2221 13.3468 23.5138 13.0957L23.1875 12.7168ZM22.3145 13.4082L22.0179 13.0057C21.7467 13.2055 21.4765 13.3645 21.2074 13.4852L21.4121 13.9414L21.6168 14.3976C21.9571 14.2449 22.2885 14.0484 22.6111 13.8107L22.3145 13.4082ZM21.4121 13.9414L21.2052 13.4862C20.9611 13.5972 20.7345 13.6465 20.5215 13.6465V14.1465V14.6465C20.8944 14.6465 21.2616 14.5591 21.619 14.3966L21.4121 13.9414ZM20.5215 14.1465V13.6465C20.317 13.6465 20.2095 13.6006 20.152 13.5579L19.8535 13.959L19.555 14.3601C19.8335 14.5673 20.1713 14.6465 20.5215 14.6465V14.1465ZM19.8535 13.959L20.1579 13.5623C20.1478 13.5546 20.1016 13.523 20.1016 13.3555H19.6016H19.1016C19.1016 13.7349 19.2233 14.1056 19.5491 14.3556L19.8535 13.959ZM19.6016 13.3555H20.1016C20.1016 13.1639 20.1439 12.9814 20.2318 12.8028L19.7832 12.582L19.3346 12.3613C19.1803 12.6748 19.1016 13.008 19.1016 13.3555H19.6016ZM19.7832 12.582L20.229 12.8085C20.343 12.5841 20.4683 12.3779 20.6046 12.1892L20.1992 11.8965L19.7939 11.6037C19.6255 11.8369 19.4735 12.0878 19.3374 12.3556L19.7832 12.582ZM20.1992 11.8965L20.601 12.1941C20.764 11.9741 20.9 11.773 21.0057 11.5924L20.5742 11.3398L20.1427 11.0873C20.0609 11.227 19.947 11.397 19.7974 11.5989L20.1992 11.8965ZM20.5742 11.3398L20.9827 11.6282C21.043 11.5428 21.0981 11.4513 21.1393 11.3552L20.6797 11.1582L20.2201 10.9612C20.2144 10.9745 20.1992 11.0041 20.1657 11.0515L20.5742 11.3398ZM20.6797 11.1582L21.1328 11.3696C21.1919 11.243 21.2207 11.1081 21.2207 10.9707H20.7207H20.2207C20.2207 10.9693 20.2209 10.9657 20.222 10.9605C20.2231 10.9553 20.2248 10.9506 20.2266 10.9468L20.6797 11.1582ZM20.7207 10.9707H21.2207C21.2207 10.8309 21.1869 10.6335 21.0312 10.4731C20.8727 10.3098 20.6727 10.2715 20.5273 10.2715V10.7715V11.2715C20.5109 11.2715 20.4076 11.2664 20.3136 11.1695C20.2223 11.0754 20.2207 10.9777 20.2207 10.9707H20.7207ZM20.5273 10.7715V10.2715C20.1087 10.2715 19.7259 10.406 19.3942 10.6639L19.7012 11.0586L20.0081 11.4533C20.1687 11.3284 20.3366 11.2715 20.5273 11.2715V10.7715ZM19.7012 11.0586L19.3951 10.6632C19.1106 10.8835 18.8572 11.1521 18.633 11.4642L19.0391 11.7559L19.4452 12.0476C19.6194 11.805 19.8073 11.6087 20.0073 11.454L19.7012 11.0586ZM19.0391 11.7559L18.6322 11.4652C18.4322 11.7452 18.2475 12.0183 18.0782 12.2843L18.5 12.5527L18.9218 12.8212C19.0807 12.5716 19.2553 12.3134 19.4459 12.0465L19.0391 11.7559ZM18.5 12.5527L18.0799 12.2817C17.988 12.424 17.8965 12.5907 17.8047 12.7784L18.2539 12.998L18.7031 13.2177C18.7832 13.0538 18.8557 12.9237 18.9201 12.8238L18.5 12.5527ZM18.2539 12.998L17.8047 12.7784C17.724 12.9435 17.6336 13.1133 17.5332 13.288L17.9668 13.5371L18.4003 13.7862C18.5109 13.5937 18.6119 13.4042 18.7031 13.2177L18.2539 12.998ZM17.9668 13.5371L17.5321 13.2901C17.4524 13.4302 17.371 13.5371 17.291 13.6171L17.6445 13.9707L17.9981 14.3243C18.1524 14.1699 18.2858 13.9877 18.4015 13.7841L17.9668 13.5371ZM17.6445 13.9707L17.291 13.6171C17.2773 13.6308 17.2666 13.6397 17.2591 13.6452C17.2517 13.6507 17.2479 13.6525 17.248 13.6525C17.2483 13.6523 17.2519 13.6507 17.2585 13.6491C17.2652 13.6475 17.273 13.6465 17.2812 13.6465V14.1465V14.6465C17.5777 14.6465 17.8188 14.5036 17.9981 14.3243L17.6445 13.9707ZM22.8301 13.666L22.4387 13.9773L22.4431 13.9826L22.8301 13.666ZM23.3047 10.9941L23.7207 11.2715L23.7235 11.2673L23.3047 10.9941ZM24.2012 10.0977L23.929 9.67823L23.9269 9.67957L24.2012 10.0977ZM26.252 9.94531L26.514 9.51948L26.5061 9.51461L26.498 9.51003L26.252 9.94531ZM26.3926 10.0449L26.076 10.4319L26.0949 10.4474L26.1152 10.4609L26.3926 10.0449ZM26.5215 10.1504L26.1679 10.5039L26.4197 10.7557L26.7399 10.6001L26.5215 10.1504ZM26.7266 10.0508L26.5151 9.59764L26.5081 9.60103L26.7266 10.0508ZM26.9082 9.98047L27.0573 10.4577L27.066 10.455L27.0746 10.452L26.9082 9.98047ZM27.5762 10.4023L27.1018 10.2442L27.0958 10.2624L27.0911 10.2811L27.5762 10.4023ZM27.4238 10.8535L26.9576 10.6727L26.9545 10.6811L27.4238 10.8535ZM27.1953 11.4922L27.6655 11.6624L27.6672 11.6574L27.1953 11.4922ZM26.9844 12.1484L26.5025 12.0146L26.5004 12.023L26.9844 12.1484ZM26.9609 12.9629L26.5136 13.1865L26.5185 13.1958L26.9609 12.9629ZM27.6172 12.8809L27.8965 13.2956L27.9022 13.2917L27.6172 12.8809ZM28.209 12.4121L28.5403 12.7866L28.542 12.7851L28.209 12.4121ZM28.5488 12.1016L28.89 12.4671L28.8963 12.4611L28.5488 12.1016ZM28.9062 11.7441L28.591 11.3561L28.5678 11.3749L28.5471 11.3962L28.9062 11.7441ZM29.2812 11.7852L28.862 12.0577L28.87 12.0699L28.8787 12.0818L29.2812 11.7852ZM29.252 12.3125L29.5915 12.6795L29.5986 12.6729L29.6055 12.6661L29.252 12.3125ZM28.0918 13.3789L28.4084 13.7659L28.4098 13.7647L28.0918 13.3789ZM27.2949 13.9238L27.5335 14.3633L27.5383 14.3606L27.2949 13.9238ZM25.959 13.8301L25.5268 14.0815L25.5288 14.085L25.959 13.8301ZM25.8477 12.6758L26.3164 12.8499L25.4468 12.3769L25.8477 12.6758ZM25.2793 13.3438L25.639 13.6911L25.642 13.688L25.2793 13.3438ZM24.5703 13.918L24.8276 14.3467L24.8324 14.3438L24.5703 13.918ZM24.7285 12.875L24.4076 12.4915L24.4038 12.4948L24.7285 12.875ZM25.2793 12.3125L24.8952 11.9924L24.8923 11.9959L25.2793 12.3125ZM25.6543 10.9355L25.4226 11.3787L25.4307 11.3828L25.6543 10.9355ZM24.5 11.0352L24.2094 10.6283L24.2059 10.6308L24.5 11.0352ZM23.9727 11.6387L24.4081 11.8845L24.4097 11.8815L23.9727 11.6387ZM23.8496 12.8691L23.3752 13.0273L23.3787 13.0373L23.8496 12.8691ZM23.791 14.1465V13.6465C23.7459 13.6465 23.6543 13.6325 23.5038 13.5716L23.3164 14.0352L23.129 14.4987C23.3457 14.5863 23.5705 14.6465 23.791 14.6465V14.1465ZM23.3164 14.0352L23.5038 13.5716C23.4071 13.5325 23.3111 13.4643 23.2171 13.3494L22.8301 13.666L22.4431 13.9826C22.6303 14.2114 22.8585 14.3894 23.129 14.4987L23.3164 14.0352ZM22.8301 13.666L23.2214 13.3548C23.1745 13.2959 23.125 13.1865 23.125 12.9746H22.625H22.125C22.125 13.3408 22.2122 13.6924 22.4388 13.9773L22.8301 13.666ZM22.625 12.9746H23.125C23.125 12.8007 23.1655 12.5504 23.2678 12.2106L22.7891 12.0664L22.3103 11.9223C22.1938 12.309 22.125 12.6641 22.125 12.9746H22.625ZM22.7891 12.0664L23.2678 12.2106C23.3615 11.8996 23.5106 11.5866 23.7207 11.2715L23.3047 10.9941L22.8887 10.7168C22.63 11.1048 22.4354 11.5067 22.3103 11.9223L22.7891 12.0664ZM23.3047 10.9941L23.7235 11.2673C23.9197 10.9664 24.169 10.7167 24.4754 10.5157L24.2012 10.0977L23.9269 9.67957C23.5067 9.95519 23.1584 10.3031 22.8859 10.721L23.3047 10.9941ZM24.2012 10.0977L24.4734 10.5171C24.7517 10.3365 25.079 10.2402 25.4727 10.2402V9.74023V9.24023C24.9054 9.24023 24.3851 9.38227 23.929 9.67823L24.2012 10.0977ZM25.4727 9.74023V10.2402C25.6044 10.2402 25.6992 10.2569 25.7657 10.279L25.9238 9.80469L26.0819 9.33035C25.8906 9.26657 25.6847 9.24023 25.4727 9.24023V9.74023ZM25.9238 9.80469L25.7657 10.279C25.8731 10.3148 25.9512 10.3497 26.0059 10.3806L26.252 9.94531L26.498 9.51003C26.373 9.43938 26.2324 9.38049 26.0819 9.33035L25.9238 9.80469ZM26.252 9.94531L25.9899 10.3711C26.023 10.3915 26.0515 10.4119 26.076 10.4319L26.3926 10.0449L26.7092 9.65794C26.6477 9.60764 26.5824 9.5616 26.514 9.51948L26.252 9.94531ZM26.3926 10.0449L26.1152 10.4609C26.1353 10.4743 26.1526 10.4886 26.1679 10.5039L26.5215 10.1504L26.875 9.79684C26.8122 9.73403 26.7437 9.67805 26.6699 9.6289L26.3926 10.0449ZM26.5215 10.1504L26.7399 10.6001L26.945 10.5005L26.7266 10.0508L26.5081 9.60103L26.303 9.70064L26.5215 10.1504ZM26.7266 10.0508L26.938 10.5039C26.9761 10.4861 27.0159 10.4707 27.0573 10.4577L26.9082 9.98047L26.7591 9.50323C26.6756 9.52933 26.5942 9.5608 26.5151 9.59769L26.7266 10.0508ZM26.9082 9.98047L27.0746 10.452C27.0909 10.4462 27.0997 10.4442 27.1018 10.4437C27.1027 10.4436 27.1011 10.4439 27.0974 10.4443C27.0937 10.4448 27.0871 10.4453 27.0781 10.4453V9.94531V9.44531C26.9537 9.44531 26.8375 9.47518 26.7418 9.50897L26.9082 9.98047ZM27.0781 9.94531V10.4453C27.1064 10.4453 27.1186 10.4492 27.1199 10.4496C27.1206 10.4499 27.1195 10.4496 27.1175 10.4484C27.1154 10.4472 27.1135 10.4458 27.1122 10.4446L27.4414 10.0684L27.7707 9.69207C27.5689 9.51556 27.3233 9.44531 27.0781 9.44531V9.94531ZM27.4414 10.0684L27.1122 10.4446C27.1227 10.4539 27.1146 10.4496 27.1036 10.4285C27.0912 10.4049 27.082 10.3727 27.082 10.3379H27.582H28.082C28.082 10.0583 27.9409 9.84099 27.7707 9.69207L27.4414 10.0684ZM27.582 10.3379H27.082C27.082 10.3445 27.0818 10.3415 27.0826 10.3322C27.0831 10.3272 27.0841 10.3177 27.0863 10.3048C27.0885 10.2929 27.0928 10.2712 27.1018 10.2442L27.5762 10.4023L28.0505 10.5605C28.0832 10.4625 28.082 10.3652 28.082 10.3379H27.582ZM27.5762 10.4023L27.0911 10.2811C27.0713 10.3602 27.0294 10.4878 26.9576 10.6728L27.4238 10.8535L27.89 11.0343C27.9667 10.8364 28.0263 10.6633 28.0612 10.5236L27.5762 10.4023ZM27.4238 10.8535L26.9545 10.6811C26.8831 10.8754 26.8061 11.0907 26.7234 11.327L27.1953 11.4922L27.6672 11.6574C27.7486 11.4249 27.8239 11.2145 27.8932 11.0259L27.4238 10.8535ZM27.1953 11.4922L26.7252 11.322C26.6392 11.5593 26.5649 11.7903 26.5026 12.0146L26.9844 12.1484L27.4661 12.2823C27.521 12.0847 27.5873 11.8782 27.6654 11.6624L27.1953 11.4922ZM26.9844 12.1484L26.5004 12.023C26.4405 12.2537 26.4023 12.4735 26.4023 12.6699H26.9023H27.4023C27.4023 12.5929 27.4188 12.465 27.4684 12.2739L26.9844 12.1484ZM26.9023 12.6699H26.4023C26.4023 12.8394 26.4302 13.0194 26.5137 13.1865L26.9609 12.9629L27.4082 12.7393C27.4136 12.7501 27.4023 12.7348 27.4023 12.6699H26.9023ZM26.9609 12.9629L26.5185 13.1958C26.5783 13.3094 26.6699 13.4123 26.7961 13.4829C26.9193 13.5517 27.0475 13.5742 27.1602 13.5742V13.0742V12.5742C27.179 12.5742 27.2272 12.5782 27.2839 12.6099C27.3438 12.6434 27.3826 12.6906 27.4034 12.73L26.9609 12.9629ZM27.1602 13.0742V13.5742C27.4329 13.5742 27.6927 13.4328 27.8965 13.2956L27.6172 12.8809L27.3379 12.4661C27.2592 12.5191 27.2022 12.5495 27.1646 12.5654C27.124 12.5825 27.1265 12.5742 27.1602 12.5742V13.0742ZM27.6172 12.8809L27.9022 13.2917C28.1121 13.146 28.3248 12.9772 28.5403 12.7866L28.209 12.4121L27.8777 12.0376C27.6869 12.2064 27.5051 12.3501 27.3321 12.4701L27.6172 12.8809ZM28.209 12.4121L28.542 12.7851C28.6544 12.6848 28.7704 12.5787 28.89 12.4671L28.5488 12.1016L28.2077 11.736C28.0929 11.8431 27.9824 11.9441 27.876 12.0391L28.209 12.4121ZM28.5488 12.1016L28.8963 12.4611C29.0177 12.3437 29.1407 12.2207 29.2654 12.092L28.9062 11.7441L28.5471 11.3962C28.4296 11.5176 28.3143 11.6328 28.2013 11.7421L28.5488 12.1016ZM28.9062 11.7441L29.2215 12.1322C29.228 12.1269 29.1806 12.168 29.0879 12.168V11.668V11.168C28.878 11.168 28.7095 11.2598 28.591 11.3561L28.9062 11.7441ZM29.0879 11.668V12.168C29.0391 12.168 28.9845 12.1545 28.9357 12.1249C28.8902 12.0973 28.8682 12.0671 28.862 12.0577L29.2812 11.7852L29.7005 11.5127C29.578 11.3243 29.3698 11.168 29.0879 11.168V11.668ZM29.2812 11.7852L28.8787 12.0818C28.8757 12.0777 28.8709 12.0697 28.8673 12.0586C28.8638 12.0476 28.8633 12.0396 28.8633 12.0371H29.3633H29.8633C29.8633 11.8386 29.8029 11.6503 29.6838 11.4886L29.2812 11.7852ZM29.3633 12.0371H28.8633C28.8633 12.0343 28.864 12.0202 28.8719 12.0006C28.88 11.9806 28.891 11.9664 28.8984 11.9589L29.252 12.3125L29.6055 12.6661C29.7778 12.4938 29.8633 12.2729 29.8633 12.0371H29.3633ZM29.252 12.3125L28.9124 11.9455C28.751 12.0948 28.5862 12.2536 28.4179 12.4218L28.7715 12.7754L29.125 13.1289C29.2849 12.9691 29.4404 12.8193 29.5915 12.6795L29.252 12.3125ZM28.7715 12.7754L28.4179 12.4218C28.2699 12.5699 28.057 12.7596 27.7738 12.9931L28.0918 13.3789L28.4098 13.7647C28.7047 13.5216 28.945 13.309 29.125 13.1289L28.7715 12.7754ZM28.0918 13.3789L27.7752 12.9919C27.5388 13.1853 27.2976 13.35 27.0516 13.487L27.2949 13.9238L27.5383 14.3606C27.8392 14.193 28.1292 13.9944 28.4084 13.7659L28.0918 13.3789ZM27.2949 13.9238L27.0564 13.4844C26.8271 13.6089 26.6643 13.6465 26.5566 13.6465V14.1465V14.6465C26.8865 14.6465 27.2159 14.5357 27.5335 14.3633L27.2949 13.9238ZM26.5566 14.1465V13.6465C26.4354 13.6465 26.4123 13.6143 26.3891 13.5752L25.959 13.8301L25.5288 14.085C25.7557 14.4678 26.131 14.6465 26.5566 14.6465V14.1465ZM25.959 13.8301L26.3912 13.5786C26.3094 13.438 26.2715 13.296 26.2715 13.1445H25.7715H25.2715C25.2715 13.4775 25.3586 13.7924 25.5268 14.0815L25.959 13.8301ZM25.7715 13.1445H26.2715C26.2715 13.0163 26.29 12.9208 26.3164 12.8499L25.8477 12.6758L25.3789 12.5017C25.3037 12.7042 25.2715 12.9212 25.2715 13.1445H25.7715ZM25.8477 12.6758L25.4468 12.3769C25.3004 12.5733 25.1242 12.7809 24.9166 12.9995L25.2793 13.3438L25.642 13.688C25.8719 13.4457 26.0746 13.2079 26.2485 12.9746L25.8477 12.6758ZM25.2793 13.3438L24.9196 12.9965C24.7283 13.1945 24.5245 13.3591 24.3083 13.4921L24.5703 13.918L24.8324 14.3438C25.1239 14.1644 25.3928 13.9461 25.639 13.691L25.2793 13.3438ZM24.5703 13.918L24.3131 13.4892C24.1277 13.6004 23.9559 13.6465 23.791 13.6465V14.1465V14.6465C24.1574 14.6465 24.5051 14.5402 24.8276 14.3467L24.5703 13.918ZM24.2598 13.1152V13.6152C24.5751 13.6152 24.8505 13.4283 25.0533 13.2552L24.7285 12.875L24.4038 12.4948C24.3287 12.5589 24.2754 12.5935 24.2427 12.6102C24.2083 12.6278 24.2175 12.6152 24.2598 12.6152V13.1152ZM24.7285 12.875L25.0494 13.2585C25.2674 13.0761 25.4728 12.8656 25.6663 12.6291L25.2793 12.3125L24.8923 11.9959C24.7342 12.1891 24.5725 12.3536 24.4077 12.4915L24.7285 12.875ZM25.2793 12.3125L25.6634 12.6326C25.87 12.3847 26.0416 12.1496 26.1725 11.9285L25.7422 11.6738L25.3119 11.4192C25.2162 11.5809 25.0792 11.7716 24.8952 11.9924L25.2793 12.3125ZM25.7422 11.6738L26.1725 11.9285C26.2342 11.8242 26.2878 11.7249 26.3274 11.6347C26.3593 11.5622 26.4121 11.4316 26.4121 11.2871H25.9121H25.4121C25.4121 11.2608 25.4148 11.241 25.4167 11.2299C25.4187 11.2184 25.4207 11.2112 25.4213 11.2094C25.4221 11.2064 25.4203 11.2133 25.4119 11.2325C25.3949 11.2712 25.3634 11.3321 25.3119 11.4192L25.7422 11.6738ZM25.9121 11.2871H26.4121C26.4121 10.8913 26.1602 10.6295 25.8779 10.4883L25.6543 10.9355L25.4307 11.3828C25.4676 11.4012 25.4611 11.4063 25.4445 11.3836C25.4357 11.3716 25.4266 11.3552 25.4203 11.3356C25.4139 11.316 25.4121 11.2989 25.4121 11.2871H25.9121ZM25.6543 10.9355L25.8859 10.4924C25.6706 10.3799 25.4354 10.3008 25.1914 10.3008V10.8008V11.3008C25.2208 11.3008 25.2942 11.3115 25.4227 11.3787L25.6543 10.9355ZM25.1914 10.8008V10.3008C24.8336 10.3008 24.5032 10.4184 24.2094 10.6283L24.5 11.0352L24.7906 11.442C24.9343 11.3394 25.0648 11.3008 25.1914 11.3008V10.8008ZM24.5 11.0352L24.2059 10.6308C23.9287 10.8324 23.7055 11.09 23.5356 11.3959L23.9727 11.6387L24.4097 11.8815C24.5133 11.6951 24.6416 11.5504 24.7941 11.4395L24.5 11.0352ZM23.9727 11.6387L23.5372 11.3929C23.3609 11.7052 23.2676 12.0413 23.2676 12.3945H23.7676H24.2676C24.2676 12.2244 24.3109 12.0565 24.4081 11.8845L23.9727 11.6387ZM23.7676 12.3945H23.2676C23.2676 12.6073 23.3058 12.819 23.3753 13.0273L23.8496 12.8691L24.324 12.711C24.284 12.5912 24.2676 12.4864 24.2676 12.3945H23.7676ZM23.8496 12.8691L23.3787 13.0373C23.4431 13.2175 23.5619 13.3763 23.7388 13.4825C23.9074 13.5836 24.0922 13.6152 24.2598 13.6152V13.1152V12.6152C24.2125 12.6152 24.2215 12.6059 24.2533 12.625C24.2699 12.6349 24.2863 12.649 24.2998 12.666C24.313 12.6825 24.3187 12.696 24.3205 12.701L23.8496 12.8691ZM28.625 13.9062L28.2957 14.2826L28.3003 14.2864L28.625 13.9062ZM29.4805 10.6719L29.8159 11.0426L29.8181 11.0406L29.4805 10.6719ZM30.5059 9.98633L30.7094 10.443L30.7117 10.442L30.5059 9.98633ZM32.0527 9.85156L32.2922 9.41261L32.2821 9.40711L32.2717 9.40207L32.0527 9.85156ZM32.2695 10.0098L31.916 10.3633L32.419 10.8664L32.7219 10.2227L32.2695 10.0098ZM32.3164 9.91016L32.7688 10.1231L32.7725 10.1151L32.776 10.1071L32.3164 9.91016ZM32.4219 9.66406L31.9642 9.46268L31.9623 9.4671L32.4219 9.66406ZM32.4863 9.51758L32.944 9.71895L32.9611 9.68006L32.9714 9.63885L32.4863 9.51758ZM33.0137 8.25781L33.4745 8.45184L33.4746 8.45161L33.0137 8.25781ZM33.3711 7.38477L33.8364 7.56783L33.8374 7.56526L33.3711 7.38477ZM33.5176 6.99805L33.0359 6.86318L33.0325 6.87678L33.5176 6.99805ZM34.6836 6.34766L34.4023 6.76128L34.4141 6.76879L34.6836 6.34766ZM34.5723 7.5957L35.0195 7.81931L35.0312 7.79584L35.0404 7.77126L34.5723 7.5957ZM33.9629 8.84375L33.5119 8.62788L33.5104 8.63104L33.9629 8.84375ZM32.709 11.6387L33.1677 11.8376L33.1683 11.8361L32.709 11.6387ZM32.2109 12.8105L32.5645 13.1641L32.6349 13.0937L32.6729 13.0017L32.2109 12.8105ZM32.1992 12.8691L31.8457 12.5156L31.6992 12.662V12.8691H32.1992ZM32.252 13.0918L31.7959 13.297L31.8001 13.3058L32.252 13.0918ZM32.4922 13.1914L32.3497 12.7121L32.3418 12.7145L32.3341 12.7171L32.4922 13.1914ZM34.2266 12.0488L34.5718 12.4105L34.5719 12.4104L34.2266 12.0488ZM34.8535 11.3926L35.2376 11.7127L35.2395 11.7104L34.8535 11.3926ZM35.1875 11.375L34.7943 11.6839L34.8009 11.6923L34.8079 11.7004L35.1875 11.375ZM35.1934 11.8613L34.7329 11.6665L34.7297 11.6741L34.7267 11.6818L35.1934 11.8613ZM34.9941 12.1895L35.3645 12.5254L35.3749 12.5139L35.3846 12.5018L34.9941 12.1895ZM34.0449 13.1445L34.3804 13.5153L34.3828 13.5131L34.0449 13.1445ZM33.0605 13.8711L33.3047 14.3075L33.3086 14.3052L33.0605 13.8711ZM31.4258 13.9062L31.0722 14.2598L31.0765 14.264L31.4258 13.9062ZM31.1855 13.0508L31.6599 13.2089L30.7482 12.8084L31.1855 13.0508ZM30.377 13.8418L30.1309 13.4065L30.1289 13.4077L30.377 13.8418ZM31.5078 11.627L31.0707 11.3841L31.0678 11.3895L31.5078 11.627ZM31.8418 10.9531L31.386 10.7473L31.3813 10.7583L31.8418 10.9531ZM31.9238 10.7715L32.3795 10.9773L32.3812 10.9736L31.9238 10.7715ZM32.0352 10.5195L32.4925 10.7216L32.8085 10.0064L32.0267 10.0196L32.0352 10.5195ZM31.2969 10.6719L31.4575 11.1454L31.4646 11.143L31.4717 11.1403L31.2969 10.6719ZM30.1191 11.4805L29.7417 11.1526L29.7414 11.1529L30.1191 11.4805ZM29.5684 12.875L29.0694 12.8429L29.0684 12.8589V12.875H29.5684ZM29.334 14.1465V13.6465C29.1482 13.6465 29.0328 13.597 28.9497 13.5261L28.625 13.9062L28.3003 14.2864C28.5922 14.5358 28.9495 14.6465 29.334 14.6465V14.1465ZM28.625 13.9062L28.9543 13.53C28.9214 13.5012 28.8438 13.4019 28.8438 13.0918H28.3438H27.8438C27.8438 13.5395 27.9536 13.9832 28.2957 14.2825L28.625 13.9062ZM28.3438 13.0918H28.8438C28.8438 12.689 28.933 12.3184 29.1107 11.9727L28.666 11.7441L28.2213 11.5156C27.9693 12.0059 27.8438 12.5337 27.8438 13.0918H28.3438ZM28.666 11.7441L29.1107 11.9727C29.2997 11.605 29.5352 11.2966 29.8159 11.0426L29.4805 10.6719L29.145 10.3011C28.7695 10.6409 28.462 11.0474 28.2213 11.5156L28.666 11.7441ZM29.4805 10.6719L29.8181 11.0406C30.1073 10.7759 30.4046 10.5789 30.7094 10.443L30.5059 9.98633L30.3023 9.52963C29.8884 9.71409 29.5021 9.97412 29.1428 10.3031L29.4805 10.6719ZM30.5059 9.98633L30.7117 10.442C31.0343 10.2963 31.2867 10.2402 31.4785 10.2402V9.74023V9.24023C31.1001 9.24023 30.704 9.34823 30.3001 9.53064L30.5059 9.98633ZM31.4785 9.74023V10.2402C31.659 10.2402 31.7696 10.2698 31.8337 10.3011L32.0527 9.85156L32.2717 9.40207C32.0312 9.28488 31.759 9.24023 31.4785 9.24023V9.74023ZM32.0527 9.85156L31.8133 10.2905C31.8647 10.3185 31.8966 10.344 31.916 10.3633L32.2695 10.0098L32.6231 9.65621C32.5253 9.55839 32.4127 9.47834 32.2922 9.41261L32.0527 9.85156ZM32.2695 10.0098L32.7219 10.2227L32.7688 10.1231L32.3164 9.91016L31.864 9.69726L31.8171 9.79687L32.2695 10.0098ZM32.3164 9.91016L32.776 10.1071L32.8814 9.86102L32.4219 9.66406L31.9623 9.4671L31.8568 9.7132L32.3164 9.91016ZM32.4219 9.66406L32.8795 9.86543L32.944 9.71895L32.4863 9.51758L32.0287 9.31621L31.9642 9.46269L32.4219 9.66406ZM32.4863 9.51758L32.9714 9.63885C32.9656 9.66216 32.9605 9.67315 32.9684 9.65212C32.9735 9.63858 32.9816 9.61785 32.9935 9.58858C33.0171 9.53041 33.0518 9.44783 33.0982 9.33954L32.6387 9.14258L32.1791 8.94562C32.1318 9.05607 32.0942 9.14537 32.067 9.2122C32.0471 9.2614 32.0157 9.33843 32.0013 9.39631L32.4863 9.51758ZM32.6387 9.14258L33.0982 9.33954C33.1926 9.11937 33.3181 8.82335 33.4745 8.45184L33.0137 8.25781L32.5529 8.06378C32.3968 8.43447 32.2722 8.72828 32.1791 8.94562L32.6387 9.14258ZM33.0137 8.25781L33.4746 8.45161C33.62 8.10574 33.7407 7.81091 33.8364 7.56783L33.3711 7.38477L32.9058 7.2017C32.814 7.43518 32.6964 7.72238 32.5528 8.06402L33.0137 8.25781ZM33.3711 7.38477L33.8374 7.56526C33.8844 7.44384 33.9205 7.34973 33.9456 7.28356C33.9581 7.25066 33.9683 7.2233 33.9759 7.20239C33.9781 7.19643 33.9937 7.15513 34.0026 7.11931L33.5176 6.99805L33.0325 6.87678C33.0381 6.85438 33.0441 6.83805 33.0413 6.84638C33.0408 6.84778 33.0393 6.85186 33.0365 6.85962C33.031 6.87484 33.0224 6.89778 33.0104 6.92933C32.9867 6.99207 32.9516 7.0835 32.9048 7.20427L33.3711 7.38477ZM33.5176 6.99805L33.9991 7.13286C34.0347 7.00554 34.0929 6.89614 34.1747 6.79953L33.793 6.47656L33.4113 6.15359C33.2352 6.36168 33.1098 6.59993 33.0361 6.86323L33.5176 6.99805ZM33.793 6.47656L34.1747 6.79953C34.1987 6.77112 34.2268 6.74805 34.3145 6.74805V6.24805V5.74805C33.9646 5.74805 33.645 5.87731 33.4113 6.15359L33.793 6.47656ZM34.3145 6.24805V6.74805C34.3517 6.74805 34.3751 6.75224 34.3878 6.75568C34.3941 6.75738 34.3979 6.75892 34.3999 6.75981C34.4009 6.76027 34.4016 6.76061 34.4019 6.76081C34.4023 6.761 34.4024 6.76111 34.4024 6.76112L34.6836 6.34766L34.9647 5.93419C34.7651 5.79845 34.5374 5.74805 34.3145 5.74805V6.24805ZM34.6836 6.34766L34.4141 6.76879C34.3907 6.75382 34.3707 6.73534 34.3552 6.71571C34.3401 6.69657 34.3323 6.68023 34.3287 6.67124C34.3227 6.65611 34.3301 6.66543 34.3301 6.7168H34.8301H35.3301C35.3301 6.46642 35.2641 6.12552 34.9531 5.92652L34.6836 6.34766ZM34.8301 6.7168H34.3301C34.3301 6.78309 34.3153 6.87147 34.2705 6.9862L34.7363 7.16797L35.2021 7.34974C35.2823 7.14415 35.3301 6.93175 35.3301 6.7168H34.8301ZM34.7363 7.16797L34.2705 6.9862C34.2074 7.14787 34.1519 7.29258 34.1041 7.42014L34.5723 7.5957L35.0404 7.77126C35.0863 7.64883 35.1402 7.50838 35.2021 7.34974L34.7363 7.16797ZM34.5723 7.5957L34.1251 7.3721C33.936 7.75013 33.7316 8.16878 33.5119 8.62789L33.9629 8.84375L34.4139 9.05961C34.6316 8.60466 34.8335 8.19128 35.0195 7.81931L34.5723 7.5957ZM33.9629 8.84375L33.5104 8.63104C33.2942 9.09104 33.078 9.56267 32.8619 10.0459L33.3184 10.25L33.7748 10.4541C33.9884 9.9764 34.2019 9.51052 34.4154 9.05646L33.9629 8.84375ZM33.3184 10.25L32.8619 10.0459C32.6462 10.5284 32.4421 10.9935 32.2496 11.4412L32.709 11.6387L33.1683 11.8361C33.3587 11.3932 33.5609 10.9325 33.7748 10.4541L33.3184 10.25ZM32.709 11.6387L32.2503 11.4398C32.0581 11.883 31.8909 12.2763 31.7489 12.6194L32.2109 12.8105L32.6729 13.0017C32.8122 12.6651 32.9771 12.2772 33.1677 11.8376L32.709 11.6387ZM32.2109 12.8105L31.8574 12.457C31.7492 12.5652 31.7231 12.6885 31.7163 12.7227C31.7063 12.7727 31.7051 12.8154 31.7051 12.8398H32.2051H32.7051C32.7051 12.8486 32.7049 12.8786 32.6968 12.9189C32.6927 12.9397 32.6845 12.9728 32.6679 13.0115C32.6518 13.0493 32.6211 13.1075 32.5645 13.1641L32.2109 12.8105ZM32.2051 12.8398H31.7051C31.7051 12.831 31.7053 12.801 31.7133 12.7608C31.7175 12.74 31.7256 12.7069 31.7422 12.6682C31.7584 12.6304 31.789 12.5722 31.8457 12.5156L32.1992 12.8691L32.5528 13.2227C32.661 13.1145 32.6871 12.9912 32.6939 12.9569C32.7039 12.907 32.7051 12.8643 32.7051 12.8398H32.2051ZM32.1992 12.8691H31.6992C31.6992 13.0239 31.738 13.1681 31.796 13.297L32.252 13.0918L32.7079 12.8866C32.6956 12.8592 32.6992 12.855 32.6992 12.8691H32.1992ZM32.252 13.0918L31.8001 13.3058C31.8486 13.4083 31.9266 13.5148 32.0468 13.5935C32.1685 13.6733 32.3008 13.7031 32.4219 13.7031V13.2031V12.7031C32.4648 12.7031 32.5298 12.7144 32.5948 12.7571C32.6583 12.7987 32.6904 12.8495 32.7038 12.8778L32.252 13.0918ZM32.4219 13.2031V13.7031C32.5019 13.7031 32.5787 13.6896 32.6503 13.6657L32.4922 13.1914L32.3341 12.7171C32.3588 12.7088 32.3887 12.7031 32.4219 12.7031V13.2031ZM32.4922 13.1914L32.6347 13.6707C32.9864 13.5661 33.3319 13.3879 33.6709 13.1489L33.3828 12.7402L33.0947 12.3316C32.8243 12.5223 32.5761 12.6448 32.3497 12.7121L32.4922 13.1914ZM33.3828 12.7402L33.6709 13.1489C33.9949 12.9204 34.2953 12.6744 34.5718 12.4105L34.2266 12.0488L33.8813 11.6872C33.6422 11.9154 33.3801 12.1303 33.0947 12.3316L33.3828 12.7402ZM34.2266 12.0488L34.5719 12.4104C34.8415 12.1529 35.065 11.9198 35.2376 11.7127L34.8535 11.3926L34.4694 11.0725C34.3295 11.2403 34.1351 11.4448 33.8812 11.6873L34.2266 12.0488ZM34.8535 11.3926L35.2395 11.7104C35.236 11.7147 35.2177 11.7358 35.1804 11.7563C35.14 11.7784 35.0894 11.793 35.0352 11.793V11.293V10.793C34.7775 10.793 34.587 10.9297 34.4676 11.0747L34.8535 11.3926ZM35.0352 11.293V11.793C34.9831 11.793 34.9288 11.7799 34.8801 11.7537C34.8339 11.7288 34.8068 11.6997 34.7943 11.6839L35.1875 11.375L35.5807 11.0661C35.4627 10.916 35.2766 10.793 35.0352 10.793V11.293ZM35.1875 11.375L34.8079 11.7004C34.784 11.6726 34.7704 11.6441 34.7634 11.6222C34.757 11.6019 34.7578 11.5918 34.7578 11.5977H35.2578H35.7578C35.7578 11.4212 35.7126 11.2193 35.5671 11.0496L35.1875 11.375ZM35.2578 11.5977H34.7578C34.7578 11.5872 34.7592 11.5873 34.756 11.6005C34.7528 11.6136 34.7461 11.6352 34.7329 11.6665L35.1934 11.8613L35.6538 12.0561C35.7114 11.9202 35.7578 11.7631 35.7578 11.5977H35.2578ZM35.1934 11.8613L34.7267 11.6818C34.7116 11.7212 34.6766 11.786 34.6037 11.8771L34.9941 12.1895L35.3846 12.5018C35.4992 12.3586 35.597 12.2046 35.66 12.0408L35.1934 11.8613ZM34.9941 12.1895L34.6238 11.8535C34.3292 12.1783 34.0236 12.4858 33.7071 12.776L34.0449 13.1445L34.3828 13.5131C34.7224 13.2017 35.0497 12.8725 35.3645 12.5254L34.9941 12.1895ZM34.0449 13.1445L33.7095 12.7738C33.4037 13.0504 33.1045 13.2701 32.8125 13.437L33.0605 13.8711L33.3086 14.3052C33.6729 14.0971 34.0299 13.8324 34.3804 13.5153L34.0449 13.1445ZM33.0605 13.8711L32.8164 13.4348C32.5478 13.5851 32.3108 13.6465 32.0996 13.6465V14.1465V14.6465C32.5134 14.6465 32.9171 14.5243 33.3047 14.3074L33.0605 13.8711ZM32.0996 14.1465V13.6465C31.9114 13.6465 31.8242 13.5964 31.775 13.5485L31.4258 13.9062L31.0765 14.264C31.3555 14.5364 31.7175 14.6465 32.0996 14.6465V14.1465ZM31.4258 13.9062L31.7793 13.5527C31.7411 13.5145 31.6797 13.419 31.6797 13.1738H31.1797H30.6797C30.6797 13.5771 30.7823 13.9699 31.0722 14.2598L31.4258 13.9062ZM31.1797 13.1738H31.6797V13.1094H31.1797H30.6797V13.1738H31.1797ZM31.1797 13.1094H31.6797C31.6797 13.1064 31.6798 13.1122 31.6787 13.124C31.6781 13.1302 31.6768 13.1403 31.6744 13.1532C31.6721 13.1656 31.6678 13.1852 31.6599 13.2089L31.1855 13.0508L30.7112 12.8927C30.6797 12.9872 30.6797 13.0774 30.6797 13.1094H31.1797ZM31.1855 13.0508L30.7482 12.8084C30.6182 13.043 30.4193 13.2435 30.1309 13.4065L30.377 13.8418L30.623 14.2771C31.0533 14.0339 31.3935 13.707 31.6229 13.2932L31.1855 13.0508ZM30.377 13.8418L30.1289 13.4077C29.8335 13.5765 29.5706 13.6465 29.334 13.6465V14.1465V14.6465C29.7771 14.6465 30.2095 14.5134 30.625 14.2759L30.377 13.8418ZM29.7676 13.1094V13.6094C30.1139 13.6094 30.4365 13.5024 30.7264 13.3074L30.4473 12.8926L30.1682 12.4777C30.0283 12.5718 29.8978 12.6094 29.7676 12.6094V13.1094ZM30.4473 12.8926L30.7264 13.3074C30.9885 13.1311 31.2228 12.9089 31.4308 12.6466L31.0391 12.3359L30.6473 12.0252C30.4959 12.2161 30.3357 12.365 30.1682 12.4777L30.4473 12.8926ZM31.0391 12.3359L31.4308 12.6466C31.6281 12.3979 31.8006 12.1372 31.9478 11.8644L31.5078 11.627L31.0678 11.3895C30.9494 11.6089 30.8094 11.8208 30.6473 12.0252L31.0391 12.3359ZM31.5078 11.627L31.9449 11.8698C32.088 11.6121 32.2078 11.3712 32.3023 11.1479L31.8418 10.9531L31.3813 10.7583C31.3039 10.9413 31.201 11.1496 31.0707 11.3841L31.5078 11.627ZM31.8418 10.9531L32.2975 11.1589L32.3795 10.9773L31.9238 10.7715L31.4681 10.5657L31.3861 10.7473L31.8418 10.9531ZM31.9238 10.7715L32.3812 10.9736L32.4925 10.7216L32.0352 10.5195L31.5778 10.3174L31.4665 10.5694L31.9238 10.7715ZM32.0352 10.5195L32.0267 10.0196C31.7288 10.0247 31.4261 10.09 31.1221 10.2034L31.2969 10.6719L31.4717 11.1403C31.6911 11.0585 31.8806 11.0222 32.0436 11.0195L32.0352 10.5195ZM31.2969 10.6719L31.1363 10.1984C30.5965 10.3814 30.1309 10.7045 29.7417 11.1526L30.1191 11.4805L30.4966 11.8084C30.7792 11.483 31.0988 11.267 31.4575 11.1454L31.2969 10.6719ZM30.1191 11.4805L29.7414 11.1529C29.3318 11.6251 29.111 12.1964 29.0694 12.8429L29.5684 12.875L30.0673 12.9071C30.0961 12.4599 30.2424 12.1014 30.4969 11.8081L30.1191 11.4805ZM29.5684 12.875H29.0684C29.0684 13.0121 29.0958 13.2082 29.2372 13.3746C29.3918 13.5565 29.6009 13.6094 29.7676 13.6094V13.1094V12.6094C29.8014 12.6094 29.9109 12.6232 29.9991 12.727C30.0741 12.8152 30.0684 12.8941 30.0684 12.875H29.5684ZM34.2676 13.666L33.8762 13.9773L33.8806 13.9826L34.2676 13.666ZM34.7422 10.9941L35.1582 11.2715L35.161 11.2673L34.7422 10.9941ZM35.6387 10.0977L35.3665 9.67823L35.3644 9.67957L35.6387 10.0977ZM37.6895 9.94531L37.9515 9.51948L37.9436 9.51461L37.9355 9.51003L37.6895 9.94531ZM37.8301 10.0449L37.5135 10.4319L37.5324 10.4474L37.5527 10.4609L37.8301 10.0449ZM37.959 10.1504L37.6054 10.5039L37.8572 10.7557L38.1774 10.6001L37.959 10.1504ZM38.1641 10.0508L37.9526 9.59764L37.9456 9.60103L38.1641 10.0508ZM38.3457 9.98047L38.4948 10.4577L38.5035 10.455L38.5121 10.452L38.3457 9.98047ZM39.0137 10.4023L38.5393 10.2442L38.5333 10.2624L38.5286 10.2811L39.0137 10.4023ZM38.8613 10.8535L38.3951 10.6727L38.392 10.6811L38.8613 10.8535ZM38.6328 11.4922L39.103 11.6624L39.1047 11.6574L38.6328 11.4922ZM38.4219 12.1484L37.94 12.0146L37.9379 12.023L38.4219 12.1484ZM38.3984 12.9629L37.9511 13.1865L37.956 13.1958L38.3984 12.9629ZM39.0547 12.8809L39.334 13.2956L39.3397 13.2917L39.0547 12.8809ZM39.6465 12.4121L39.9778 12.7866L39.9795 12.7851L39.6465 12.4121ZM39.9863 12.1016L40.3275 12.4671L40.3338 12.4611L39.9863 12.1016ZM40.3438 11.7441L40.0285 11.3561L40.0053 11.3749L39.9846 11.3962L40.3438 11.7441ZM40.7188 11.7852L40.2995 12.0577L40.3075 12.0699L40.3162 12.0818L40.7188 11.7852ZM40.6895 12.3125L41.029 12.6795L41.0361 12.6729L41.043 12.6661L40.6895 12.3125ZM39.5293 13.3789L39.8459 13.7659L39.8473 13.7647L39.5293 13.3789ZM38.7324 13.9238L38.971 14.3633L38.9758 14.3606L38.7324 13.9238ZM37.3965 13.8301L36.9643 14.0815L36.9663 14.085L37.3965 13.8301ZM37.2852 12.6758L37.7539 12.8499L36.8843 12.3769L37.2852 12.6758ZM36.7168 13.3438L37.0765 13.6911L37.0795 13.688L36.7168 13.3438ZM36.0078 13.918L36.2651 14.3467L36.2699 14.3438L36.0078 13.918ZM36.166 12.875L35.8451 12.4915L35.8413 12.4948L36.166 12.875ZM36.7168 12.3125L36.3327 11.9924L36.3298 11.9959L36.7168 12.3125ZM37.0918 10.9355L36.8601 11.3787L36.8682 11.3828L37.0918 10.9355ZM35.9375 11.0352L35.6469 10.6283L35.6434 10.6308L35.9375 11.0352ZM35.4102 11.6387L35.8456 11.8845L35.8472 11.8815L35.4102 11.6387ZM35.2871 12.8691L34.8127 13.0273L34.8162 13.0373L35.2871 12.8691ZM35.2285 14.1465V13.6465C35.1834 13.6465 35.0918 13.6325 34.9413 13.5716L34.7539 14.0352L34.5665 14.4987C34.7832 14.5863 35.008 14.6465 35.2285 14.6465V14.1465ZM34.7539 14.0352L34.9413 13.5716C34.8446 13.5325 34.7486 13.4643 34.6546 13.3494L34.2676 13.666L33.8806 13.9826C34.0678 14.2114 34.296 14.3894 34.5665 14.4987L34.7539 14.0352ZM34.2676 13.666L34.6589 13.3548C34.612 13.2959 34.5625 13.1865 34.5625 12.9746H34.0625H33.5625C33.5625 13.3408 33.6497 13.6924 33.8763 13.9773L34.2676 13.666ZM34.0625 12.9746H34.5625C34.5625 12.8007 34.603 12.5504 34.7053 12.2106L34.2266 12.0664L33.7478 11.9223C33.6313 12.309 33.5625 12.6641 33.5625 12.9746H34.0625ZM34.2266 12.0664L34.7053 12.2106C34.799 11.8996 34.9481 11.5866 35.1582 11.2715L34.7422 10.9941L34.3262 10.7168C34.0675 11.1048 33.8729 11.5067 33.7478 11.9223L34.2266 12.0664ZM34.7422 10.9941L35.161 11.2673C35.3572 10.9664 35.6065 10.7167 35.9129 10.5157L35.6387 10.0977L35.3644 9.67957C34.9442 9.95519 34.5959 10.3031 34.3234 10.721L34.7422 10.9941ZM35.6387 10.0977L35.9109 10.5171C36.1892 10.3365 36.5165 10.2402 36.9102 10.2402V9.74023V9.24023C36.3429 9.24023 35.8226 9.38227 35.3665 9.67823L35.6387 10.0977ZM36.9102 9.74023V10.2402C37.0419 10.2402 37.1367 10.2569 37.2032 10.279L37.3613 9.80469L37.5194 9.33035C37.3281 9.26657 37.1222 9.24023 36.9102 9.24023V9.74023ZM37.3613 9.80469L37.2032 10.279C37.3106 10.3148 37.3887 10.3497 37.4434 10.3806L37.6895 9.94531L37.9355 9.51003C37.8105 9.43938 37.6699 9.38049 37.5194 9.33035L37.3613 9.80469ZM37.6895 9.94531L37.4274 10.3711C37.4605 10.3915 37.489 10.4119 37.5135 10.4319L37.8301 10.0449L38.1467 9.65794C38.0852 9.60764 38.0199 9.5616 37.9515 9.51948L37.6895 9.94531ZM37.8301 10.0449L37.5527 10.4609C37.5728 10.4743 37.5901 10.4886 37.6054 10.5039L37.959 10.1504L38.3125 9.79684C38.2497 9.73403 38.1812 9.67805 38.1074 9.6289L37.8301 10.0449ZM37.959 10.1504L38.1774 10.6001L38.3825 10.5005L38.1641 10.0508L37.9456 9.60103L37.7405 9.70064L37.959 10.1504ZM38.1641 10.0508L38.3755 10.5039C38.4136 10.4861 38.4534 10.4707 38.4948 10.4577L38.3457 9.98047L38.1966 9.50323C38.1131 9.52933 38.0317 9.5608 37.9526 9.59769L38.1641 10.0508ZM38.3457 9.98047L38.5121 10.452C38.5284 10.4462 38.5372 10.4442 38.5393 10.4437C38.5402 10.4436 38.5386 10.4439 38.5349 10.4443C38.5312 10.4448 38.5246 10.4453 38.5156 10.4453V9.94531V9.44531C38.3912 9.44531 38.275 9.47518 38.1793 9.50897L38.3457 9.98047ZM38.5156 9.94531V10.4453C38.5439 10.4453 38.5561 10.4492 38.5574 10.4496C38.5581 10.4499 38.557 10.4496 38.555 10.4484C38.5529 10.4472 38.551 10.4458 38.5497 10.4446L38.8789 10.0684L39.2082 9.69207C39.0064 9.51556 38.7608 9.44531 38.5156 9.44531V9.94531ZM38.8789 10.0684L38.5497 10.4446C38.5602 10.4539 38.5521 10.4496 38.5411 10.4285C38.5287 10.4049 38.5195 10.3727 38.5195 10.3379H39.0195H39.5195C39.5195 10.0583 39.3784 9.84099 39.2082 9.69207L38.8789 10.0684ZM39.0195 10.3379H38.5195C38.5195 10.3445 38.5193 10.3415 38.5201 10.3322C38.5206 10.3272 38.5216 10.3177 38.5238 10.3048C38.526 10.2929 38.5303 10.2712 38.5393 10.2442L39.0137 10.4023L39.488 10.5605C39.5207 10.4625 39.5195 10.3652 39.5195 10.3379H39.0195ZM39.0137 10.4023L38.5286 10.2811C38.5088 10.3602 38.4669 10.4878 38.3951 10.6728L38.8613 10.8535L39.3275 11.0343C39.4042 10.8364 39.4638 10.6633 39.4987 10.5236L39.0137 10.4023ZM38.8613 10.8535L38.392 10.6811C38.3206 10.8754 38.2436 11.0907 38.1609 11.327L38.6328 11.4922L39.1047 11.6574C39.1861 11.4249 39.2614 11.2145 39.3307 11.0259L38.8613 10.8535ZM38.6328 11.4922L38.1627 11.322C38.0767 11.5593 38.0024 11.7903 37.9401 12.0146L38.4219 12.1484L38.9036 12.2823C38.9585 12.0847 39.0248 11.8782 39.1029 11.6624L38.6328 11.4922ZM38.4219 12.1484L37.9379 12.023C37.878 12.2537 37.8398 12.4735 37.8398 12.6699H38.3398H38.8398C38.8398 12.5929 38.8563 12.465 38.9059 12.2739L38.4219 12.1484ZM38.3398 12.6699H37.8398C37.8398 12.8394 37.8677 13.0194 37.9512 13.1865L38.3984 12.9629L38.8457 12.7393C38.8511 12.7501 38.8398 12.7348 38.8398 12.6699H38.3398ZM38.3984 12.9629L37.956 13.1958C38.0158 13.3094 38.1074 13.4123 38.2336 13.4829C38.3568 13.5517 38.485 13.5742 38.5977 13.5742V13.0742V12.5742C38.6165 12.5742 38.6647 12.5782 38.7214 12.6099C38.7813 12.6434 38.8201 12.6906 38.8409 12.73L38.3984 12.9629ZM38.5977 13.0742V13.5742C38.8704 13.5742 39.1302 13.4328 39.334 13.2956L39.0547 12.8809L38.7754 12.4661C38.6967 12.5191 38.6397 12.5495 38.6021 12.5654C38.5615 12.5825 38.564 12.5742 38.5977 12.5742V13.0742ZM39.0547 12.8809L39.3397 13.2917C39.5496 13.146 39.7623 12.9772 39.9778 12.7866L39.6465 12.4121L39.3152 12.0376C39.1244 12.2064 38.9426 12.3501 38.7696 12.4701L39.0547 12.8809ZM39.6465 12.4121L39.9795 12.7851C40.0919 12.6848 40.2079 12.5787 40.3275 12.4671L39.9863 12.1016L39.6452 11.736C39.5304 11.8431 39.4199 11.9441 39.3135 12.0391L39.6465 12.4121ZM39.9863 12.1016L40.3338 12.4611C40.4552 12.3437 40.5782 12.2207 40.7029 12.092L40.3438 11.7441L39.9846 11.3962C39.8671 11.5176 39.7518 11.6328 39.6388 11.7421L39.9863 12.1016ZM40.3438 11.7441L40.659 12.1322C40.6655 12.1269 40.6181 12.168 40.5254 12.168V11.668V11.168C40.3155 11.168 40.147 11.2598 40.0285 11.3561L40.3438 11.7441ZM40.5254 11.668V12.168C40.4766 12.168 40.422 12.1545 40.3732 12.1249C40.3277 12.0973 40.3057 12.0671 40.2995 12.0577L40.7188 11.7852L41.138 11.5127C41.0155 11.3243 40.8073 11.168 40.5254 11.168V11.668ZM40.7188 11.7852L40.3162 12.0818C40.3132 12.0777 40.3084 12.0697 40.3048 12.0586C40.3013 12.0476 40.3008 12.0396 40.3008 12.0371H40.8008H41.3008C41.3008 11.8386 41.2404 11.6503 41.1213 11.4886L40.7188 11.7852ZM40.8008 12.0371H40.3008C40.3008 12.0343 40.3015 12.0202 40.3094 12.0006C40.3175 11.9806 40.3285 11.9664 40.3359 11.9589L40.6895 12.3125L41.043 12.6661C41.2153 12.4938 41.3008 12.2729 41.3008 12.0371H40.8008ZM40.6895 12.3125L40.3499 11.9455C40.1885 12.0948 40.0237 12.2536 39.8554 12.4218L40.209 12.7754L40.5625 13.1289C40.7224 12.9691 40.8779 12.8193 41.029 12.6795L40.6895 12.3125ZM40.209 12.7754L39.8554 12.4218C39.7074 12.5699 39.4945 12.7596 39.2113 12.9931L39.5293 13.3789L39.8473 13.7647C40.1422 13.5216 40.3825 13.309 40.5625 13.1289L40.209 12.7754ZM39.5293 13.3789L39.2127 12.9919C38.9763 13.1853 38.7351 13.35 38.4891 13.487L38.7324 13.9238L38.9758 14.3606C39.2767 14.193 39.5667 13.9944 39.8459 13.7659L39.5293 13.3789ZM38.7324 13.9238L38.4939 13.4844C38.2646 13.6089 38.1018 13.6465 37.9941 13.6465V14.1465V14.6465C38.324 14.6465 38.6534 14.5357 38.971 14.3633L38.7324 13.9238ZM37.9941 14.1465V13.6465C37.8729 13.6465 37.8498 13.6143 37.8266 13.5752L37.3965 13.8301L36.9663 14.085C37.1932 14.4678 37.5685 14.6465 37.9941 14.6465V14.1465ZM37.3965 13.8301L37.8287 13.5786C37.7469 13.438 37.709 13.296 37.709 13.1445H37.209H36.709C36.709 13.4775 36.7961 13.7924 36.9643 14.0815L37.3965 13.8301ZM37.209 13.1445H37.709C37.709 13.0163 37.7275 12.9208 37.7539 12.8499L37.2852 12.6758L36.8164 12.5017C36.7412 12.7042 36.709 12.9212 36.709 13.1445H37.209ZM37.2852 12.6758L36.8843 12.3769C36.7379 12.5733 36.5617 12.7809 36.3541 12.9995L36.7168 13.3438L37.0795 13.688C37.3094 13.4457 37.5121 13.2079 37.686 12.9746L37.2852 12.6758ZM36.7168 13.3438L36.3571 12.9965C36.1658 13.1945 35.962 13.3591 35.7458 13.4921L36.0078 13.918L36.2699 14.3438C36.5614 14.1644 36.8303 13.9461 37.0765 13.691L36.7168 13.3438ZM36.0078 13.918L35.7506 13.4892C35.5652 13.6004 35.3934 13.6465 35.2285 13.6465V14.1465V14.6465C35.5949 14.6465 35.9426 14.5402 36.2651 14.3467L36.0078 13.918ZM35.6973 13.1152V13.6152C36.0126 13.6152 36.288 13.4283 36.4908 13.2552L36.166 12.875L35.8413 12.4948C35.7662 12.5589 35.7129 12.5935 35.6802 12.6102C35.6458 12.6278 35.655 12.6152 35.6973 12.6152V13.1152ZM36.166 12.875L36.4869 13.2585C36.7049 13.0761 36.9103 12.8656 37.1038 12.6291L36.7168 12.3125L36.3298 11.9959C36.1717 12.1891 36.01 12.3536 35.8452 12.4915L36.166 12.875ZM36.7168 12.3125L37.1009 12.6326C37.3075 12.3847 37.4791 12.1496 37.61 11.9285L37.1797 11.6738L36.7494 11.4192C36.6537 11.5809 36.5167 11.7716 36.3327 11.9924L36.7168 12.3125ZM37.1797 11.6738L37.61 11.9285C37.6717 11.8242 37.7253 11.7249 37.7649 11.6347C37.7968 11.5622 37.8496 11.4316 37.8496 11.2871H37.3496H36.8496C36.8496 11.2608 36.8523 11.241 36.8542 11.2299C36.8562 11.2184 36.8582 11.2112 36.8588 11.2094C36.8596 11.2064 36.8578 11.2133 36.8494 11.2325C36.8324 11.2712 36.8009 11.3321 36.7494 11.4192L37.1797 11.6738ZM37.3496 11.2871H37.8496C37.8496 10.8913 37.5977 10.6295 37.3154 10.4883L37.0918 10.9355L36.8682 11.3828C36.9051 11.4012 36.8986 11.4063 36.882 11.3836C36.8732 11.3716 36.8641 11.3552 36.8578 11.3356C36.8514 11.316 36.8496 11.2989 36.8496 11.2871H37.3496ZM37.0918 10.9355L37.3234 10.4924C37.1081 10.3799 36.8729 10.3008 36.6289 10.3008V10.8008V11.3008C36.6583 11.3008 36.7317 11.3115 36.8602 11.3787L37.0918 10.9355ZM36.6289 10.8008V10.3008C36.2711 10.3008 35.9407 10.4184 35.6469 10.6283L35.9375 11.0352L36.2281 11.442C36.3718 11.3394 36.5023 11.3008 36.6289 11.3008V10.8008ZM35.9375 11.0352L35.6434 10.6308C35.3662 10.8324 35.143 11.09 34.9731 11.3959L35.4102 11.6387L35.8472 11.8815C35.9508 11.6951 36.0791 11.5504 36.2316 11.4395L35.9375 11.0352ZM35.4102 11.6387L34.9747 11.3929C34.7984 11.7052 34.7051 12.0413 34.7051 12.3945H35.2051H35.7051C35.7051 12.2244 35.7484 12.0565 35.8456 11.8845L35.4102 11.6387ZM35.2051 12.3945H34.7051C34.7051 12.6073 34.7433 12.819 34.8128 13.0273L35.2871 12.8691L35.7615 12.711C35.7215 12.5912 35.7051 12.4864 35.7051 12.3945H35.2051ZM35.2871 12.8691L34.8162 13.0373C34.8806 13.2175 34.9994 13.3763 35.1763 13.4825C35.3449 13.5836 35.5297 13.6152 35.6973 13.6152V13.1152V12.6152C35.65 12.6152 35.659 12.6059 35.6908 12.625C35.7074 12.6349 35.7238 12.649 35.7373 12.666C35.7505 12.6825 35.7562 12.696 35.758 12.701L35.2871 12.8691ZM39.9688 13.8711L39.7251 14.3077L39.729 14.3098L39.9688 13.8711ZM39.3242 12.9863L38.8339 13.0844L38.8355 13.0921L38.8373 13.0998L39.3242 12.9863ZM39.4238 12.6406L39.7775 12.9943L39.7863 12.985L39.4238 12.6406ZM39.8105 12.5469L39.6635 13.0249L39.6732 13.0276L39.8105 12.5469ZM39.9336 12.6523L39.4864 12.876L39.491 12.8853L39.4961 12.8944L39.9336 12.6523ZM40.4551 13.0977L40.246 13.5519L40.2547 13.5557L40.4551 13.0977ZM41.8496 13.1152L41.6224 12.6698L41.6186 12.6718L41.8496 13.1152ZM41.9023 11.9082L41.497 12.201L41.5006 12.2058L41.9023 11.9082ZM41.3223 11.3398L41.0233 11.7407L41.031 11.7463L41.3223 11.3398ZM40.625 10.8652L40.8875 10.4396L40.8822 10.4365L40.625 10.8652ZM40.5371 10.7656L40.1211 11.043L40.1256 11.0497L40.1302 11.0562L40.5371 10.7656ZM40.5137 10.4785L40.8933 10.8039L40.9045 10.7908L40.9148 10.777L40.5137 10.4785ZM42.0605 9.875L41.7516 10.2682L41.7593 10.2742L41.7673 10.28L42.0605 9.875ZM42.0781 10.4316L42.4173 10.7991L42.4247 10.7921L42.0781 10.4316ZM41.7617 10.7012L41.4528 10.308L40.8436 10.7866L41.5307 11.1446L41.7617 10.7012ZM42.8691 11.627L42.4651 11.9215L42.4666 11.9236L42.8691 11.627ZM42.9512 13.4902L43.3015 13.847L43.3015 13.847L42.9512 13.4902ZM42.125 13.9766L41.9652 13.5028L41.9635 13.5033L42.125 13.9766ZM41.0879 14.1465V13.6465C40.7554 13.6465 40.4657 13.5729 40.2085 13.4323L39.9688 13.8711L39.729 14.3098C40.1437 14.5365 40.6001 14.6465 41.0879 14.6465V14.1465ZM39.9688 13.8711L40.2124 13.4345C40.0093 13.3211 39.8756 13.1494 39.8112 12.8729L39.3242 12.9863L38.8373 13.0998C38.9603 13.6279 39.2563 14.0461 39.7251 14.3077L39.9688 13.8711ZM39.3242 12.9863L39.8145 12.8883C39.813 12.8808 39.8119 12.8748 39.811 12.8702C39.8102 12.8654 39.8097 12.8628 39.8096 12.862C39.8094 12.8608 39.8099 12.8636 39.8105 12.8692C39.8108 12.8721 39.8112 12.8768 39.8116 12.883C39.812 12.8889 39.8125 12.8983 39.8125 12.9102H39.3125H38.8125C38.8125 12.9811 38.8287 13.0581 38.8339 13.0844L39.3242 12.9863ZM39.3125 12.9102H39.8125C39.8125 12.9173 39.811 12.934 39.8025 12.9546C39.7939 12.9752 39.7831 12.9885 39.7774 12.9942L39.4238 12.6406L39.0703 12.2871C38.9018 12.4556 38.8125 12.6728 38.8125 12.9102H39.3125ZM39.4238 12.6406L39.7863 12.985C39.7889 12.9823 39.7795 12.9929 39.756 13.0042C39.7306 13.0162 39.7002 13.0234 39.6699 13.0234V12.5234V12.0234C39.4161 12.0234 39.2096 12.1401 39.0613 12.2963L39.4238 12.6406ZM39.6699 12.5234V13.0234C39.6612 13.0234 39.656 13.0226 39.6551 13.0225C39.6542 13.0223 39.6569 13.0227 39.6635 13.0248L39.8105 12.5469L39.9576 12.069C39.87 12.042 39.7729 12.0234 39.6699 12.0234V12.5234ZM39.8105 12.5469L39.6732 13.0276C39.635 13.0167 39.594 12.9963 39.5569 12.9646C39.5206 12.9334 39.4986 12.9004 39.4864 12.876L39.9336 12.6523L40.3808 12.4287C40.2961 12.2592 40.1483 12.1234 39.9479 12.0661L39.8105 12.5469ZM39.9336 12.6523L39.4961 12.8944C39.6625 13.1952 39.9313 13.407 40.246 13.5518L40.4551 13.0977L40.6641 12.6435C40.4866 12.5617 40.4078 12.4767 40.3711 12.4103L39.9336 12.6523ZM40.4551 13.0977L40.2547 13.5557C40.5587 13.6888 40.8709 13.7617 41.1875 13.7617V13.2617V12.7617C41.0275 12.7617 40.8514 12.7253 40.6555 12.6396L40.4551 13.0977ZM41.1875 13.2617V13.7617C41.5058 13.7617 41.8088 13.7003 42.0806 13.5587L41.8496 13.1152L41.6186 12.6718C41.5155 12.7255 41.377 12.7617 41.1875 12.7617V13.2617ZM41.8496 13.1152L42.0768 13.5606C42.2433 13.4757 42.3911 13.3508 42.4941 13.1784C42.5966 13.0069 42.6367 12.8188 42.6367 12.6348H42.1367H41.6367C41.6367 12.6547 41.6346 12.6653 41.6337 12.6688C41.6329 12.6718 41.6331 12.6698 41.6357 12.6654C41.6369 12.6634 41.6382 12.6616 41.6394 12.6602C41.6406 12.6588 41.6413 12.6581 41.6412 12.6582C41.641 12.6584 41.6359 12.6629 41.6224 12.6699L41.8496 13.1152ZM42.1367 12.6348H42.6367C42.6367 12.2589 42.5269 11.9114 42.3041 11.6106L41.9023 11.9082L41.5006 12.2058C41.5902 12.3269 41.6367 12.4637 41.6367 12.6348H42.1367ZM41.9023 11.9082L42.3077 11.6155C42.1205 11.3562 41.8871 11.1295 41.6135 10.9334L41.3223 11.3398L41.031 11.7463C41.2262 11.8861 41.3795 12.0383 41.497 12.2009L41.9023 11.9082ZM41.3223 11.3398L41.6212 10.939C41.3794 10.7587 41.1349 10.5922 40.8874 10.4396L40.625 10.8652L40.3626 11.2908C40.5839 11.4273 40.8042 11.5772 41.0234 11.7407L41.3223 11.3398ZM40.625 10.8652L40.8822 10.4365C40.9003 10.4473 40.9144 10.4575 40.9242 10.4652C40.9341 10.4729 40.9418 10.4796 40.947 10.4845C40.9571 10.4937 40.9627 10.5 40.9633 10.5007C40.9642 10.5017 40.9581 10.4947 40.944 10.475L40.5371 10.7656L40.1302 11.0562C40.1552 11.0912 40.1833 11.1282 40.2135 11.1624C40.2364 11.1883 40.2899 11.2472 40.3678 11.294L40.625 10.8652ZM40.5371 10.7656L40.9531 10.4883C40.9576 10.495 40.9785 10.5313 40.9785 10.5898H40.4785H39.9785C39.9785 10.7656 40.0385 10.9191 40.1211 11.043L40.5371 10.7656ZM40.4785 10.5898H40.9785C40.9785 10.6257 40.9685 10.7162 40.8933 10.8039L40.5137 10.4785L40.134 10.1531C40.012 10.2955 39.9785 10.4603 39.9785 10.5898H40.4785ZM40.5137 10.4785L40.9148 10.777C41.0111 10.6476 41.1411 10.5124 41.3112 10.373L40.9941 9.98633L40.6771 9.59969C40.4565 9.78057 40.2663 9.97345 40.1126 10.18L40.5137 10.4785ZM40.9941 9.98633L41.3112 10.373C41.4246 10.28 41.5292 10.2461 41.6387 10.2461V9.74609V9.24609C41.2794 9.24609 40.9544 9.37235 40.6771 9.59969L40.9941 9.98633ZM41.6387 9.74609V10.2461C41.7256 10.2461 41.7495 10.2665 41.7516 10.2682L42.0605 9.875L42.3695 9.48184C42.1528 9.31165 41.8955 9.24609 41.6387 9.24609V9.74609ZM42.0605 9.875L41.7673 10.28C41.795 10.3001 41.7906 10.3025 41.7765 10.2821C41.7598 10.2579 41.7305 10.2017 41.7305 10.1211H42.2305H42.7305C42.7305 9.79282 42.5066 9.58068 42.3538 9.47003L42.0605 9.875ZM42.2305 10.1211H41.7305C41.7305 10.1093 41.7319 10.0974 41.7346 10.086C41.7373 10.0747 41.7407 10.0661 41.7435 10.0605C41.7488 10.0498 41.7493 10.0541 41.7316 10.0712L42.0781 10.4316L42.4247 10.7921C42.5946 10.6287 42.7305 10.4028 42.7305 10.1211H42.2305ZM42.0781 10.4316L41.739 10.0642C41.6472 10.1489 41.5518 10.2302 41.4528 10.308L41.7617 10.7012L42.0706 11.0943C42.1904 11.0003 42.3059 10.9018 42.4173 10.799L42.0781 10.4316ZM41.7617 10.7012L41.5307 11.1446C41.9361 11.3558 42.2427 11.6165 42.4651 11.9215L42.8691 11.627L43.2731 11.3324C42.9487 10.8874 42.517 10.5309 41.9927 10.2577L41.7617 10.7012ZM42.8691 11.627L42.4666 11.9236C42.6955 12.2342 42.7793 12.4959 42.7793 12.7168H43.2793H43.7793C43.7793 12.2267 43.5896 11.7619 43.2717 11.3304L42.8691 11.627ZM43.2793 12.7168H42.7793C42.7793 12.8805 42.7259 13.0106 42.6008 13.1335L42.9512 13.4902L43.3015 13.847C43.6139 13.5401 43.7793 13.1546 43.7793 12.7168H43.2793ZM42.9512 13.4902L42.6009 13.1335C42.4486 13.2829 42.2423 13.4094 41.9652 13.5028L42.125 13.9766L42.2848 14.4504C42.6796 14.3172 43.024 14.1194 43.3015 13.847L42.9512 13.4902ZM42.125 13.9766L41.9635 13.5033C41.6848 13.5985 41.3937 13.6465 41.0879 13.6465V14.1465V14.6465C41.5008 14.6465 41.9012 14.5812 42.2865 14.4498L42.125 13.9766Z" fill="#3C406B" mask="url(#path-2-outside-1_91_2)"/>
<path fill-rule="evenodd" clip-rule="evenodd" d="M4.49609 1C4.29149 2.18308 3.35955 2.41251 2.87764 2.44166C4.01243 2.65496 4.2325 3.62657 4.26045 4.12898C4.36327 3.63727 4.72609 2.71338 5.87891 2.68732C5.40727 2.58013 4.52109 2.20187 4.49609 1Z" stroke="#F4C2C2" stroke-width="0.4" stroke-linecap="round" stroke-linejoin="round"/>
<path fill-rule="evenodd" clip-rule="evenodd" d="M44.3499 14C43.7535 15.336 42.5801 15.305 42.0001 15.1829C43.2815 15.8047 43.2518 17.028 43.1347 17.6327C43.4036 17.0832 44.1101 16.1059 45.4845 16.4498C44.9574 16.1694 44.02 15.4329 44.3499 14Z" stroke="#3C406B" stroke-width="0.5" stroke-linecap="round" stroke-linejoin="round"/>
</svg>
